<?xml version="1.0" encoding="UTF-8"?>
<svg version="1.1" xmlns="http://www.w3.org/2000/svg" width="900" height="668">
<path d="M0 0 C297 0 594 0 900 0 C900 220.44 900 440.88 900 668 C603 668 306 668 0 668 C0 447.56 0 227.12 0 0 Z " fill="#000000" transform="translate(0,0)"/>
<path d="M0 0 C12.1275 -0.0825 24.255 -0.165 36.75 -0.25 C40.5769043 -0.28641602 44.40380859 -0.32283203 48.34667969 -0.36035156 C53.02587891 -0.37841797 53.02587891 -0.37841797 55.21759033 -0.3817749 C56.74579528 -0.38791057 58.27398105 -0.40196544 59.80206299 -0.42230225 C62.11935982 -0.45159632 64.43547535 -0.45562385 66.75292969 -0.45410156 C68.05864929 -0.46298401 69.3643689 -0.47186646 70.70965576 -0.48101807 C74 0 74 0 76.45294189 1.90338135 C78 4 78 4 78 6 C78.99 6.33 79.98 6.66 81 7 C82.56713867 8.57299805 82.56713867 8.57299805 84.23046875 10.57421875 C87.80001825 14.78068604 91.52362766 18.80389682 95.3125 22.8125 C96.62133116 24.20941302 97.92992392 25.60654944 99.23828125 27.00390625 C101.55012175 29.46826604 103.87843151 31.91386633 106.23046875 34.33984375 C107.15382692 35.30972346 108.07701741 36.27976286 109 37.25 C109.804375 38.08015625 110.60875 38.9103125 111.4375 39.765625 C113 42 113 42 112.9921875 43.98828125 C111.68348637 46.64175008 110.03649291 48.6756801 108.125 50.9375 C107.31289063 51.90558594 106.50078125 52.87367188 105.6640625 53.87109375 C104.77651865 54.91446843 103.88848638 55.95742782 103 57 C102.09075005 58.07388376 101.18190005 59.14810629 100.2734375 60.22265625 C98.87915434 61.87105041 97.48408264 63.51873471 96.08618164 65.1640625 C93.20559056 68.55759434 90.36864477 71.98183167 87.5625 75.4375 C84.08927488 79.70745059 80.53198509 83.89495673 76.9375 88.0625 C73.55221189 91.9881677 70.2136396 95.93117149 67 100 C63.29323773 104.69317718 59.40926678 109.21779314 55.50317383 113.74462891 C51.66491495 118.20082498 47.91997668 122.72410081 44.23046875 127.3046875 C41.22812608 130.93273731 38.10104684 134.45594647 35 138 C23.45 138 11.9 138 0 138 C0 92.46 0 46.92 0 0 Z " fill="#2582A0" transform="translate(273,174)"/>
<path d="M0 0 C10.40147088 8.71938483 14.70744834 19.90832264 16.4921875 33.234375 C17.52109251 48.44867537 15.56880474 64.38686214 5.8671875 76.734375 C5.0834375 77.559375 4.2996875 78.384375 3.4921875 79.234375 C2.8321875 79.234375 2.1721875 79.234375 1.4921875 79.234375 C1.4921875 79.894375 1.4921875 80.554375 1.4921875 81.234375 C-0.1107178 82.04936062 -1.71518528 82.86127427 -3.3203125 83.671875 C-4.21363281 84.12433594 -5.10695313 84.57679688 -6.02734375 85.04296875 C-13.10485097 88.44240135 -21.92122059 88.27949685 -29.5078125 86.55078125 C-35.56927205 84.32393407 -37.5217552 82.2204323 -42.5078125 77.234375 C-42.8378125 101.324375 -43.1678125 125.414375 -43.5078125 150.234375 C-51.0978125 150.234375 -58.6878125 150.234375 -66.5078125 150.234375 C-66.5078125 99.414375 -66.5078125 48.594375 -66.5078125 -3.765625 C-59.2478125 -3.765625 -51.9878125 -3.765625 -44.5078125 -3.765625 C-44.1778125 -1.125625 -43.8478125 1.514375 -43.5078125 4.234375 C-43.03472656 3.76386719 -42.56164062 3.29335938 -42.07421875 2.80859375 C-30.41112861 -8.17244434 -13.32858439 -9.38398776 0 0 Z " fill="#2582A0" transform="translate(406.5078125,367.765625)"/>
<path d="M0 0 C8.91 0 17.82 0 27 0 C31.79875887 13.15788723 36.488136 26.32436446 40.875 39.625 C44.32752972 50.09073417 47.91155642 60.49898407 51.625 70.875 C55.97633841 83.03564377 60.16707702 95.24165417 64.1796875 107.51855469 C64.73561323 109.20023003 65.30372621 110.87791658 65.8828125 112.55175781 C66.15867187 113.35194336 66.43453125 114.15212891 66.71875 114.9765625 C67.0890332 116.03351318 67.0890332 116.03351318 67.46679688 117.11181641 C68 119 68 119 68 122 C59.42 122 50.84 122 42 122 C38.387283 113.57032699 35.76173931 104.74550782 33 96 C13.2 95.505 13.2 95.505 -7 95 C-7.99 98.96 -8.98 102.92 -10 107 C-10.86379858 109.77388841 -11.7369369 112.50938994 -12.6875 115.25 C-13.450625 117.4775 -14.21375 119.705 -15 122 C-23.58 122 -32.16 122 -41 122 C-39.7574941 116.40872344 -38.66663825 111.65131094 -36.75 106.39453125 C-36.31163818 105.17934814 -35.87327637 103.96416504 -35.42163086 102.7121582 C-35.19023407 102.07766754 -34.95883728 101.44317688 -34.72042847 100.78945923 C-33.46847857 97.35392884 -32.23570207 93.91154893 -31.00390625 90.46875 C-30.75121475 89.76297318 -30.49852325 89.05719635 -30.23817444 88.33003235 C-27.69366843 81.19346863 -25.3068662 74.00896547 -22.9375 66.8125 C-19.32985642 55.87303221 -15.54097293 45.01280605 -11.63110352 34.17797852 C-7.55512774 22.84860197 -3.76559136 11.43624042 0 0 Z " fill="#2582A0" transform="translate(270,331)"/>
<path d="M0 0 C8.80337145 6.48747609 13.92447462 16.42873816 15.96484375 27.09765625 C17.68302275 44.73762728 16.17980662 60.32115115 4.62890625 74.45703125 C-1.93514296 81.5536354 -11.23352806 85.52829635 -20.8828125 86.04296875 C-33.22424668 86.29277325 -43.89331157 85.05541463 -53.65234375 76.74609375 C-64.65016134 65.70597686 -67.94054391 52.48292256 -67.93237305 37.31616211 C-67.75306423 25.28441117 -64.25643675 12.57548953 -55.68359375 3.70703125 C-55.02359375 3.70703125 -54.36359375 3.70703125 -53.68359375 3.70703125 C-53.68359375 3.04703125 -53.68359375 2.38703125 -53.68359375 1.70703125 C-37.95704267 -10.53989248 -16.47927613 -10.59934662 0 0 Z " fill="#2582A0" transform="translate(647.68359375,369.29296875)"/>
<path d="M0 0 C1.010625 0.391875 2.02125 0.78375 3.0625 1.1875 C13.5923172 7.68462125 19.99536042 16.35324392 23.39355469 28.18115234 C24.47954029 33.22897429 24.48673533 38.22951677 24.4375 43.375 C24.42992676 44.47972656 24.42235352 45.58445312 24.41455078 46.72265625 C24.14360546 60.09192881 20.41331974 69.57405082 11.625 79.75 C0.76831104 89.05573339 -10.81868449 91.20269132 -24.81396484 90.25878906 C-35.21703299 89.02724425 -44.50874326 83.40994169 -51.1875 75.5 C-59.58225006 63.59596917 -61.28494929 48.37759889 -59.5390625 34.27734375 C-57.30675488 21.36935321 -52.5459886 11.65496133 -42.1640625 3.5703125 C-29.99721224 -4.82233115 -13.48287141 -5.46464864 0 0 Z " fill="#2582A0" transform="translate(486,365)"/>
<path d="M0 0 C0.33 0 0.66 0 1 0 C1.09796875 0.70125 1.1959375 1.4025 1.296875 2.125 C2.28457439 8.39178235 3.57260705 13.6288842 7 19 C7.36351562 19.57105469 7.72703125 20.14210938 8.1015625 20.73046875 C17.87330708 33.82940244 36.09809514 39.52079319 51.1875 43.5 C65.98254794 47.43452098 78.48079575 54.2231852 86.75390625 67.60546875 C93.95718743 81.44751064 94.36479793 94.21963276 90 109 C87.90186924 114.6416405 84.61896163 120.05848607 80 124 C79.01 124 78.02 124 77 124 C76.84144531 123.41992188 76.68289063 122.83984375 76.51953125 122.2421875 C74.37791461 115.07191301 71.46062479 110.28771348 64.9375 106.3125 C58.78769672 103.12522654 52.15434461 101.70777723 45.36328125 100.55078125 C33.62005381 98.54134359 25.58501103 93.19633462 18 84 C12.31226632 75.59412833 8.33077319 66.26147776 9 56 C11.57746324 57.01376329 14.1290313 58.05729331 16.66064453 59.18139648 C23.95002325 62.387298 31.09768059 64.42136652 38.875 66.0625 C41.16196866 66.57062521 43.44843361 67.08102312 45.734375 67.59375 C46.81654297 67.83480469 47.89871094 68.07585937 49.01367188 68.32421875 C62.32692051 71.33689634 72.7938469 74.49401814 81 86 C85.34412068 93.70731089 84.26381949 102.40143893 84 111 C86.68589081 99.51399538 85.77070945 87.97470662 79.6796875 77.79296875 C78.23178223 75.7239675 76.6998558 73.86666408 75 72 C74.44828125 71.39414063 73.8965625 70.78828125 73.328125 70.1640625 C63.58785895 60.63192179 50.70224382 58.32702228 37.8371582 55.8215332 C25.33460252 53.35805792 8.15129232 49.65265456 0 39 C-2.53279266 32.21631587 -2.30296093 24.94898567 -2.25 17.8125 C-2.25773437 16.75869141 -2.26546875 15.70488281 -2.2734375 14.61914062 C-2.26019339 9.36453808 -2.13432572 4.90386744 0 0 Z " fill="#FCB932" transform="translate(359,96)"/>
<path d="M0 0 C0.66 0 1.32 0 2 0 C2 19.8 2 39.6 2 60 C-0.64 60 -3.28 60 -6 60 C-6.09796875 60.55945313 -6.1959375 61.11890625 -6.296875 61.6953125 C-7.28551284 66.99645676 -8.49967363 72.22317207 -9.875 77.4375 C-10.33519531 79.19900391 -10.33519531 79.19900391 -10.8046875 80.99609375 C-12.13564148 84.34087678 -12.96334711 85.19558289 -16 87 C-18.19140625 87.21020508 -18.19140625 87.21020508 -20.5625 87.01953125 C-31.48121672 86.24910679 -31.48121672 86.24910679 -40.875 90.92578125 C-43.98861064 94.34843628 -46.52306478 98.10390271 -49 102 C-50.60170693 104.40372104 -52.24830538 106.69794187 -54 109 C-54.66 109 -55.32 109 -56 109 C-56.22042969 109.52851563 -56.44085938 110.05703125 -56.66796875 110.6015625 C-58.4818588 113.86762845 -60.87596035 116.56634606 -63.3125 119.375 C-64.26713899 120.48679725 -65.22156717 121.59877554 -66.17578125 122.7109375 C-66.6445166 123.25202148 -67.11325195 123.79310547 -67.59619141 124.35058594 C-68.54834228 125.46932182 -69.48253397 126.60354615 -70.39990234 127.75097656 C-71.55961784 129.20051454 -72.77548585 130.60477046 -74 132 C-74.66 132 -75.32 132 -76 132 C-76.2498412 126.39932894 -76.42984819 120.80199224 -76.54931641 115.19702148 C-76.59917656 113.29670639 -76.66709722 111.39676631 -76.75439453 109.49780273 C-77.25378151 98.34384772 -77.14321143 90.30216407 -69.70132446 81.53718567 C-68.36083984 80.09448242 -68.36083984 80.09448242 -66 78 C-65.34 78 -64.68 78 -64 78 C-63.78472656 77.47535156 -63.56945312 76.95070313 -63.34765625 76.41015625 C-61.47138589 73.05462345 -58.96504351 70.30919302 -56.4375 67.4375 C-55.34276361 66.17793997 -54.24902202 64.91751466 -53.15625 63.65625 C-52.61742187 63.03492188 -52.07859375 62.41359375 -51.5234375 61.7734375 C-49.4521603 59.36225841 -47.44078991 56.90532091 -45.4375 54.4375 C-42.17221697 50.41641909 -38.85442156 46.44654838 -35.5 42.5 C-32.12716411 38.53096457 -28.78823355 34.53982979 -25.5 30.5 C-21.75935103 25.90434555 -17.94542169 21.37686578 -14.10791016 16.86230469 C-10.23993955 12.3038692 -6.448651 7.6876628 -2.6796875 3.046875 C-1 1 -1 1 0 0 Z " fill="#2582A0" transform="translate(387,225)"/>
<path d="M0 0 C0.33 0 0.66 0 1 0 C1 2.64 1 5.28 1 8 C11.23 8 21.46 8 32 8 C32 19.22 32 30.44 32 42 C18.9375 41.9375 18.9375 41.9375 14.85913086 41.84741211 C8.20314284 41.85453973 8.20314284 41.85453973 2.63720703 45.07470703 C0.72974344 47.51037461 0.72974344 47.51037461 -0.76342773 50.06860352 C-1.37553101 51.02464478 -1.37553101 51.02464478 -2 52 C-2.66 52 -3.32 52 -4 52 C-4.27779297 52.58426758 -4.55558594 53.16853516 -4.84179688 53.77050781 C-6.70159063 57.35053239 -9.12233042 60.49990385 -11.5 63.75 C-12.24830078 64.79607422 -12.24830078 64.79607422 -13.01171875 65.86328125 C-13.49253906 66.52199219 -13.97335937 67.18070312 -14.46875 67.859375 C-14.90638672 68.46233398 -15.34402344 69.06529297 -15.79492188 69.68652344 C-16.19259766 70.1199707 -16.59027344 70.55341797 -17 71 C-17.66 71 -18.32 71 -19 71 C-19.22558594 71.52207031 -19.45117188 72.04414063 -19.68359375 72.58203125 C-21.4761302 75.87455369 -23.75851537 78.74478695 -26.0625 81.6875 C-26.75182617 82.57791992 -26.75182617 82.57791992 -27.45507812 83.48632812 C-30.82099011 87.82099011 -30.82099011 87.82099011 -32 89 C-34.8843382 89.08865208 -37.74462158 89.11521296 -40.62890625 89.09765625 C-41.92525246 89.09553383 -41.92525246 89.09553383 -43.24778748 89.09336853 C-46.01939292 89.08775239 -48.7909188 89.07519719 -51.5625 89.0625 C-53.4368478 89.05748708 -55.31119685 89.05292381 -57.18554688 89.04882812 C-61.79039544 89.03777772 -66.39518421 89.0205023 -71 89 C-69.30269798 84.37823635 -66.81965553 81.19236997 -63.5625 77.5625 C-59.28077294 72.6826574 -55.12171238 67.74148693 -51.125 62.625 C-50.66947754 62.04290771 -50.21395508 61.46081543 -49.74462891 60.86108398 C-47.25072182 57.6562711 -44.82544714 54.40915007 -42.4375 51.125 C-41.2309375 49.578125 -41.2309375 49.578125 -40 48 C-39.34 48 -38.68 48 -38 48 C-37.75378906 47.44441406 -37.50757813 46.88882813 -37.25390625 46.31640625 C-35.75995594 43.55655412 -33.94941592 41.34683141 -31.9375 38.9375 C-30.7309375 37.4834375 -30.7309375 37.4834375 -29.5 36 C-28.675 35.01 -27.85 34.02 -27 33 C-25.4769558 31.14764895 -23.95606549 29.29352449 -22.4375 27.4375 C-21.69371094 26.52871094 -20.94992187 25.61992187 -20.18359375 24.68359375 C-17.4535173 21.32838351 -14.75611096 17.94780106 -12.05859375 14.56640625 C-1.89230769 1.89230769 -1.89230769 1.89230769 0 0 Z " fill="#2582A0" transform="translate(421,267)"/>
<path d="M0 0 C7.59 0 15.18 0 23 0 C23 40.26 23 80.52 23 122 C15.41 122 7.82 122 0 122 C0 81.74 0 41.48 0 0 Z " fill="#2582A0" transform="translate(516,331)"/>
<path d="M0 0 C7.59 0 15.18 0 23 0 C23 40.26 23 80.52 23 122 C15.41 122 7.82 122 0 122 C0 81.74 0 41.48 0 0 Z " fill="#2582A0" transform="translate(552,331)"/>
<path d="M0 0 C18.81 0 37.62 0 57 0 C54.77988634 6.66034098 54.77988634 6.66034098 52.43359375 9.50390625 C41.94536238 23.42904768 42.75867838 35.78572442 43 53 C34.09 53 25.18 53 16 53 C16.144375 48.66875 16.28875 44.3375 16.4375 39.875 C16.41689066 24.72112325 11.13967206 15.20887221 1.36108398 3.78637695 C0 2 0 2 0 0 Z " fill="#2582A0" transform="translate(409,220)"/>
<path d="M0 0 C6.99486636 6.06221751 9.33967242 13.27385473 10.03125 22.2890625 C10.31305028 31.37712142 9.38545907 39.80802334 3.4375 47 C-0.61640504 51.13853772 -3.3151736 52.28890267 -9.125 52.75 C-14.73689822 52.56047998 -18.49449098 50.41335323 -22.375 46.4375 C-29.03257966 38.10241996 -28.96336066 27.13453034 -27.94140625 16.99609375 C-26.75594385 9.9688682 -23.253894 3.77380019 -17.5625 -0.5625 C-11.38756861 -3.16247111 -6.04877697 -2.96508675 0 0 Z " fill="#000001" transform="translate(631.1875,383.5625)"/>
<path d="M0 0 C6.31061828 4.94616027 9.23156074 10.06576863 10.3125 17.8125 C10.86550031 27.97919793 11.43626472 38.71675872 5 47.25 C0.95073833 51.11092392 -2.48112777 52.94808051 -8.0625 53.3125 C-13.23283389 53.12068323 -16.8155802 51.15762799 -20.6875 47.8125 C-26.31274254 40.85496318 -27.05028427 34.13041115 -27.0625 25.5 C-27.08699219 24.60087891 -27.11148437 23.70175781 -27.13671875 22.77539062 C-27.1704695 14.99584192 -25.27189851 9.02553599 -20.375 2.9375 C-13.63905077 -2.38859939 -7.88541277 -3.48425215 0 0 Z " fill="#010001" transform="translate(476.6875,383.1875)"/>
<path d="M0 0 C3.40188148 2.93798855 4.76829343 5.34081162 6.75 9.375 C7.28560547 10.39207031 7.28560547 10.39207031 7.83203125 11.4296875 C10.59822431 20.30504735 10.61307173 33.9997148 6.625 42.4375 C3.62946151 47.135049 0.11443168 50.58685611 -5.25 52.375 C-12.08602913 53.0701894 -15.89390431 51.65243753 -21.25 47.375 C-26.4887129 42.1362871 -27.64151528 34.74111899 -27.70898438 27.64648438 C-27.70189453 26.75251953 -27.69480469 25.85855469 -27.6875 24.9375 C-27.70748047 24.04740234 -27.72746094 23.15730469 -27.74804688 22.24023438 C-27.74241229 14.52649176 -25.79051105 8.5334732 -20.9375 2.5 C-13.88934094 -3.07296298 -7.88949041 -3.9447452 0 0 Z " fill="#010001" transform="translate(390.25,383.625)"/>
<path d="M0 0 C8.91 0 17.82 0 27 0 C27.27781346 4.81028853 27.51539571 9.59232626 27.65917969 14.40429688 C27.71910384 16.03449146 27.80069064 17.66405247 27.90527344 19.29199219 C28.79009619 33.43180683 28.79009619 33.43180683 24.45117188 38.39941406 C21.55881976 41.12419818 18.61295995 43.29981717 15 45 C12.10839844 44.73779297 12.10839844 44.73779297 10 44 C10 43.34 10 42.68 10 42 C9.46375 41.773125 8.9275 41.54625 8.375 41.3125 C5.19594673 39.55565477 2.31749467 37.81616488 0 35 C-0.54070475 31.99899173 -0.71051888 29.83154563 -0.5859375 26.85546875 C-0.57744781 26.08568192 -0.56895813 25.31589508 -0.56021118 24.52278137 C-0.52675703 22.0762329 -0.45150592 19.63304309 -0.375 17.1875 C-0.34488948 15.52413632 -0.31751555 13.86072071 -0.29296875 12.19726562 C-0.23209982 8.12919208 -0.11472054 4.0683304 0 0 Z " fill="#2582A0" transform="translate(425,312)"/>
<path d="M0 0 C4.10905084 2.01005517 6.44411157 4.8234783 8.20703125 8.9140625 C10.24611326 16.53950527 9.77236788 24.53802316 6.14453125 31.57421875 C3.4969514 35.32293273 0.10997001 36.96855166 -4.1328125 38.3828125 C-9.60581306 38.80381254 -13.35256936 38.12702615 -18.1328125 35.3828125 C-23.53409393 29.74487698 -24.40698075 24.23390824 -24.28125 16.65234375 C-23.84631502 10.0024168 -21.65570417 6.01339207 -17.1328125 1.3828125 C-12.07294705 -1.77825483 -5.62606253 -1.62805472 0 0 Z " fill="#2582A0" transform="translate(440.1328125,478.6171875)"/>
<path d="M0 0 C4.5478125 -0.12375 4.5478125 -0.12375 9.1875 -0.25 C10.60712036 -0.30462402 10.60712036 -0.30462402 12.05541992 -0.36035156 C16.21574001 -0.41511005 18.4337676 -0.35090458 22.05078125 1.890625 C25.30496976 5.41219172 25.33757139 8.02939104 25.28515625 12.671875 C24.84578147 16.25909921 23.38285101 18.35238777 21 21 C16.01983947 22.85644377 10.19974532 22.05651897 5 22 C5 26.95 5 31.9 5 37 C3.35 37 1.7 37 0 37 C0 24.79 0 12.58 0 0 Z " fill="#2582A0" transform="translate(491,479)"/>
<path d="M0 0 C2.56142273 2.56142273 3.00319362 4.72251835 4.05859375 8.1875 C4.44466797 9.44433594 4.83074219 10.70117188 5.22851562 11.99609375 C5.63163771 13.33069072 6.03463171 14.66532639 6.4375 16 C6.836017 17.30356028 7.23509975 18.60694775 7.63476562 19.91015625 C9.78372487 26.93196495 11.88991588 33.96638626 14 41 C5.09 41 -3.82 41 -13 41 C-9.62518741 28.62568716 -9.62518741 28.62568716 -8.02734375 23.88671875 C-7.51397461 22.3562793 -7.51397461 22.3562793 -6.99023438 20.79492188 C-6.64283203 19.76947266 -6.29542969 18.74402344 -5.9375 17.6875 C-5.58623047 16.64271484 -5.23496094 15.59792969 -4.87304688 14.52148438 C-4.20550611 12.53652857 -3.53680498 10.55196245 -2.86669922 8.56787109 C-1.90360702 5.71440524 -0.94940335 2.85804843 0 0 Z " fill="#010101" transform="translate(283,364)"/>
<path d="M0 0 C3.60271385 1.76860498 5.4400966 2.98199381 7.375 6.5 C8 9 8 9 8 13 C6.02 13 4.04 13 2 13 C1.67 11.02 1.34 9.04 1 7 C-0.45823212 6.9729957 -1.91660675 6.95360213 -3.375 6.9375 C-4.59316406 6.92009766 -4.59316406 6.92009766 -5.8359375 6.90234375 C-8.04937142 6.85533666 -8.04937142 6.85533666 -10 8 C-10 9.65 -10 11.3 -10 13 C-8.95199219 13.32613281 -7.90398437 13.65226562 -6.82421875 13.98828125 C-5.44515825 14.42920535 -4.06626038 14.87063832 -2.6875 15.3125 C-1.99720703 15.52583984 -1.30691406 15.73917969 -0.59570312 15.95898438 C6.06480571 18.11480125 6.06480571 18.11480125 8 21 C9.29572476 25.30541455 9.27139957 29.08402645 8 33.375 C5.35128909 36.85143307 3.16464411 37.75060677 -1 39 C-7.1210243 39.64431835 -10.7617412 38.12161784 -15.8125 34.8125 C-17.79272852 31.79004594 -17.70795268 28.56297726 -18 25 C-16.02 25 -14.04 25 -12 25 C-11.71125 25.969375 -11.4225 26.93875 -11.125 27.9375 C-10.35785318 31.10664203 -10.35785318 31.10664203 -8 32 C-6.08596924 32.19668734 -6.08596924 32.19668734 -4 32.1875 C-3.29875 32.20167969 -2.5975 32.21585937 -1.875 32.23046875 C0.24524938 32.16512323 0.24524938 32.16512323 2 30 C2.16687448 27.41645782 2.16687448 27.41645782 2 25 C1.443125 24.82984375 0.88625 24.6596875 0.3125 24.484375 C-13.62857143 20.05714286 -13.62857143 20.05714286 -17 15 C-17.48256365 10.73735442 -17.26873267 8.50867256 -15.25 4.6875 C-10.99468929 -0.39523224 -6.35049076 -0.89149004 0 0 Z " fill="#2582A0" transform="translate(473,478)"/>
<path d="M0 0 C3.8026029 2.0050088 5.61790841 3.42686262 8 7 C8.125 10.1875 8.125 10.1875 8 13 C6.02 13 4.04 13 2 13 C1.67 11.02 1.34 9.04 1 7 C-2.63 7 -6.26 7 -10 7 C-10 9.31 -10 11.62 -10 14 C-9.19175781 14.18175781 -8.38351562 14.36351562 -7.55078125 14.55078125 C-6.48214844 14.80214844 -5.41351562 15.05351562 -4.3125 15.3125 C-3.25675781 15.55613281 -2.20101562 15.79976563 -1.11328125 16.05078125 C2.66797491 17.20366111 5.89863627 18.53151503 8.3125 21.75 C9.60761426 25.98855577 9.53313092 29.62013173 7.9375 33.75 C4.50316618 37.73825863 0.56362341 38.83540806 -4.5625 39.375 C-9.22958864 38.86586306 -12.42283957 37.52277559 -15.8125 34.25 C-17.4070573 31.22873354 -17.67555801 28.37419667 -18 25 C-16.02 25 -14.04 25 -12 25 C-11.34 27.31 -10.68 29.62 -10 32 C-6.04 32 -2.08 32 2 32 C2 29.69 2 27.38 2 25 C1.443125 24.82984375 0.88625 24.6596875 0.3125 24.484375 C-12.62376238 20.37623762 -12.62376238 20.37623762 -16 17 C-16.64190456 11.5346412 -17.03204304 7.35795137 -13.625 2.875 C-9.07940136 -0.37185617 -5.50604308 -0.68478519 0 0 Z " fill="#2582A0" transform="translate(646,478)"/>
<path d="M0 0 C1.4540625 0.0309375 1.4540625 0.0309375 2.9375 0.0625 C5.99791757 7.44477912 8.66781232 14.91760652 11.1875 22.5 C11.55101562 23.57443359 11.91453125 24.64886719 12.2890625 25.75585938 C12.63195312 26.78388672 12.97484375 27.81191406 13.328125 28.87109375 C13.63782227 29.79720459 13.94751953 30.72331543 14.26660156 31.67749023 C14.9375 34.0625 14.9375 34.0625 14.9375 37.0625 C12.9575 37.0625 10.9775 37.0625 8.9375 37.0625 C8.43134702 35.79410474 7.93280901 34.52266898 7.4375 33.25 C7.1590625 32.54230469 6.880625 31.83460938 6.59375 31.10546875 C5.9375 29.0625 5.9375 29.0625 5.9375 26.0625 C1.9775 26.3925 -1.9825 26.7225 -6.0625 27.0625 C-7.3825 30.3625 -8.7025 33.6625 -10.0625 37.0625 C-11.7125 37.0625 -13.3625 37.0625 -15.0625 37.0625 C-14.48463661 32.13731384 -13.43945061 27.75101336 -11.8125 23.0703125 C-11.59432617 22.4389035 -11.37615234 21.80749451 -11.15136719 21.1569519 C-10.69375226 19.83666492 -10.23310489 18.51742534 -9.76953125 17.19921875 C-9.05786738 15.17431878 -8.3563508 13.14611092 -7.65625 11.1171875 C-3.81823667 0.0779232 -3.81823667 0.0779232 0 0 Z " fill="#24829F" transform="translate(580.0625,478.9375)"/>
<path d="M0 0 C3.07192723 2.52982243 3.98755172 4.60246671 4.4609375 8.5546875 C4.5958438 19.15832259 4.5958438 19.15832259 0.125 23.75 C-3.55029267 26.09810365 -6.83594134 25.96932317 -11.01171875 25.28515625 C-13.90509581 24.45414439 -15.15994711 23.19065219 -16.875 20.75 C-19.33725676 15.70823616 -19.21100696 11.09402783 -17.875 5.75 C-13.9304644 -1.61313313 -7.63985191 -3.32167474 0 0 Z " fill="#98989C" transform="translate(279.875,544.25)"/>
<path d="M0 0 C2.97 0 5.94 0 9 0 C9 4.29 9 8.58 9 13 C12.63 13 16.26 13 20 13 C20 15.97 20 18.94 20 22 C16.37 22 12.74 22 9 22 C9 25.96 9 29.92 9 34 C6.03 34 3.06 34 0 34 C0 30.04 0 26.08 0 22 C-3.63 22 -7.26 22 -11 22 C-11 19.03 -11 16.06 -11 13 C-7.37 13 -3.74 13 0 13 C0 8.71 0 4.42 0 0 Z " fill="#010102" transform="translate(299,199)"/>
<path d="M0 0 C1.65 0 3.3 0 5 0 C5 4.62 5 9.24 5 14 C10.28 14 15.56 14 21 14 C21 9.38 21 4.76 21 0 C22.98 0 24.96 0 27 0 C27 12.21 27 24.42 27 37 C25.02 37 23.04 37 21 37 C21 31.39 21 25.78 21 20 C15.72 20 10.44 20 5 20 C5 25.61 5 31.22 5 37 C3.35 37 1.7 37 0 37 C0 24.79 0 12.58 0 0 Z " fill="#2582A0" transform="translate(382,479)"/>
<path d="M0 0 C2.69105198 2.17574416 4.45532928 3.91065856 6 7 C6.53358745 13.27991382 6.63492264 18.61492943 3 24 C2.608125 24.61875 2.21625 25.2375 1.8125 25.875 C-1.27783658 27.79313995 -4.53678747 27.60876783 -8 27 C-11.03059999 25.22116957 -12.55030256 23.77090989 -14.3125 20.75 C-16.00052172 13.99791311 -15.28959835 8.99176842 -12 3 C-8.8115342 -0.66083111 -4.5942364 -1.00271033 0 0 Z " fill="#010001" transform="translate(437,484)"/>
<path d="M0 0 C8.91 0 17.82 0 27 0 C27 1.98 27 3.96 27 6 C23.7 6 20.4 6 17 6 C17 16.23 17 26.46 17 37 C15.02 37 13.04 37 11 37 C11 26.77 11 16.54 11 6 C7.37 6 3.74 6 0 6 C0 4.02 0 2.04 0 0 Z " fill="#2582A0" transform="translate(537,479)"/>
<path d="M0 0 C1.98 0 3.96 0 6 0 C6 10.23 6 20.46 6 31 C11.28 31 16.56 31 22 31 C22 32.98 22 34.96 22 37 C14.74 37 7.48 37 0 37 C0 24.79 0 12.58 0 0 Z " fill="#2582A0" transform="translate(601,479)"/>
<path d="M0 0 C3.38186376 1.9427728 4.70264591 2.99357079 5.8125 6.75 C5.874375 7.4925 5.93625 8.235 6 9 C4.35 9 2.7 9 1 9 C0.67 7.68 0.34 6.36 0 5 C-4.19018386 4.60172592 -4.19018386 4.60172592 -7.8125 6.375 C-9.98788048 9.35183644 -10.05822275 10.89371334 -9.625 14.5 C-9.53476562 15.2940625 -9.44453125 16.088125 -9.3515625 16.90625 C-9.09653096 19.05104576 -9.09653096 19.05104576 -8 21 C-4.62599422 21.41725678 -4.62599422 21.41725678 -1 21 C1.00864359 18.6273026 1.00864359 18.6273026 2 16 C-0.31 16 -2.62 16 -5 16 C-5 14.68 -5 13.36 -5 12 C-1.37 12 2.26 12 6 12 C6 16.62 6 21.24 6 26 C4.68 25.67 3.36 25.34 2 25 C1.236875 25.33 0.47375 25.66 -0.3125 26 C-3.95343563 27.35476674 -6.26370629 26.95105658 -10 26 C-12.3181362 24.10888889 -13.66914015 22.66171969 -15 20 C-16.04817082 9.15891899 -16.04817082 9.15891899 -13.953125 4.84375 C-9.9583327 0.04999924 -6.04658008 -0.83401105 0 0 Z " fill="#98999C" transform="translate(480,543)"/>
<path d="M0 0 C1.65 0 3.3 0 5 0 C6.73046875 2.046875 6.73046875 2.046875 8.1875 4.75 C8.67605469 5.63171875 9.16460937 6.5134375 9.66796875 7.421875 C10.79622224 9.60559144 11.90076632 11.80153264 13 14 C13.33 9.38 13.66 4.76 14 0 C15.65 0 17.3 0 19 0 C19 8.25 19 16.5 19 25 C17.35 25 15.7 25 14 25 C12.297113 22.85629473 11.04859344 20.99243574 9.75 18.625 C9.399375 18.02171875 9.04875 17.4184375 8.6875 16.796875 C7.39589238 14.56140027 6.15468111 12.30936222 5 10 C4.67 14.95 4.34 19.9 4 25 C2.68 25 1.36 25 0 25 C0 16.75 0 8.5 0 0 Z " fill="#98989C" transform="translate(430,544)"/>
<path d="M0 0 C2.9375 1.125 2.9375 1.125 5 3 C5.3125 6.1875 5.3125 6.1875 5 9 C3.68 9 2.36 9 1 9 C0.67 8.01 0.34 7.02 0 6 C-2.31 5.67 -4.62 5.34 -7 5 C-6.92675073 6.95774205 -6.92675073 6.95774205 -6 9 C-3.49268673 10.29155097 -3.49268673 10.29155097 -0.5 11.125 C1.34910922 11.70165519 3.18733137 12.31738112 5 13 C6.52846661 16.05693322 6.23242445 18.62984547 6 22 C5.0625 24.375 5.0625 24.375 3 26 C-1.40292673 27.23010477 -4.80388939 27.54821736 -9 25.625 C-11 24 -11 24 -12 23 C-12.04080783 21.00041636 -12.04254356 18.99954746 -12 17 C-10.68 17 -9.36 17 -8 17 C-7.67 18.65 -7.34 20.3 -7 22 C-3.04 21.505 -3.04 21.505 1 21 C1.33 19.68 1.66 18.36 2 17 C1.24074219 16.82984375 0.48148438 16.6596875 -0.30078125 16.484375 C-1.29464844 16.24203125 -2.28851562 15.9996875 -3.3125 15.75 C-4.79169922 15.40195312 -4.79169922 15.40195312 -6.30078125 15.046875 C-9.39770099 13.84575417 -10.43456953 12.90033523 -12 10 C-11.93480059 6.28363374 -11.79890124 3.95253609 -9.375 1.0625 C-6.04422241 -0.42758471 -3.61410271 -0.38043186 0 0 Z " fill="#97989C" transform="translate(658,543)"/>
<path d="M0 0 C1.32 0 2.64 0 4 0 C4 2.97 4 5.94 4 9 C7.63 9 11.26 9 15 9 C15 6.03 15 3.06 15 0 C16.32 0 17.64 0 19 0 C19 8.25 19 16.5 19 25 C17.68 25 16.36 25 15 25 C15 21.37 15 17.74 15 14 C11.37 14 7.74 14 4 14 C4 17.63 4 21.26 4 25 C2.68 25 1.36 25 0 25 C0 16.75 0 8.5 0 0 Z " fill="#98999C" transform="translate(372,544)"/>
<path d="M0 0 C3 2.25 3 2.25 5 5 C5 6.32 5 7.64 5 9 C3.68 9 2.36 9 1 9 C0.67 7.68 0.34 6.36 0 5 C-4.06294736 4.67794615 -4.06294736 4.67794615 -7.8125 6 C-9.68748038 9.15786169 -10.10528454 12.39224988 -10 16 C-9.15163476 19.05649286 -9.15163476 19.05649286 -7 21 C-3.87364791 21.41746608 -3.87364791 21.41746608 -1 21 C-0.34 19.35 0.32 17.7 1 16 C2.65 16 4.3 16 6 16 C5.49704947 20.40081711 4.22790113 22.9419884 1 26 C-3.63890027 27.26515462 -6.77057888 27.3496784 -11 25 C-13.69180781 22.88500815 -14.34174411 21.3031399 -15 18 C-15.37750363 13.09245275 -15.59831008 8.3305168 -13 4 C-9.19210529 -0.14388542 -5.42349862 -1.27933334 0 0 Z " fill="#98989C" transform="translate(350,543)"/>
<path d="M0 0 C1.65 0 3.3 0 5 0 C5.06058594 1.27617188 5.12117188 2.55234375 5.18359375 3.8671875 C5.26799568 5.53647016 5.35264386 7.20574037 5.4375 8.875 C5.47681641 9.71675781 5.51613281 10.55851563 5.55664062 11.42578125 C5.59853516 12.23144531 5.64042969 13.03710938 5.68359375 13.8671875 C5.72025146 14.61081543 5.75690918 15.35444336 5.79467773 16.12060547 C5.89955865 18.08864312 5.89955865 18.08864312 7 20 C8.98 20 10.96 20 13 20 C14.11823815 17.76352369 14.19396061 16.35108471 14.31640625 13.8671875 C14.35830078 13.06152344 14.40019531 12.25585938 14.44335938 11.42578125 C14.48267578 10.58402344 14.52199219 9.74226562 14.5625 8.875 C14.60568359 8.02550781 14.64886719 7.17601562 14.69335938 6.30078125 C14.79954236 4.20071777 14.90028497 2.10038052 15 0 C16.32 0 17.64 0 19 0 C19.05819424 3.24992446 19.09366116 6.49971435 19.125 9.75 C19.14175781 10.67039062 19.15851563 11.59078125 19.17578125 12.5390625 C19.18222656 13.42851563 19.18867188 14.31796875 19.1953125 15.234375 C19.20578613 16.05131836 19.21625977 16.86826172 19.22705078 17.70996094 C18.97396447 20.2625949 18.35963961 21.83524046 17 24 C12.57945598 26.73033601 8.86994468 26.09966493 4 25 C1.34077432 22.42655579 0.1000324 19.75605271 -0.11352539 16.00708008 C-0.10828857 15.26868896 -0.10305176 14.53029785 -0.09765625 13.76953125 C-0.09282227 12.56586914 -0.09282227 12.56586914 -0.08789062 11.33789062 C-0.07951172 10.50451172 -0.07113281 9.67113281 -0.0625 8.8125 C-0.05798828 7.96751953 -0.05347656 7.12253906 -0.04882812 6.25195312 C-0.03705403 4.16793845 -0.0191189 2.08396023 0 0 Z " fill="#98999C" transform="translate(300,544)"/>
<path d="M0 0 C5.61 0 11.22 0 17 0 C17 1.32 17 2.64 17 4 C12.71 4 8.42 4 4 4 C4 5.98 4 7.96 4 10 C7.96 10 11.92 10 16 10 C16 11.32 16 12.64 16 14 C12.04 14 8.08 14 4 14 C4 16.31 4 18.62 4 21 C8.29 21 12.58 21 17 21 C17 22.32 17 23.64 17 25 C11.39 25 5.78 25 0 25 C0 16.75 0 8.5 0 0 Z " fill="#98989C" transform="translate(613,544)"/>
<path d="M0 0 C0.66 0 1.32 0 2 0 C2 0.99 2 1.98 2 3 C2.61488281 3.03738281 3.22976563 3.07476562 3.86328125 3.11328125 C4.67152344 3.17902344 5.47976563 3.24476563 6.3125 3.3125 C7.11300781 3.37050781 7.91351562 3.42851562 8.73828125 3.48828125 C11.36272334 4.08206694 12.30820672 4.95780294 14 7 C14 6.34 14 5.68 14 5 C14.99 4.67 15.98 4.34 17 4 C17.67220351 5.93558599 18.33758077 7.87354372 19 9.8125 C19.556875 11.43091797 19.556875 11.43091797 20.125 13.08203125 C21 16 21 16 21 19 C19.02 19 17.04 19 15 19 C14.49384702 17.73160474 13.99530901 16.46016898 13.5 15.1875 C13.2215625 14.47980469 12.943125 13.77210938 12.65625 13.04296875 C12 11 12 11 12 8 C6.06 8.495 6.06 8.495 0 9 C-1.32 12.3 -2.64 15.6 -4 19 C-5.65 19 -7.3 19 -9 19 C-8.42934122 12.58008874 -6.32655091 6.98410537 -4 1 C-2.68 1.33 -1.36 1.66 0 2 C0 1.34 0 0.68 0 0 Z " fill="#2582A0" transform="translate(574,497)"/>
<path d="M0 0 C1.98 0 3.96 0 6 0 C6 12.21 6 24.42 6 37 C4.02 37 2.04 37 0 37 C0 24.79 0 12.58 0 0 Z " fill="#2582A1" transform="translate(525,479)"/>
<path d="M0 0 C1.65 0 3.3 0 5 0 C5.67155349 2.26949102 6.3373963 4.5403961 7 6.8125 C7.37125 8.07707031 7.7425 9.34164062 8.125 10.64453125 C9 14 9 14 9 17 C9.66 17 10.32 17 11 17 C11.1546875 15.576875 11.1546875 15.576875 11.3125 14.125 C11.9910919 9.26508446 13.5085476 4.66196126 15 0 C16.65 0 18.3 0 20 0 C18.40554307 8.26218593 15.73981931 16.06288986 13 24 C11.35 24.33 9.7 24.66 8 25 C0 5.76595745 0 5.76595745 0 0 Z " fill="#98999C" transform="translate(577,544)"/>
<path d="M0 0 C1.97147993 2.96366264 2.22056306 5.06735117 1.8125 8.5625 C1.73644531 9.32691406 1.66039062 10.09132813 1.58203125 10.87890625 C0.88319972 13.4256547 0.10107972 14.42049979 -2 16 C-5.5 16.5 -5.5 16.5 -9 16 C-11.62321099 13.20754959 -11.96806735 11.29803809 -12.375 7.5 C-11.9769332 3.78470987 -11.30933519 1.90805172 -9 -1 C-5.17211056 -2.27596315 -3.63343017 -1.62344752 0 0 Z " fill="#010101" transform="translate(278,549)"/>
<path d="M0 0 C6.27 0 12.54 0 19 0 C19 1.32 19 2.64 19 4 C16.69 4 14.38 4 12 4 C12 10.93 12 17.86 12 25 C10.35 25 8.7 25 7 25 C7 18.07 7 11.14 7 4 C4.69 4 2.38 4 0 4 C0 2.68 0 1.36 0 0 Z " fill="#98999C" transform="translate(229,544)"/>
<path d="M0 0 C1.65 0 3.3 0 5 0 C5 6.93 5 13.86 5 21 C8.63 21 12.26 21 16 21 C16 22.32 16 23.64 16 25 C10.72 25 5.44 25 0 25 C0 16.75 0 8.5 0 0 Z " fill="#97989C" transform="translate(525,544)"/>
<path d="M0 0 C8.55472404 -0.28999065 8.55472404 -0.28999065 13 2 C14 3 14 3 14.25 5.9375 C14.1675 6.948125 14.085 7.95875 14 9 C9.43362969 12.04424687 5.43284541 11.12783166 0 11 C0 7.37 0 3.74 0 0 Z " fill="#010002" transform="translate(496,484)"/>
<path d="M0 0 C1.65 0 3.3 0 5 0 C5 8.25 5 16.5 5 25 C3.35 25 1.7 25 0 25 C0 16.75 0 8.5 0 0 Z " fill="#97989C" transform="translate(408,544)"/>
<path d="M0 0 C1.32 0 2.64 0 4 0 C4 8.25 4 16.5 4 25 C2.68 25 1.36 25 0 25 C0 16.75 0 8.5 0 0 Z " fill="#97989C" transform="translate(557,544)"/>
<path d="M0 0 C2 1 2 1 2.8515625 3.50390625 C3.10679687 4.51324219 3.36203125 5.52257812 3.625 6.5625 C3.88539063 7.57441406 4.14578125 8.58632813 4.4140625 9.62890625 C4.60742188 10.41136719 4.80078125 11.19382812 5 12 C2.36 12 -0.28 12 -3 12 C-2.40075776 7.80530429 -1.42500059 3.99000166 0 0 Z " fill="#030204" transform="translate(579,488)"/>
<path d="M0 0 C2.31 0 4.62 0 7 0 C6.34 1.32 5.68 2.64 5 4 C1.125 2.25 1.125 2.25 0 0 Z " fill="#030206" transform="translate(370,256)"/>
</svg>
