<?xml version="1.0" encoding="UTF-8"?>
<svg version="1.1" xmlns="http://www.w3.org/2000/svg" width="549" height="153">
<path d="M0 0 C181.17 0 362.34 0 549 0 C549 50.49 549 100.98 549 153 C367.83 153 186.66 153 0 153 C0 102.51 0 52.02 0 0 Z " fill="#181817" transform="translate(0,0)"/>
<path d="M0 0 C8.41417996 6.42636398 14.96900366 14.96014837 16.5625 25.6875 C17.38593275 36.88301837 15.55195404 47.58554697 8.27734375 56.48217773 C7.35966454 57.47354484 6.43328436 58.45690333 5.5 59.43359375 C4.98397217 59.98285019 4.46794434 60.53210663 3.9362793 61.0980072 C-3.6850878 69.14679442 -11.57885411 76.93442631 -19.4375 84.75 C-21.03539272 86.34286178 -22.63305039 87.93595939 -24.23046875 89.52929688 C-31.58523564 96.86360497 -31.58523564 96.86360497 -34.81152344 100.06057739 C-36.15776084 101.40759808 -37.47712501 102.78141606 -38.7890625 104.16186523 C-40.4375 105.6875 -40.4375 105.6875 -42.4375 105.6875 C-42.64375 106.244375 -42.85 106.80125 -43.0625 107.375 C-44.61052283 109.97849295 -46.51305521 111.5393603 -48.8671875 113.41015625 C-51.23221873 115.33395031 -53.30916362 117.50725297 -55.4375 119.6875 C-56.70700471 120.95966057 -57.97789009 122.23044453 -59.25 123.5 C-59.85457031 124.10457031 -60.45914063 124.70914063 -61.08203125 125.33203125 C-61.52933594 125.77933594 -61.97664063 126.22664062 -62.4375 126.6875 C-65.40945085 125.35450749 -67.45211054 123.90442854 -69.71484375 121.5703125 C-70.60913086 120.65958984 -70.60913086 120.65958984 -71.52148438 119.73046875 C-72.13314453 119.09753906 -72.74480469 118.46460938 -73.375 117.8125 C-77.24226781 113.83450448 -81.06299382 110.11680038 -85.4375 106.6875 C-86.77577304 105.02479713 -88.10939785 103.35833819 -89.4375 101.6875 C-90.18 101.130625 -90.9225 100.57375 -91.6875 100 C-92.265 99.566875 -92.8425 99.13375 -93.4375 98.6875 C-93.4375 98.0275 -93.4375 97.3675 -93.4375 96.6875 C-94.0975 96.6875 -94.7575 96.6875 -95.4375 96.6875 C-98.44886859 93.90777515 -101.07947151 91.03838259 -103.4375 87.6875 C-102.880625 87.460625 -102.32375 87.23375 -101.75 87 C-97.74113726 84.72469953 -94.99029587 81.37475973 -92.125 77.8125 C-90.20165952 75.45786724 -88.15305592 73.51330984 -85.83203125 71.55078125 C-81.14635606 67.49709258 -76.79214998 63.15370583 -72.4375 58.75 C-71.66277344 57.97076172 -70.88804688 57.19152344 -70.08984375 56.38867188 C-68.20339243 54.4905758 -66.31933755 52.59016851 -64.4375 50.6875 C-68.50099105 45.75897394 -72.70899633 41.60943945 -77.6796875 37.58203125 C-79.4375 35.6875 -79.4375 35.6875 -79.4375 31.6875 C-77.78558509 30.33593325 -76.11455908 29.007738 -74.4375 27.6875 C-72.54633413 25.34586329 -70.75875561 22.94953653 -68.98828125 20.515625 C-68.47652344 19.91234375 -67.96476562 19.3090625 -67.4375 18.6875 C-66.7775 18.6875 -66.1175 18.6875 -65.4375 18.6875 C-65.4375 17.6975 -65.4375 16.7075 -65.4375 15.6875 C-63.79223376 14.65266823 -62.12098365 13.65892194 -60.4375 12.6875 C-58.85608468 11.14386593 -57.31623236 9.55690408 -55.8125 7.9375 C-40.15922058 -7.97124837 -19.44042736 -12.9602849 0 0 Z " fill="#35A552" transform="translate(143.4375,18.3125)"/>
<path d="M0 0 C6.56849882 4.83570465 13.04110029 10.12106725 17.68359375 16.90625 C16.65567864 19.98999533 15.5204231 21.17959149 13.21875 23.3671875 C10.72036678 25.87192793 8.4984795 28.61610989 6.234375 31.33203125 C5.72261719 31.85152344 5.21085937 32.37101562 4.68359375 32.90625 C4.02359375 32.90625 3.36359375 32.90625 2.68359375 32.90625 C4.12782057 38.30684467 7.78042956 41.14126161 11.80859375 44.71875 C12.46730469 45.31623047 13.12601562 45.91371094 13.8046875 46.52929688 C15.42414507 47.99619685 17.05039217 49.454692 18.68359375 50.90625 C13.95463097 56.59922285 8.88034108 61.82808981 3.62109375 67.03125 C2.83154297 67.81628906 2.04199219 68.60132812 1.22851562 69.41015625 C-0.28724614 70.91702419 -1.8038828 72.42301275 -3.3215332 73.92797852 C-7.96236068 78.52460073 -7.96236068 78.52460073 -12.50390625 83.21875 C-14.31640625 84.90625 -14.31640625 84.90625 -16.31640625 84.90625 C-16.97640625 86.22625 -17.63640625 87.54625 -18.31640625 88.90625 C-23.94905843 88.69289196 -26.68135775 84.99324564 -30.31640625 81.15625 C-30.9196875 80.53492187 -31.52296875 79.91359375 -32.14453125 79.2734375 C-33.33088157 78.05098086 -34.51374215 76.82512667 -35.69287109 75.59570312 C-38.70369574 72.46263447 -41.76750816 69.41143054 -44.96484375 66.46875 C-54.49068366 57.51609816 -60.35981131 48.61697695 -61.5546875 35.23828125 C-61.87294632 24.43423172 -58.72939598 14.85242461 -51.31640625 6.90625 C-37.71237043 -7.38546236 -16.93462068 -10.69135063 0 0 Z " fill="#E84235" transform="translate(61.31640625,17.09375)"/>
<path d="M0 0 C8.41417996 6.42636398 14.96900366 14.96014837 16.5625 25.6875 C17.3245641 36.04864069 15.96695715 46.89625811 9.27709961 55.30273438 C7.78030599 56.98640771 6.24657547 58.62388811 4.6875 60.25 C4.17058594 60.80107422 3.65367187 61.35214844 3.12109375 61.91992188 C-0.00422816 65.2381163 -3.19954232 68.47941278 -6.4375 71.6875 C-9.8895712 70.5368096 -10.20325464 69.86692272 -12.125 66.9375 C-14.88672187 63.04187217 -17.65915057 61.0182072 -21.8984375 58.890625 C-22.40632813 58.49359375 -22.91421875 58.0965625 -23.4375 57.6875 C-23.4375 53.21616839 -23.12108611 52.84146799 -20.25 49.75 C-19.61320312 49.05648437 -18.97640625 48.36296875 -18.3203125 47.6484375 C-16.05971173 45.29403587 -13.74540511 42.99540511 -11.4375 40.6875 C-8.45488933 36.21358399 -8.8372637 31.93206466 -9.4375 26.6875 C-11.22700635 22.83317864 -12.70084285 21.18976624 -16.1875 18.8125 C-22.08769956 16.77012323 -27.7357864 16.97239828 -33.4375 19.6875 C-33.81841797 20.53248047 -33.81841797 20.53248047 -34.20703125 21.39453125 C-36.05087707 24.8305233 -38.8585339 27.05445133 -41.75 29.625 C-47.83507661 35.10363636 -53.51368243 40.6540798 -58.69140625 47.015625 C-60.66550613 48.90581459 -61.70272609 49.58004326 -64.4375 49.6875 C-66.078125 48.5 -66.078125 48.5 -67.6875 46.6875 C-70.87111208 43.2276526 -74.25581892 40.28735649 -77.93359375 37.36328125 C-79.4375 35.6875 -79.4375 35.6875 -79.4375 31.6875 C-77.78558509 30.33593325 -76.11455908 29.007738 -74.4375 27.6875 C-72.54633413 25.34586329 -70.75875561 22.94953653 -68.98828125 20.515625 C-68.47652344 19.91234375 -67.96476562 19.3090625 -67.4375 18.6875 C-66.7775 18.6875 -66.1175 18.6875 -65.4375 18.6875 C-65.4375 17.6975 -65.4375 16.7075 -65.4375 15.6875 C-63.79223376 14.65266823 -62.12098365 13.65892194 -60.4375 12.6875 C-58.85608468 11.14386593 -57.31623236 9.55690408 -55.8125 7.9375 C-40.15922058 -7.97124837 -19.44042736 -12.9602849 0 0 Z " fill="#4384F1" transform="translate(143.4375,18.3125)"/>
<path d="M0 0 C4.33828607 2.23911539 7.01341182 4.79591225 9.06640625 9.3125 C9.89444795 14.0143368 10.0935295 18.2923772 7.890625 22.625 C6.39386077 24.66709694 4.82044173 26.4883031 3.06640625 28.3125 C2.35291016 29.10527344 2.35291016 29.10527344 1.625 29.9140625 C0.31640625 31.3125 0.31640625 31.3125 -1.93359375 33.3125 C-2.59359375 33.3125 -3.25359375 33.3125 -3.93359375 33.3125 C-4.20171875 33.910625 -4.46984375 34.50875 -4.74609375 35.125 C-5.93276781 37.31097854 -7.02958488 38.72582594 -8.93359375 40.3125 C-9.59359375 40.3125 -10.25359375 40.3125 -10.93359375 40.3125 C-11.18109375 40.89 -11.42859375 41.4675 -11.68359375 42.0625 C-13.11659363 44.64189979 -14.71784051 46.37371592 -16.93359375 48.3125 C-17.59359375 48.3125 -18.25359375 48.3125 -18.93359375 48.3125 C-19.16046875 48.869375 -19.38734375 49.42625 -19.62109375 50 C-22.39336229 54.88447315 -27.01207917 58.2615189 -31.24609375 61.84765625 C-33.59727528 63.88861244 -35.75988169 66.08444514 -37.93359375 68.3125 C-39.20309567 69.58466335 -40.4739864 70.85544196 -41.74609375 72.125 C-42.65294922 73.03185547 -42.65294922 73.03185547 -43.578125 73.95703125 C-44.02542969 74.40433594 -44.47273438 74.85164063 -44.93359375 75.3125 C-51.75995404 72.12983965 -56.53797184 66.81225144 -61.35546875 61.1484375 C-63.11804906 59.0979109 -64.98330447 57.18477771 -66.93359375 55.3125 C-65.39707372 51.67370325 -63.20938616 49.33035354 -60.43359375 46.546875 C-59.54671875 45.65742187 -58.65984375 44.76796875 -57.74609375 43.8515625 C-56.81796875 42.93117187 -55.88984375 42.01078125 -54.93359375 41.0625 C-54.00546875 40.12664062 -53.07734375 39.19078125 -52.12109375 38.2265625 C-51.23421875 37.34226563 -50.34734375 36.45796875 -49.43359375 35.546875 C-48.61890625 34.73444336 -47.80421875 33.92201172 -46.96484375 33.08496094 C-44.93359375 31.3125 -44.93359375 31.3125 -42.93359375 31.3125 C-42.546875 30.43851563 -42.546875 30.43851563 -42.15234375 29.546875 C-40.83525358 27.1322097 -39.38270991 25.49509823 -37.43359375 23.5625 C-36.5209375 22.64210938 -36.5209375 22.64210938 -35.58984375 21.703125 C-33.93359375 20.3125 -33.93359375 20.3125 -31.93359375 20.3125 C-31.73636719 19.77753906 -31.53914063 19.24257813 -31.3359375 18.69140625 C-29.30241428 15.24178051 -26.46810861 12.89720449 -23.49609375 10.25 C-22.33031154 9.19707679 -21.1649338 8.14370554 -20 7.08984375 C-19.48381104 6.62827881 -18.96762207 6.16671387 -18.43579102 5.69116211 C-17.38216118 4.7241789 -16.3544534 3.72854611 -15.34741211 2.71313477 C-11.15304628 -1.44211938 -5.44675974 -1.93662568 0 0 Z " fill="#161818" transform="translate(125.93359375,35.6875)"/>
<path d="M0 0 C2.37380384 0.92468434 3.75171722 2.14785095 5.59077454 3.90763855 C6.25464172 4.53605652 6.91850891 5.16447449 7.60249329 5.81193542 C8.62536438 6.80096863 8.62536438 6.80096863 9.66889954 7.8099823 C10.36628235 8.47320496 11.06366516 9.13642761 11.78218079 9.81974792 C13.50074703 11.45591715 15.21257603 13.09856485 16.91889954 14.7474823 C12.18993676 20.44045515 7.11564686 25.66932211 1.85639954 30.8724823 C1.06684875 31.65752136 0.27729797 32.44256042 -0.53617859 33.25138855 C-2.05194035 34.75825649 -3.56857701 36.26424505 -5.08622742 37.76921082 C-9.7270549 42.36583303 -9.7270549 42.36583303 -14.26860046 47.0599823 C-16.08110046 48.7474823 -16.08110046 48.7474823 -18.08110046 48.7474823 C-18.74110046 50.0674823 -19.40110046 51.3874823 -20.08110046 52.7474823 C-25.57685574 52.46750986 -28.31475807 49.14480126 -31.95610046 45.4349823 C-32.56195984 44.85297058 -33.16781921 44.27095886 -33.79203796 43.67131042 C-34.35922546 43.10218933 -34.92641296 42.53306824 -35.51078796 41.94670105 C-36.02882996 41.42938416 -36.54687195 40.91206726 -37.08061218 40.3790741 C-38.08110046 38.7474823 -38.08110046 38.7474823 -38.054245 36.86003113 C-36.64740173 33.80598829 -34.53140574 32.04705409 -32.08110046 29.7474823 C-30.98961582 28.64037702 -29.90394183 27.52752361 -28.82304382 26.41007996 C-25.59594547 23.09430909 -22.35391217 19.79359305 -19.10624695 16.49797058 C-17.70822644 15.0746088 -16.31469809 13.6468216 -14.92558289 12.21476746 C-12.91480202 10.14359922 -10.88852474 8.08877694 -8.85844421 6.0365448 C-8.23856125 5.39085541 -7.61867828 4.74516602 -6.98001099 4.07991028 C-6.39582901 3.49535065 -5.81164703 2.91079102 -5.20976257 2.30851746 C-4.70077927 1.78843109 -4.19179596 1.26834473 -3.66738892 0.73249817 C-2.08110046 -0.2525177 -2.08110046 -0.2525177 0 0 Z " fill="#F8BB07" transform="translate(63.08110046386719,53.25251770019531)"/>
<path d="M0 0 C2.54878922 1.17244304 4.06297378 2.06297378 6 4 C6.33 3.01 6.66 2.02 7 1 C8.98 1 10.96 1 13 1 C13.07438973 6.30188966 13.12871511 11.60347268 13.16479492 16.90576172 C13.1798424 18.70789892 13.2002853 20.50999973 13.22631836 22.31201172 C13.26288021 24.90862021 13.27976681 27.50474275 13.29296875 30.1015625 C13.30845261 30.9017984 13.32393646 31.7020343 13.33988953 32.52651978 C13.34155405 38.11184039 12.4256036 42.40157985 8.46484375 46.64453125 C2.23631242 51.4075258 -2.2061468 51.73449925 -10 51 C-14.50451041 48.82818248 -17.0908343 46.02807558 -20 42 C-18.75 40.5 -18.75 40.5 -17 39 C-15.68 39 -14.36 39 -13 39 C-12.236875 39.825 -11.47375 40.65 -10.6875 41.5 C-8.17415836 44.31482956 -8.17415836 44.31482956 -4.5 44.5 C-0.81649538 43.97378505 1.10946187 43.3124305 4 41 C6.09543806 38.00651705 6.1999733 35.59951941 6 32 C5.21625 32.66 4.4325 33.32 3.625 34 C-0.67632601 36.83704482 -5.0220417 36.89934587 -10 36 C-14.53530303 34.05506929 -18.09257789 30.64908901 -20.33984375 26.22265625 C-22.18083803 20.02427906 -22.08979905 13.3472595 -19.375 7.5 C-18.199375 6.2625 -18.199375 6.2625 -17 5 C-16.154375 4.05125 -15.30875 3.1025 -14.4375 2.125 C-10.2146779 -1.21447666 -5.09496903 -0.73671546 0 0 Z " fill="#F4F4F4" transform="translate(358,61)"/>
<path d="M0 0 C5.03359633 2.3843351 8.49996787 5.99993573 11 11 C11.68644597 18.31458822 11.70188893 25.03277093 7 31 C0.95563914 35.81081783 -4.44932966 36.84812522 -12 36 C-17.66869078 33.16565461 -21.53661928 28.82825396 -24 23 C-24.81471159 17.47711301 -24.73130646 12.45771333 -21.875 7.5625 C-15.97334435 -0.37702016 -9.50222695 -1.19837002 0 0 Z " fill="#F1F1F1" transform="translate(322,61)"/>
<path d="M0 0 C4.21371167 2.27668953 7.90358804 5.47080695 9.37890625 10.1328125 C10.62819637 16.61497822 10.56231998 22.69221197 6.79296875 28.28125 C3.07706821 32.58387168 0.19899312 34.90409228 -5.5 35.53515625 C-10.42358134 35.76606551 -14.51062161 35.5381558 -18.66796875 32.73046875 C-23.18280566 28.47918831 -25.48431225 23.38898778 -25.76953125 17.21875 C-25.41244925 10.84086873 -23.24759575 6.1760599 -18.58203125 1.84375 C-13.13850484 -1.73751738 -6.22347977 -2.02676155 0 0 Z " fill="#F1F1F1" transform="translate(284.20703125,61.71875)"/>
<path d="M0 0 C0.99 0.66 1.98 1.32 3 2 C2.67 3.32 2.34 4.64 2 6 C-0.43848574 6.87324152 -1.61307062 7.14473486 -4.078125 6.22265625 C-4.79484375 5.83980469 -5.5115625 5.45695312 -6.25 5.0625 C-11.47253368 2.60936225 -15.46722584 1.79226916 -21.13671875 3.73046875 C-26.97163531 6.37289861 -30.45445419 10.09994256 -33 16 C-34.03691755 22.98110769 -32.76413425 29.04316619 -29 35 C-24.91627012 38.98163664 -20.99228648 41.28356232 -15.25 41.375 C-10.13011871 41.23907395 -5.99460501 40.33037508 -2 37 C0.38226527 33.56815699 1.68680653 29.93958042 3 26 C-2.94 26 -8.88 26 -15 26 C-15 24.02 -15 22.04 -15 20 C-6.75 20 1.5 20 10 20 C10 33.01204819 10 33.01204819 5 40 C-0.78104848 45.74543627 -6.6650026 48.03531263 -14.75 48.4375 C-22.1307456 48.28201961 -27.50837443 46.03046747 -33.0703125 41.203125 C-38.49476657 35.52900986 -40.99740255 29.37422969 -41.4375 21.5625 C-41.13798192 14.41150574 -38.52294504 8.20706637 -33.5625 3.0625 C-23.81004023 -5.79390043 -11.39689097 -6.63003848 0 0 Z " fill="#F2F2F2" transform="translate(245,49)"/>
<path d="M0 0 C3.42852802 2.26136954 5.71380306 4.85317641 8.32421875 7.99609375 C10.07828053 10.10691385 11.95825985 12.03742946 13.9375 13.9375 C12.45096494 17.40379835 10.48027649 19.62772036 7.8046875 22.265625 C6.99902344 23.06484375 6.19335938 23.8640625 5.36328125 24.6875 C4.52152344 25.5125 3.67976563 26.3375 2.8125 27.1875 C1.96300781 28.02796875 1.11351563 28.8684375 0.23828125 29.734375 C-1.85754923 31.80665683 -3.95790713 33.87412393 -6.0625 35.9375 C-9.61548576 34.27228579 -11.88075432 32.32782677 -14.625 29.5 C-15.38941406 28.71753906 -16.15382813 27.93507813 -16.94140625 27.12890625 C-17.64136719 26.40574219 -18.34132813 25.68257812 -19.0625 24.9375 C-19.62839844 24.41027344 -20.19429687 23.88304688 -20.77734375 23.33984375 C-24.07315072 19.74350727 -23.45203389 14.46211794 -23.40234375 9.890625 C-22.87207839 5.28280191 -21.62409985 3.89287009 -18.0625 0.9375 C-11.54893972 -2.87231828 -6.83050229 -2.3697661 0 0 Z " fill="#1A1715" transform="translate(48.0625,37.0625)"/>
<path d="M0 0 C4.56545245 2.00239142 6.81417987 4.6867019 9.3359375 8.828125 C10 11 10 11 10 19 C1.42 19 -7.16 19 -16 19 C-13.97384121 26.77277038 -13.97384121 26.77277038 -10 29 C-5.94363802 29.46153765 -5.94363802 29.46153765 -2 29 C1.00333267 26.66663334 1.00333267 26.66663334 3 24 C4.98 24.66 6.96 25.32 9 26 C8.45393377 29.82246363 6.97420582 31.58848176 4 34 C-1.99028636 36.72285744 -7.49449836 36.7219242 -13.6875 34.9375 C-18.59932019 32.06454857 -21.21132943 28.36601172 -23 23 C-23.48514482 17.48843667 -23.76737316 12.62328938 -21.375 7.5625 C-20.59125 6.716875 -19.8075 5.87125 -19 5 C-18.195625 4.05125 -17.39125 3.1025 -16.5625 2.125 C-11.88638893 -1.57044327 -5.58551169 -0.75422196 0 0 Z " fill="#F3F3F3" transform="translate(414,61)"/>
<path d="M0 0 C9.57 0 19.14 0 29 0 C29 1.98 29 3.96 29 6 C21.41 6 13.82 6 6 6 C6 11.61 6 17.22 6 23 C12.93 23 19.86 23 27 23 C27 24.98 27 26.96 27 29 C20.4 29 13.8 29 7 29 C7 35.93 7 42.86 7 50 C4.69 50 2.38 50 0 50 C0 33.5 0 17 0 0 Z " fill="#F3F3F3" transform="translate(446,46)"/>
<path d="M0 0 C11.49998782 -0.03144684 22.99997498 -0.05126468 34.5 -0.0625 C35.36982136 -0.06335602 36.23964272 -0.06421204 37.1358223 -0.06509399 C66.07302364 -0.09016713 95.00296904 0.11060464 123.9375 0.5 C125.27099991 0.51793673 125.27099991 0.51793673 126.63143921 0.53623581 C137.42108948 0.68214691 148.21060174 0.8365173 159 1 C159 1.99 159 2.98 159 4 C133.26 4 107.52 4 81 4 C81 3.34 81 2.68 81 2 C80.34 2 79.68 2 79 2 C79 2.66 79 3.32 79 4 C52.93 4 26.86 4 0 4 C0 2.68 0 1.36 0 0 Z " fill="#2D535B" transform="translate(200,122)"/>
<path d="M0 0 C2.31 0 4.62 0 7 0 C7 3.63 7 7.26 7 11 C9.64 11 12.28 11 15 11 C15 12.98 15 14.96 15 17 C12.36 17 9.72 17 7 17 C7.33 23.6 7.66 30.2 8 37 C10.31 37.99 12.62 38.98 15 40 C15.9375 42.6875 15.9375 42.6875 16 45 C12.29036293 45.28781667 8.70076611 45.44259883 5 45 C2.12732968 42.40091733 0.09436553 39.79111868 -0.11352539 35.84521484 C-0.10828857 34.97590332 -0.10305176 34.1065918 -0.09765625 33.2109375 C-0.09282227 31.79941406 -0.09282227 31.79941406 -0.08789062 30.359375 C-0.07951172 29.37453125 -0.07113281 28.3896875 -0.0625 27.375 C-0.05798828 26.38242188 -0.05347656 25.38984375 -0.04882812 24.3671875 C-0.03702145 21.9113984 -0.020554 19.45572896 0 17 C-1.98 17 -3.96 17 -6 17 C-6 14.69 -6 12.38 -6 10 C-4.02 10 -2.04 10 0 10 C0 6.7 0 3.4 0 0 Z " fill="#EAEAEA" transform="translate(500,51)"/>
<path d="M0 0 C3.44186104 0.0383037 4.63382591 0.2432899 7.6875 2.0625 C10.71706236 5.36747712 11.61642155 7.13255699 12.125 11.625 C11.64989802 16.29683609 10.39729896 18.45500723 7.75 22.3125 C4.0612362 24.77167586 1.0315571 25.12841937 -3.25 24.3125 C-6.2720794 22.56799494 -8.66651082 20.47947836 -10.25 17.3125 C-10.87165748 11.79751005 -11.31404786 7.67666392 -7.8125 3.1875 C-6.966875 2.56875 -6.12125 1.95 -5.25 1.3125 C-3.69014791 -0.24735209 -2.16093902 0.06797656 0 0 Z " fill="#1E1E1E" transform="translate(315.25,66.6875)"/>
<path d="M0 0 C2.87029869 1.79393668 4.49131638 2.98263276 6 6 C6.41251687 10.92640344 6.6526414 15.47717008 4.6875 20.0625 C1.97471519 23.17717886 0.31671966 23.96365512 -3.8125 24.4375 C-8.64484674 24.33942654 -10.69263085 22.38803669 -14 19 C-15.96752105 15.0649579 -15.46422595 10.2894478 -15 6 C-11.22755583 -0.28740695 -6.92794348 -0.897402 0 0 Z " fill="#1C1C1C" transform="translate(281,67)"/>
<path d="M0 0 C3.43952148 2.09362177 5.78028175 4.11907831 7 8 C7.48290996 13.21542759 6.89584879 16.60629839 4 21 C1.0847525 23.42937292 -0.71943286 23.96492911 -4.5 24.4375 C-8.63857387 23.92017827 -10.15453294 23.00806518 -13 20 C-15.25059535 16.03466534 -15.47404865 12.50346218 -15 8 C-11.37014795 1.36613246 -7.63600649 -1.22295416 0 0 Z " fill="#1E1E1E" transform="translate(358,67)"/>
<path d="M0 0 C2.31 0 4.62 0 7 0 C7 16.5 7 33 7 50 C4.69 50 2.38 50 0 50 C0 33.5 0 17 0 0 Z " fill="#E8E8E8" transform="translate(378,46)"/>
<path d="M0 0 C2.38061792 1.02059246 3.82853109 2.23924231 5.69921875 4.02929688 C6.69501953 4.97192383 6.69501953 4.97192383 7.7109375 5.93359375 C8.39285156 6.59294922 9.07476562 7.25230469 9.77734375 7.93164062 C10.47472656 8.59486328 11.17210938 9.25808594 11.890625 9.94140625 C13.60919124 11.57757548 15.32102024 13.22022317 17.02734375 14.86914062 C12.64291849 20.12088988 8.01892282 25.00136536 3.15234375 29.80664062 C2.46398437 30.49048828 1.775625 31.17433594 1.06640625 31.87890625 C-0.61099136 33.54465527 -2.29069416 35.20800282 -3.97265625 36.86914062 C-4.63265625 35.54914063 -5.29265625 34.22914062 -5.97265625 32.86914062 C-3.92479026 29.79734164 -2.24055038 28.50308769 1.02734375 26.86914062 C1.68734375 27.19914062 2.34734375 27.52914062 3.02734375 27.86914062 C2.69734375 26.87914063 2.36734375 25.88914062 2.02734375 24.86914062 C2.68734375 24.53914063 3.34734375 24.20914063 4.02734375 23.86914062 C4.68734375 24.19914062 5.34734375 24.52914062 6.02734375 24.86914062 C5.69734375 23.87914063 5.36734375 22.88914062 5.02734375 21.86914062 C4.03734375 21.53914063 3.04734375 21.20914063 2.02734375 20.86914062 C2.02734375 20.20914063 2.02734375 19.54914063 2.02734375 18.86914062 C3.01734375 18.20914063 4.00734375 17.54914063 5.02734375 16.86914062 C5.02734375 16.20914063 5.02734375 15.54914063 5.02734375 14.86914062 C3.70734375 14.20914063 2.38734375 13.54914063 1.02734375 12.86914062 C1.02734375 12.20914063 1.02734375 11.54914063 1.02734375 10.86914062 C0.36734375 10.53914063 -0.29265625 10.20914063 -0.97265625 9.86914062 C-0.31265625 9.86914062 0.34734375 9.86914062 1.02734375 9.86914062 C0.74890625 8.66257812 0.74890625 8.66257812 0.46484375 7.43164062 C0.32046875 6.58601563 0.17609375 5.74039063 0.02734375 4.86914062 C0.35734375 4.53914063 0.68734375 4.20914063 1.02734375 3.86914062 C-2.11706897 4.6688262 -2.11706897 4.6688262 -4.28515625 7.18164062 C-7.05236223 9.94884661 -9.67721024 11.79990708 -12.97265625 13.86914062 C-13.63265625 13.53914063 -14.29265625 13.20914063 -14.97265625 12.86914062 C-12.90398062 10.66594129 -10.81983831 8.48241088 -8.72265625 6.30664062 C-7.84287109 5.36401367 -7.84287109 5.36401367 -6.9453125 4.40234375 C-6.37167969 3.81259766 -5.79804687 3.22285156 -5.20703125 2.61523438 C-4.68334961 2.06536865 -4.15966797 1.51550293 -3.62011719 0.94897461 C-1.97265625 -0.13085938 -1.97265625 -0.13085938 0 0 Z " fill="#F5BA0E" transform="translate(62.97265625,53.130859375)"/>
<path d="M0 0 C1.98 0 3.96 0 6 0 C6 11.22 6 22.44 6 34 C4.02 34 2.04 34 0 34 C0 22.78 0 11.56 0 0 Z " fill="#FCFCFC" transform="translate(482,62)"/>
<path d="M0 0 C8.58 0 17.16 0 26 0 C26 0.33 26 0.66 26 1 C24.35 1 22.7 1 21 1 C21 2.32 21 3.64 21 5 C20.34 5 19.68 5 19 5 C18.731875 5.61875 18.46375 6.2375 18.1875 6.875 C17 9 17 9 14 11 C9.4556371 11.43977705 7.09765259 11.58385776 3.0625 9.4375 C1 7 1 7 0 0 Z " fill="#232323" transform="translate(398,80)"/>
<path d="M0 0 C4.57071175 0.34495938 7.58325171 0.85659158 11 4 C10.34 4.99 9.68 5.98 9 7 C0.59674754 8.62892761 -8.10438771 8.03034583 -16.62890625 7.87890625 C-18.23029347 7.85456302 -19.8316884 7.83072168 -21.43309021 7.80735779 C-25.62029891 7.74493453 -29.80736891 7.67575277 -33.9944458 7.60510254 C-38.27813473 7.53403861 -42.56192095 7.4694505 -46.84570312 7.40429688 C-55.23057658 7.27582394 -63.6153145 7.14020189 -72 7 C-71.67 6.34 -71.34 5.68 -71 5 C-44.93 5.33 -18.86 5.66 8 6 C7.505 5.01 7.505 5.01 7 4 C-19.4 4 -45.8 4 -73 4 C-72.67 3.01 -72.34 2.02 -72 1 C-70.66909081 1.00333092 -70.66909081 1.00333092 -69.31129456 1.00672913 C-60.96755343 1.02672961 -52.62382031 1.04197289 -44.28006077 1.05181217 C-39.99000085 1.05704061 -35.69996067 1.06413753 -31.40991211 1.07543945 C-27.273206 1.08626975 -23.13651892 1.09227714 -18.99979973 1.09487724 C-17.41807696 1.09673124 -15.83635529 1.10035136 -14.25464058 1.10573006 C-12.04677162 1.1129424 -9.83898227 1.11399086 -7.63110352 1.11352539 C-5.74247337 1.11685631 -5.74247337 1.11685631 -3.81568909 1.12025452 C-1.09664705 1.32207726 -1.09664705 1.32207726 0 0 Z " fill="#1F1503" transform="translate(432,120)"/>
<path d="M0 0 C-0.34743202 8.12990937 -0.34743202 8.12990937 -2.875 11.5 C-6.81202364 14.27907551 -10.29083092 14.40596285 -15 14 C-17.9375 12.125 -17.9375 12.125 -20 10 C-20 9.34 -20 8.68 -20 8 C-20.66 8 -21.32 8 -22 8 C-21.625 6.0625 -21.625 6.0625 -21 4 C-20.34 3.67 -19.68 3.34 -19 3 C-18.34 3.33 -17.68 3.66 -17 4 C-12.12119283 4.53526482 -7.60692308 4.87091662 -3.4375 2 C-1 0 -1 0 0 0 Z " fill="#222222" transform="translate(365,92)"/>
<path d="M0 0 C0 0.33 0 0.66 0 1 C-0.90878906 1.22042969 -0.90878906 1.22042969 -1.8359375 1.4453125 C-13.15388453 4.47503986 -22.06146668 9.90328237 -28.24609375 20.04296875 C-30.45344188 24.22318481 -31.85563176 28.42252702 -33 33 C-33.33 33 -33.66 33 -34 33 C-34 27.06 -34 21.12 -34 15 C-33.67 15.66 -33.34 16.32 -33 17 C-29.92051768 15.26634471 -29.92051768 15.26634471 -28.625 12.625 C-26.77260235 9.63266533 -24.90705717 7.96226359 -22 6 C-21.01 6 -20.02 6 -19 6 C-15.83927895 4.74055347 -15.83927895 4.74055347 -14 2 C-9.17574056 0.52819204 -5.07522852 -0.25376143 0 0 Z " fill="#271412" transform="translate(34,11)"/>
<path d="M0 0 C3.30733031 0.58849294 5.0271491 1.87275782 7.1953125 4.390625 C7.1953125 5.710625 7.1953125 7.030625 7.1953125 8.390625 C0.9253125 8.390625 -5.3446875 8.390625 -11.8046875 8.390625 C-10.04097194 1.33576274 -6.97000581 -0.32204647 0 0 Z " fill="#2D2D2D" transform="translate(409.8046875,66.609375)"/>
<path d="M0 0 C2 2 2 2 2.08984375 4.35546875 C2.03957031 5.29003906 1.98929687 6.22460938 1.9375 7.1875 C1.82257173 12.32546982 2.59658348 15.49359403 5 20 C4.01 20 3.02 20 2 20 C2.33 20.99 2.66 21.98 3 23 C1.02 23.99 1.02 23.99 -1 25 C-2.5 23.625 -2.5 23.625 -4 22 C-4 21.34 -4 20.68 -4 20 C-4.66 19.34 -5.32 18.68 -6 18 C-5.690625 17.38125 -5.38125 16.7625 -5.0625 16.125 C-3.82046898 12.47196758 -3.62213581 9.14081823 -3.44140625 5.3046875 C-2.92553232 2.61118645 -2.09177674 1.70688982 0 0 Z " fill="#1F1F1F" transform="translate(297,71)"/>
<path d="M0 0 C0.66 0.33 1.32 0.66 2 1 C1.38125 1.556875 0.7625 2.11375 0.125 2.6875 C-2.13828729 4.8491348 -2.13828729 4.8491348 -2.9375 7.625 C-4 10 -4 10 -6.375 11 C-7.24125 11.33 -8.1075 11.66 -9 12 C-10.36639342 13.6396721 -11.70513179 15.30327614 -13 17 C-13.66 17 -14.32 17 -15 17 C-15 17.66 -15 18.32 -15 19 C-15.99 19.66 -16.98 20.32 -18 21 C-18.68132451 22.66072849 -19.34742127 24.327767 -20 26 C-21.625 27.8125 -21.625 27.8125 -23 29 C-23 28.34 -23 27.68 -23 27 C-24.65 28.32 -26.3 29.64 -28 31 C-28.66 30.67 -29.32 30.34 -30 30 C-20.1 20.1 -10.2 10.2 0 0 Z " fill="#0C210F" transform="translate(136,90)"/>
<path d="M0 0 C1.39412109 -0.02126953 1.39412109 -0.02126953 2.81640625 -0.04296875 C5.54087014 0.19658918 7.06041718 0.91156816 9.4375 2.1875 C8.15875 2.21328125 6.88 2.2390625 5.5625 2.265625 C3.85413435 2.32194475 2.14580233 2.37929118 0.4375 2.4375 C-0.40167969 2.45167969 -1.24085937 2.46585938 -2.10546875 2.48046875 C-7.47884869 2.68873929 -11.30067064 3.63415522 -15.96875 6.33886719 C-17.5625 7.1875 -17.5625 7.1875 -19.5625 7.1875 C-19.5625 7.8475 -19.5625 8.5075 -19.5625 9.1875 C-20.5525 9.1875 -21.5425 9.1875 -22.5625 9.1875 C-23.2225 10.5075 -23.8825 11.8275 -24.5625 13.1875 C-25.2225 13.1875 -25.8825 13.1875 -26.5625 13.1875 C-26.5625 13.8475 -26.5625 14.5075 -26.5625 15.1875 C-27.8825 14.8575 -29.2025 14.5275 -30.5625 14.1875 C-21.82939751 5.49752394 -12.52163261 0.08707672 0 0 Z " fill="#B6433C" transform="translate(39.5625,10.8125)"/>
<path d="M0 0 C0.33 0 0.66 0 1 0 C1.20625 1.258125 1.4125 2.51625 1.625 3.8125 C3.27585197 11.31853197 7.30274355 17.98470742 12 24 C9.13275314 23.42655063 8.1385485 23.1385485 6 21 C5.375 18.875 5.375 18.875 5 17 C3.35 17.99 1.7 18.98 0 20 C0 13.4 0 6.8 0 0 Z " fill="#321512" transform="translate(0,55)"/>
<path d="M0 0 C0.5534764 2.07553648 1 3.84365964 1 6 C-0.11375 6.45375 -1.2275 6.9075 -2.375 7.375 C-5.96199008 8.72465986 -5.96199008 8.72465986 -8 11 C-8.04125 11.78375 -8.0825 12.5675 -8.125 13.375 C-9.19184244 16.57552731 -9.95544995 16.81543145 -12.875 18.3125 C-15.58553183 19.57774825 -16.94833045 20 -20 20 C-13.33333333 13.33333333 -6.66666667 6.66666667 0 0 Z " fill="#F9AC20" transform="translate(47,67)"/>
<path d="M0 0 C1.32 0.33 2.64 0.66 4 1 C3.319375 1.66 2.63875 2.32 1.9375 3 C-1.019479 5.92337696 -3.63082833 9.10531333 -6.25390625 12.328125 C-8.17780937 14.17025147 -9.39943607 14.61304519 -12 15 C-12.66 14.01 -13.32 13.02 -14 12 C-12.68 12 -11.36 12 -10 12 C-9.7525 11.2575 -9.505 10.515 -9.25 9.75 C-7.90852699 6.79875938 -6.39094474 5.15185026 -4 3 C-3.34 3.33 -2.68 3.66 -2 4 C-1.34 2.68 -0.68 1.36 0 0 Z " fill="#4483E7" transform="translate(91,53)"/>
<path d="M0 0 C3 0.125 3 0.125 4 1.125 C4.125 4.125 4.125 4.125 4 7.125 C3 8.125 3 8.125 0 8.25 C-3 8.125 -3 8.125 -4 7.125 C-4.125 4.125 -4.125 4.125 -4 1.125 C-3 0.125 -3 0.125 0 0 Z " fill="#F6F6F6" transform="translate(485,45.875)"/>
<path d="M0 0 C6.64615385 1.47692308 6.64615385 1.47692308 8.4375 4.125 C8.7159375 5.053125 8.7159375 5.053125 9 6 C9.99 6 10.98 6 12 6 C12 5.34 12 4.68 12 4 C14.64 3.34 17.28 2.68 20 2 C18.625 4 18.625 4 17 6 C16.34 6 15.68 6 15 6 C14.34 7.32 13.68 8.64 13 10 C8.61560205 9.50857886 6.69757655 8.17446868 3.6875 5 C2.99011719 4.278125 2.29273438 3.55625 1.57421875 2.8125 C0 1 0 1 0 0 Z " fill="#D9BA1D" transform="translate(30,96)"/>
<path d="M0 0 C0.66 0.33 1.32 0.66 2 1 C1.50886719 1.50015625 1.01773437 2.0003125 0.51171875 2.515625 C-1.54344718 5.893107 -1.32839999 8.92763623 -1.1875 12.75 C-1.17396484 13.44738281 -1.16042969 14.14476562 -1.14648438 14.86328125 C-1.1112945 16.57585541 -1.05749155 18.28802941 -1 20 C-0.01 20.33 0.98 20.66 2 21 C3.60546875 22.84765625 3.60546875 22.84765625 5.1875 25.0625 C5.71730469 25.79597656 6.24710938 26.52945313 6.79296875 27.28515625 C7.19128906 27.85105469 7.58960938 28.41695312 8 29 C4.52736857 28.43626113 3.08682935 27.39149033 0.875 24.6875 C0.37742187 24.09324219 -0.12015625 23.49898437 -0.6328125 22.88671875 C-4.34803128 17.75971683 -4.82040686 13.22936836 -4 7 C-2.91870041 4.34376406 -1.65192806 2.37464658 0 0 Z " fill="#C3463E" transform="translate(27,39)"/>
<path d="M0 0 C1.92285156 0.85913086 1.92285156 0.85913086 3.92285156 3.85913086 C1.94285156 3.85913086 -0.03714844 3.85913086 -2.07714844 3.85913086 C-2.31175781 4.45209961 -2.54636719 5.04506836 -2.78808594 5.65600586 C-4.37610269 8.37007086 -6.05317728 9.44406327 -8.70214844 11.10913086 C-9.51941406 11.62991211 -10.33667969 12.15069336 -11.17871094 12.68725586 C-12.1184375 13.26733398 -12.1184375 13.26733398 -13.07714844 13.85913086 C-13.73714844 13.52913086 -14.39714844 13.19913086 -15.07714844 12.85913086 C-13.00847281 10.65593153 -10.9243305 8.47240111 -8.82714844 6.29663086 C-7.94736328 5.35400391 -7.94736328 5.35400391 -7.04980469 4.39233398 C-6.47617187 3.80258789 -5.90253906 3.2128418 -5.31152344 2.60522461 C-4.7878418 2.05535889 -4.26416016 1.50549316 -3.72460938 0.93896484 C-2.07714844 -0.14086914 -2.07714844 -0.14086914 0 0 Z " fill="#E2B21B" transform="translate(63.0771484375,53.140869140625)"/>
<path d="M0 0 C0.7425 0.33 1.485 0.66 2.25 1 C5.13883312 2.22782871 5.13883312 2.22782871 9 2 C7.95125002 4.62187494 7.35068687 5.79371361 4.875 7.25 C4.25625 7.4975 3.6375 7.745 3 8 C3 8.99 3 9.98 3 11 C2.34 11 1.68 11 1 11 C-1.78637633 6.8204355 -0.79562512 4.85331323 0 0 Z " fill="#E54439" transform="translate(61,42)"/>
<path d="M0 0 C0.66 0.33 1.32 0.66 2 1 C1.67 1.66 1.34 2.32 1 3 C0.77141886 5.0374763 0.58975722 7.08040303 0.4375 9.125 C0.35371094 10.22070312 0.26992188 11.31640625 0.18359375 12.4453125 C0.12300781 13.28835937 0.06242187 14.13140625 0 15 C-0.99 15.33 -1.98 15.66 -3 16 C-4 15 -4 15 -4.09765625 12.49609375 C-4.08605469 11.48675781 -4.07445312 10.47742188 -4.0625 9.4375 C-4.05347656 8.42558594 -4.04445313 7.41367188 -4.03515625 6.37109375 C-4.02355469 5.58863281 -4.01195312 4.80617188 -4 4 C-3.34 4 -2.68 4 -2 4 C-2 3.01 -2 2.02 -2 1 C-1.34 0.67 -0.68 0.34 0 0 Z " fill="#272727" transform="translate(337,69)"/>
<path d="M0 0 C-1 3 -1 3 -3 4 C-5.22185938 8.79453867 -5.4798837 12.98081403 -4 18 C-2.0554473 20.82865928 -2.0554473 20.82865928 0 23 C0 23.66 0 24.32 0 25 C0.66 25.33 1.32 25.66 2 26 C-1 26 -1 26 -3.625 23.6875 C-7.63134121 19.15400863 -7.38758814 14.78380426 -7.359375 8.96484375 C-6.85948196 4.84072618 -4.83846781 0 0 0 Z " fill="#40150D" transform="translate(32,38)"/>
<path d="M0 0 C0.99 0.66 1.98 1.32 3 2 C0.03 4.97 -2.94 7.94 -6 11 C-10.0084034 8.9957983 -11.41409657 7.50944037 -14 4 C-13.34 3.67 -12.68 3.34 -12 3 C-12 3.66 -12 4.32 -12 5 C-11.236875 4.773125 -10.47375 4.54625 -9.6875 4.3125 C-8.800625 4.209375 -7.91375 4.10625 -7 4 C-5.1875 5.4375 -5.1875 5.4375 -4 7 C-3.67 5.35 -3.34 3.7 -3 2 C-2.01 2.33 -1.02 2.66 0 3 C0 2.01 0 1.02 0 0 Z M-7 7 C-6 9 -6 9 -6 9 Z " fill="#3F9E5B" transform="translate(87,134)"/>
<path d="M0 0 C1.66611905 -0.042721 3.33382885 -0.04063832 5 0 C6.70336001 1.70336001 6.17182498 3.86446226 6.1875 6.1875 C6.15939308 10.5047224 5.73473512 13.98842503 4 18 C3.34 18 2.68 18 2 18 C2.02320313 17.11957031 2.04640625 16.23914063 2.0703125 15.33203125 C2.08835938 14.17058594 2.10640625 13.00914063 2.125 11.8125 C2.14820313 10.66394531 2.17140625 9.51539063 2.1953125 8.33203125 C2.00484152 5.08259628 1.39360127 2.91339479 0 0 Z " fill="#4679D5" transform="translate(132,40)"/>
<path d="M0 0 C1.15242188 0.00902344 2.30484375 0.01804687 3.4921875 0.02734375 C4.36101562 0.03894531 5.22984375 0.05054688 6.125 0.0625 C6.125 0.3925 6.125 0.7225 6.125 1.0625 C5.14273438 1.10117188 5.14273438 1.10117188 4.140625 1.140625 C-5.19467274 1.72078475 -13.26569881 4.5718197 -21.875 8.0625 C-21.875 6.0825 -21.875 4.1025 -21.875 2.0625 C-21.545 2.7225 -21.215 3.3825 -20.875 4.0625 C-20.215 3.7325 -19.555 3.4025 -18.875 3.0625 C-16.87539988 3.022508 -14.87452758 3.01903201 -12.875 3.0625 C-12.875 2.4025 -12.875 1.7425 -12.875 1.0625 C-8.52167264 0.22226812 -4.43057481 -0.04520995 0 0 Z " fill="#101F34" transform="translate(118.875,9.9375)"/>
<path d="M0 0 C0.33 0 0.66 0 1 0 C3.65938441 11.77421 1.80131321 22.50238562 -4 33 C-5.43088528 30.13822943 -4.59991697 28.06624227 -4 25 C-3.34 25 -2.68 25 -2 25 C-1.855625 24.278125 -1.71125 23.55625 -1.5625 22.8125 C-1.22791077 21.13955385 -0.87137962 19.47038666 -0.46875 17.8125 C0.12331267 14.26012398 0.1071358 10.77553148 0.0625 7.1875 C0.05798828 6.49462891 0.05347656 5.80175781 0.04882812 5.08789062 C0.03713156 3.39188932 0.01919924 1.69593297 0 0 Z " fill="#4271C1" transform="translate(158,39)"/>
<path d="M0 0 C0.64453125 1.765625 0.64453125 1.765625 1 4 C0.07421875 5.921875 0.07421875 5.921875 -1.3125 7.75 C-1.98732422 8.67039062 -1.98732422 8.67039062 -2.67578125 9.609375 C-3.11277344 10.06828125 -3.54976562 10.5271875 -4 11 C-4.66 11 -5.32 11 -6 11 C-6 12.32 -6 13.64 -6 15 C-6.78375 15.28875 -7.5675 15.5775 -8.375 15.875 C-11.09671632 16.84912254 -11.09671632 16.84912254 -13 19 C-13 16 -13 16 -11.64453125 14.38671875 C-11.03996094 13.82597656 -10.43539062 13.26523438 -9.8125 12.6875 C-3.81268603 7.09501391 -3.81268603 7.09501391 0 0 Z " fill="#0F1F37" transform="translate(155,68)"/>
<path d="M0 0 C0.99 0.33 1.98 0.66 3 1 C2.01 2.98 1.02 4.96 0 7 C-0.66 7 -1.32 7 -2 7 C-2.226875 7.61875 -2.45375 8.2375 -2.6875 8.875 C-4.37929835 11.61410209 -5.99244161 12.05024472 -9 13 C-6.94196512 9.39843896 -4.75464117 6.11007874 -2 3 C-1.34 3 -0.68 3 0 3 C0 2.01 0 1.02 0 0 Z " fill="#6F70BE" transform="translate(78,34)"/>
<path d="M0 0 C1.65 0 3.3 0 5 0 C5 1.65 5 3.3 5 5 C5.99 5 6.98 5 8 5 C8.99 6.485 8.99 6.485 10 8 C10.99 8 11.98 8 13 8 C13.33 9.98 13.66 11.96 14 14 C12.33984619 12.57701102 10.68024699 11.15344741 9.0234375 9.7265625 C7.68471179 8.58425215 6.3357983 7.45376463 4.9765625 6.3359375 C4.34492187 5.81257813 3.71328125 5.28921875 3.0625 4.75 C2.47597656 4.27046875 1.88945313 3.7909375 1.28515625 3.296875 C0 2 0 2 0 0 Z " fill="#29110E" transform="translate(66,20)"/>
<path d="M0 0 C0.66 0.99 1.32 1.98 2 3 C1.67 3.66 1.34 4.32 1 5 C0.01 5.33 -0.98 5.66 -2 6 C-3.00642948 7.32848691 -4.00692179 8.66150329 -5 10 C-5.66 10 -6.32 10 -7 10 C-7 10.66 -7 11.32 -7 12 C-8.32 11.67 -9.64 11.34 -11 11 C-7.37 7.37 -3.74 3.74 0 0 Z " fill="#332405" transform="translate(70,78)"/>
<path d="M0 0 C6.76532673 1.78529455 11.65460165 4.49937851 17 9 C15.68 9.33 14.36 9.66 13 10 C13 9.34 13 8.68 13 8 C12.01 8 11.02 8 10 8 C10 7.34 10 6.68 10 6 C9.01 6 8.02 6 7 6 C7 5.34 7 4.68 7 4 C5.824375 3.7834375 5.824375 3.7834375 4.625 3.5625 C2 3 2 3 0 2 C0 1.34 0 0.68 0 0 Z " fill="#4B7BD6" transform="translate(131,13)"/>
<path d="M0 0 C1.60031344 3.20062687 0.03173691 5.72271806 -1 9 C-1.66 9 -2.32 9 -3 9 C-3 10.32 -3 11.64 -3 13 C-3.66 13 -4.32 13 -5 13 C-5.33 14.65 -5.66 16.3 -6 18 C-6.85946409 15.57036113 -7.09627683 14.3128997 -6.328125 11.81640625 C-5.79445313 10.70072266 -5.79445313 10.70072266 -5.25 9.5625 C-4.87875 8.78132813 -4.5075 8.00015625 -4.125 7.1953125 C-2.85801983 4.72294147 -1.50629207 2.33475272 0 0 Z " fill="#C1453A" transform="translate(8,26)"/>
<path d="M0 0 C1 2 1 2 0.375 4.5625 C-1 7 -1 7 -3.625 7.8125 C-4.800625 7.9053125 -4.800625 7.9053125 -6 8 C-6 9.32 -6 10.64 -6 12 C-7.65 12 -9.3 12 -11 12 C-10.67 11.34 -10.34 10.68 -10 10 C-9.34 10 -8.68 10 -8 10 C-7.79375 9.46375 -7.5875 8.9275 -7.375 8.375 C-5.42003056 4.9982346 -2.81776305 2.69525161 0 0 Z " fill="#162742" transform="translate(91,57)"/>
<path d="M0 0 C-1.81504114 2.10162658 -2.96500695 2.98750248 -5.625 3.9375 C-8.19124685 4.7498001 -8.19124685 4.7498001 -8.8125 7.125 C-8.874375 7.74375 -8.93625 8.3625 -9 9 C-10.98 9 -12.96 9 -15 9 C-14.06725891 7.87105124 -13.12859878 6.74699124 -12.1875 5.625 C-11.66542969 4.99851562 -11.14335938 4.37203125 -10.60546875 3.7265625 C-7.18806244 0.05139562 -4.82549227 -0.21446632 0 0 Z " fill="#122014" transform="translate(110,122)"/>
<path d="M0 0 C-0.58324395 3.22540929 -1.52214798 4.9757611 -3.8125 7.3125 C-4.31394531 7.84488281 -4.81539063 8.37726563 -5.33203125 8.92578125 C-7 10 -7 10 -9.19921875 9.66796875 C-9.79347656 9.44753906 -10.38773437 9.22710937 -11 9 C-9.54782324 7.49403892 -8.08807139 5.99537896 -6.625 4.5 C-5.40683594 3.24703125 -5.40683594 3.24703125 -4.1640625 1.96875 C-2 0 -2 0 0 0 Z " fill="#3A9352" transform="translate(92,101)"/>
<path d="M0 0 C1.65 1.65 3.3 3.3 5 5 C4.21625 4.95875 3.4325 4.9175 2.625 4.875 C-0.16116119 4.71271266 -0.16116119 4.71271266 -2 7 C-3.32 7 -4.64 7 -6 7 C-4.60667426 3.63279613 -3.0210714 2.0140476 0 0 Z " fill="#529B41" transform="translate(58,90)"/>
<path d="M0 0 C0 0.33 0 0.66 0 1 C-0.59425781 1.14695312 -1.18851563 1.29390625 -1.80078125 1.4453125 C-8.80842293 3.34162611 -14.75530835 6.33154046 -21 10 C-19.44920542 6.56460753 -18.43462505 5.55112099 -15 4 C-14.67 3.34 -14.34 2.68 -14 2 C-9.17574056 0.52819204 -5.07522852 -0.25376143 0 0 Z " fill="#3B120B" transform="translate(34,11)"/>
<path d="M0 0 C3.02788635 3.46044155 4.98556464 7.52249221 6 12 C5.578125 14.25 5.578125 14.25 5 16 C-0.74031891 5.62642369 -0.74031891 5.62642369 0 0 Z " fill="#C5473E" transform="translate(1,56)"/>
<path d="M0 0 C-1.423125 0.37125 -1.423125 0.37125 -2.875 0.75 C-6.07354638 1.66163466 -6.07354638 1.66163466 -7.1875 4 C-7.455625 4.66 -7.72375 5.32 -8 6 C-8.99 6.66 -9.98 7.32 -11 8 C-11 6.02 -11 4.04 -11 2 C-10.34 1.67 -9.68 1.34 -9 1 C-8.34 1.33 -7.68 1.66 -7 2 C-7 1.34 -7 0.68 -7 0 C-3.98968256 -0.93423645 -3.13349732 -1.04449911 0 0 Z " fill="#437CD5" transform="translate(116,36)"/>
<path d="M0 0 C0.99 0.99 1.98 1.98 3 3 C1.42881935 7.71354196 -1.93818614 10.29212409 -6 13 C-5.62403791 10.21788056 -5.32681541 8.4120716 -3.5625 6.1875 C-2 5 -2 5 0 5 C0 3.35 0 1.7 0 0 Z " fill="#CE4845" transform="translate(76,31)"/>
<path d="M0 0 C3.80635497 3.20760251 7.54563567 6.40746109 11 10 C10.67 10.99 10.34 11.98 10 13 C7.9754262 11.06745228 6.57894208 9.36841312 5 7 C4.01 6.67 3.02 6.34 2 6 C0.8125 2.9375 0.8125 2.9375 0 0 Z " fill="#103019" transform="translate(67,133)"/>
<path d="M0 0 C0.99 0 1.98 0 3 0 C3 0.66 3 1.32 3 2 C3.66 2 4.32 2 5 2 C5 2.66 5 3.32 5 4 C6.32 3.67 7.64 3.34 9 3 C9.59732819 5.76264289 10 8.16032769 10 11 C8.33035479 9.35718838 6.6643536 7.71067239 5 6.0625 C4.071875 5.14597656 3.14375 4.22945313 2.1875 3.28515625 C0 1 0 1 0 0 Z " fill="#C6453F" transform="translate(11,77)"/>
<path d="M0 0 C0.66 0.33 1.32 0.66 2 1 C1.525625 1.763125 1.05125 2.52625 0.5625 3.3125 C-1.10106097 5.96410548 -1.10106097 5.96410548 -2 9 C-3.98 9 -5.96 9 -8 9 C-7.04270084 7.87411986 -6.08412105 6.7493285 -5.125 5.625 C-4.59132813 4.99851562 -4.05765625 4.37203125 -3.5078125 3.7265625 C-2.38567993 2.44163349 -1.20628025 1.20628025 0 0 Z " fill="#372807" transform="translate(79,69)"/>
<path d="M0 0 C-0.33 0.99 -0.66 1.98 -1 3 C-1.78375 2.690625 -2.5675 2.38125 -3.375 2.0625 C-7.89851578 0.73664193 -12.31431814 0.35188915 -17 0 C-17 -0.33 -17 -0.66 -17 -1 C-15.10590022 -1.22354607 -13.2095652 -1.42819951 -11.3125 -1.625 C-9.72888672 -1.79902344 -9.72888672 -1.79902344 -8.11328125 -1.9765625 C-4.86283654 -2.0010326 -2.89769204 -1.40852563 0 0 Z " fill="#393939" transform="translate(289,61)"/>
<path d="M0 0 C0.33 0.66 0.66 1.32 1 2 C0.67 2.66 0.34 3.32 0 4 C0.99 3.67 1.98 3.34 3 3 C3.66 5.64 4.32 8.28 5 11 C3.82174642 10.09827532 2.65768423 9.17798498 1.5 8.25 C0.8503125 7.73953125 0.200625 7.2290625 -0.46875 6.703125 C-2 5 -2 5 -2 1 C-1.34 0.67 -0.68 0.34 0 0 Z " fill="#658BB5" transform="translate(66,49)"/>
<path d="M0 0 C2.5795165 2.4673636 3.92403242 3.85518618 4.16796875 7.53125 C4.17441406 8.5109375 4.18085938 9.490625 4.1875 10.5 C4.20167969 11.4796875 4.21585938 12.459375 4.23046875 13.46875 C4 16 4 16 2 18 C2.02320313 17.3709375 2.04640625 16.741875 2.0703125 16.09375 C2.19184081 10.32983602 1.63773706 5.52736258 0 0 Z " fill="#0D213B" transform="translate(131,40)"/>
<path d="M0 0 C0 0.66 0 1.32 0 2 C-0.99 2 -1.98 2 -3 2 C-3.309375 2.94875 -3.61875 3.8975 -3.9375 4.875 C-5 8 -5 8 -6 10 C-9.0625 10.625 -9.0625 10.625 -12 11 C-2.73033708 0 -2.73033708 0 0 0 Z " fill="#131E33" transform="translate(114,37)"/>
<path d="M0 0 C3 0 3 0 6 1 C4.02 3.31 2.04 5.62 0 8 C-0.66 6.68 -1.32 5.36 -2 4 C-1.125 1.75 -1.125 1.75 0 0 Z " fill="#121927" transform="translate(81,26)"/>
<path d="M0 0 C0 0.66 0 1.32 0 2 C-0.99 2 -1.98 2 -3 2 C-3.66 3.32 -4.32 4.64 -5 6 C-5.66 6 -6.32 6 -7 6 C-7 6.66 -7 7.32 -7 8 C-8.32 7.67 -9.64 7.34 -11 7 C-9.73742767 5.82439821 -8.46462916 4.65977135 -7.1875 3.5 C-6.12595703 2.52546875 -6.12595703 2.52546875 -5.04296875 1.53125 C-3 0 -3 0 0 0 Z " fill="#CD443D" transform="translate(20,18)"/>
<path d="M0 0 C0.66 0 1.32 0 2 0 C1.58578031 4.83256305 -0.46413986 6.82679218 -4 10 C-2.28571429 2.28571429 -2.28571429 2.28571429 0 0 Z " fill="#122619" transform="translate(100,86)"/>
<path d="M0 0 C4.74908547 2.80627778 7.19372222 5.25091453 10 10 C7.0280615 8.87548273 4.66559313 7.77706209 2 6 C2.33 5.01 2.66 4.02 3 3 C2.01 3 1.02 3 0 3 C0 2.01 0 1.02 0 0 Z " fill="#399893" transform="translate(124,78)"/>
<path d="M0 0 C0.99 0.33 1.98 0.66 3 1 C-3.15034169 8.48291572 -3.15034169 8.48291572 -7 11 C-6.690625 10.401875 -6.38125 9.80375 -6.0625 9.1875 C-4.89790296 6.91043228 -4.89790296 6.91043228 -4 4 C-1.9375 2.8125 -1.9375 2.8125 0 2 C0 1.34 0 0.68 0 0 Z " fill="#E0561D" transform="translate(37,73)"/>
<path d="M0 0 C1.0625 1.875 1.0625 1.875 2 4 C1.67 4.66 1.34 5.32 1 6 C1.66 6.33 2.32 6.66 3 7 C1.68 7 0.36 7 -1 7 C-3.25 4.5 -3.25 4.5 -5 2 C-4.01 1.67 -3.02 1.34 -2 1 C-1.34 0.67 -0.68 0.34 0 0 Z " fill="#381C13" transform="translate(40,65)"/>
<path d="M0 0 C0 3 0 3 -1.375 4.6875 C-3 6 -3 6 -5 6 C-5 6.99 -5 7.98 -5 9 C-5.66 9 -6.32 9 -7 9 C-7.66 7.35 -8.32 5.7 -9 4 C-7.88625 3.71125 -6.7725 3.4225 -5.625 3.125 C-1.99708908 2.30758671 -1.99708908 2.30758671 0 0 Z " fill="#AD555E" transform="translate(69,44)"/>
<path d="M0 0 C2.97 0.33 5.94 0.66 9 1 C9.66 2.65 10.32 4.3 11 6 C11.66 6 12.32 6 13 6 C13.33 7.32 13.66 8.64 14 10 C13.34 9.67 12.68 9.34 12 9 C12 8.34 12 7.68 12 7 C11.01 6.67 10.02 6.34 9 6 C9 5.34 9 4.68 9 4 C6.03 3.01 3.06 2.02 0 1 C0 0.67 0 0.34 0 0 Z " fill="#BA4136" transform="translate(42,35)"/>
<path d="M0 0 C5.841744 -0.35050464 9.8531808 -0.16727335 15 3 C15 3.66 15 4.32 15 5 C14.33613281 4.79503906 13.67226562 4.59007812 12.98828125 4.37890625 C12.10527344 4.10949219 11.22226563 3.84007812 10.3125 3.5625 C9.44238281 3.29566406 8.57226562 3.02882813 7.67578125 2.75390625 C5.12974079 2.03655471 2.5996577 1.482459 0 1 C0 0.67 0 0.34 0 0 Z " fill="#122444" transform="translate(125,11)"/>
<path d="M0 0 C1.32 0.66 2.64 1.32 4 2 C2.68 3.32 1.36 4.64 0 6 C-3.875 4.25 -3.875 4.25 -5 2 C-4.360625 1.855625 -3.72125 1.71125 -3.0625 1.5625 C-1.02454854 1.18992819 -1.02454854 1.18992819 0 0 Z " fill="#092313" transform="translate(81,105)"/>
<path d="M0 0 C0 3.21534057 -0.26476072 4.35582586 -2 7 C-4.375 8.8125 -4.375 8.8125 -7 10 C-9.3125 9.6875 -9.3125 9.6875 -11 9 C-10.1646875 8.6596875 -10.1646875 8.6596875 -9.3125 8.3125 C-6.35823409 6.63575448 -4.33152149 4.45423315 -2 2 C-1.34 1.34 -0.68 0.68 0 0 Z " fill="#609F35" transform="translate(51,97)"/>
<path d="M0 0 C1.32 0.33 2.64 0.66 4 1 C3.2575 1.5775 2.515 2.155 1.75 2.75 C-0.66087643 4.72253526 -2.84042701 6.76044282 -5 9 C-5 7.68 -5 6.36 -5 5 C-4.34 5 -3.68 5 -3 5 C-3 4.34 -3 3.68 -3 3 C-2.34 3 -1.68 3 -1 3 C-0.67 2.01 -0.34 1.02 0 0 Z " fill="#11243A" transform="translate(128,60)"/>
<path d="M0 0 C-1.29299694 2.88437779 -2.65941363 4.87219421 -5 7 C-6.32 6.34 -7.64 5.68 -9 5 C-8.360625 4.896875 -7.72125 4.79375 -7.0625 4.6875 C-6.381875 4.460625 -5.70125 4.23375 -5 4 C-4.67 3.01 -4.34 2.02 -4 1 C-2 0 -2 0 0 0 Z " fill="#4F7FD1" transform="translate(86,61)"/>
<path d="M0 0 C1.32 0.99 2.64 1.98 4 3 C2.60667426 6.36720387 1.0210714 7.9859524 -2 10 C-2 8.35 -2 6.7 -2 5 C-1.34 5 -0.68 5 0 5 C0 3.35 0 1.7 0 0 Z " fill="#2B1808" transform="translate(58,48)"/>
<path d="M0 0 C2.5 1.3125 2.5 1.3125 5 3 C5 3.99 5 4.98 5 6 C5.99 6 6.98 6 8 6 C8 6.99 8 7.98 8 9 C6.68 8.34 5.36 7.68 4 7 C4 6.01 4 5.02 4 4 C2.68 4.33 1.36 4.66 0 5 C-0.33 4.01 -0.66 3.02 -1 2 C-0.67 1.34 -0.34 0.68 0 0 Z " fill="#33A563" transform="translate(119,75)"/>
<path d="M0 0 C1.32 0.33 2.64 0.66 4 1 C3.67 1.66 3.34 2.32 3 3 C3.99 3 4.98 3 6 3 C5.67 4.65 5.34 6.3 5 8 C2.21611025 6.29374499 1.14615794 5.52373261 0.25 2.3125 C0.1675 1.549375 0.085 0.78625 0 0 Z " fill="#D14135" transform="translate(55,41)"/>
<path d="M0 0 C3.375 0.6875 3.375 0.6875 7 2 C8.4375 4.625 8.4375 4.625 9 7 C6 7 6 7 4.39453125 5.46875 C3.87246094 4.8190625 3.35039063 4.169375 2.8125 3.5 C2.28269531 2.8503125 1.75289062 2.200625 1.20703125 1.53125 C0.80871094 1.0259375 0.41039063 0.520625 0 0 Z " fill="#D6A721" transform="translate(30,96)"/>
<path d="M0 0 C0.33 1.32 0.66 2.64 1 4 C-0.26691507 4.67408308 -1.53870749 5.33900497 -2.8125 6 C-3.52019531 6.37125 -4.22789063 6.7425 -4.95703125 7.125 C-7 8 -7 8 -10 8 C-7.72036239 4.58054359 -6.67402889 4.43376737 -3 3 C-1.22722741 1.47992158 -1.22722741 1.47992158 0 0 Z " fill="#FCB214" transform="translate(37,79)"/>
<path d="M0 0 C0.65234375 1.765625 0.65234375 1.765625 1 4 C0.00390625 5.921875 0.00390625 5.921875 -1.4375 7.75 C-1.91058594 8.36359375 -2.38367188 8.9771875 -2.87109375 9.609375 C-3.24363281 10.06828125 -3.61617187 10.5271875 -4 11 C-4.99 10.67 -5.98 10.34 -7 10 C-6.57847656 9.52949219 -6.15695313 9.05898437 -5.72265625 8.57421875 C-5.17480469 7.95160156 -4.62695312 7.32898438 -4.0625 6.6875 C-3.51722656 6.07261719 -2.97195312 5.45773438 -2.41015625 4.82421875 C-0.79918441 2.94758042 -0.79918441 2.94758042 0 0 Z " fill="#142542" transform="translate(155,68)"/>
<path d="M0 0 C-0.33 0.99 -0.66 1.98 -1 3 C-2.65 3 -4.3 3 -6 3 C-6.33 3.99 -6.66 4.98 -7 6 C-8.32 5.67 -9.64 5.34 -11 5 C-9.73461631 4.15841464 -8.46246221 3.32700252 -7.1875 2.5 C-6.47980469 2.0359375 -5.77210937 1.571875 -5.04296875 1.09375 C-3 0 -3 0 0 0 Z " fill="#4877C8" transform="translate(107,14)"/>
<path d="M0 0 C3.33727786 1.17255709 5.77437487 2.18868404 8 5 C8 5.66 8 6.32 8 7 C8.66 7.33 9.32 7.66 10 8 C9.01 8 8.02 8 7 8 C7 7.34 7 6.68 7 6 C5.68 5.67 4.36 5.34 3 5 C3 4.34 3 3.68 3 3 C2.01 2.67 1.02 2.34 0 2 C0 1.34 0 0.68 0 0 Z " fill="#112F1A" transform="translate(40,108)"/>
<path d="M0 0 C1.9375 0.3125 1.9375 0.3125 4 1 C4.33 1.99 4.66 2.98 5 4 C4.34 4.66 3.68 5.32 3 6 C0.875 5.625 0.875 5.625 -1 5 C-0.67 3.35 -0.34 1.7 0 0 Z " fill="#212121" transform="translate(257,65)"/>
<path d="M0 0 C2.64 1.98 5.28 3.96 8 6 C4.86650268 7.04449911 4.01031744 6.93423645 1 6 C0.67 4.02 0.34 2.04 0 0 Z " fill="#DDB837" transform="translate(67,57)"/>
<path d="M0 0 C1.32 0.66 2.64 1.32 4 2 C2.71937515 3.7074998 1.38232443 5.37373596 0 7 C-0.66 7 -1.32 7 -2 7 C-2.125 4.625 -2.125 4.625 -2 2 C-1.34 1.34 -0.68 0.68 0 0 Z " fill="#3D9A55" transform="translate(92,128)"/>
<path d="M0 0 C2.79828356 0.38597015 3.8205884 0.80136573 5.75 2.9375 C7 5 7 5 7 7 C7.66 7 8.32 7 9 7 C8.67 7.66 8.34 8.32 8 9 C6.84775972 8.07038578 5.70340824 7.1309875 4.5625 6.1875 C3.60537109 5.40439453 3.60537109 5.40439453 2.62890625 4.60546875 C1 3 1 3 0 0 Z " fill="#0F341A" transform="translate(65,96)"/>
<path d="M0 0 C1.98 1.65 3.96 3.3 6 5 C4.02 5.99 4.02 5.99 2 7 C0.68 6.01 -0.64 5.02 -2 4 C-1.34 2.68 -0.68 1.36 0 0 Z " fill="#292929" transform="translate(339,89)"/>
<path d="M0 0 C1.32 0 2.64 0 4 0 C4.33 1.65 4.66 3.3 5 5 C3.68 4.67 2.36 4.34 1 4 C0.67 4.99 0.34 5.98 0 7 C-1.04449911 3.86650268 -0.93423645 3.01031744 0 0 Z " fill="#232323" transform="translate(497,89)"/>
<path d="M0 0 C0 0.33 0 0.66 0 1 C-1.98 1 -3.96 1 -6 1 C-6.33 2.32 -6.66 3.64 -7 5 C-8.5 3.625 -8.5 3.625 -10 2 C-10 1.34 -10 0.68 -10 0 C-6.7169902 -1.6415049 -3.57454967 -0.51888624 0 0 Z " fill="#3E3E3E" transform="translate(371,61)"/>
<path d="M0 0 C2.25 -0.375 2.25 -0.375 5 0 C7.3125 3 7.3125 3 9 6 C4.58763974 6 3.21615077 3.9302707 0 1 C0 0.67 0 0.34 0 0 Z " fill="#12223B" transform="translate(143,18)"/>
<path d="M0 0 C0.99 0.33 1.98 0.66 3 1 C3 2.32 3 3.64 3 5 C2.34 5 1.68 5 1 5 C0.67 5.66 0.34 6.32 0 7 C0 6.34 0 5.68 0 5 C-0.66 5 -1.32 5 -2 5 C-1.125 1.125 -1.125 1.125 0 0 Z " fill="#252525" transform="translate(345,95)"/>
<path d="M0 0 C1.32 0.33 2.64 0.66 4 1 C1.69 3.31 -0.62 5.62 -3 8 C-3.33 7.01 -3.66 6.02 -4 5 C-2.68 4.34 -1.36 3.68 0 3 C0 2.01 0 1.02 0 0 Z " fill="#4879CB" transform="translate(146,76)"/>
<path d="M0 0 C1.32 0.33 2.64 0.66 4 1 C2.63016497 4.16115776 2.0109362 4.9927092 -1 7 C-1.33 5.68 -1.66 4.36 -2 3 C-1.34 2.67 -0.68 2.34 0 2 C0 1.34 0 0.68 0 0 Z " fill="#261E0B" transform="translate(51,57)"/>
<path d="M0 0 C1.32 0 2.64 0 4 0 C2.70700306 2.88437779 1.34058637 4.87219421 -1 7 C-1.66 5.68 -2.32 4.36 -3 3 C-2.34 3 -1.68 3 -1 3 C-0.67 2.01 -0.34 1.02 0 0 Z " fill="#DD5629" transform="translate(25,84)"/>
<path d="M0 0 C0.5534764 2.07553648 1 3.84365964 1 6 C-0.65 6.33 -2.3 6.66 -4 7 C-3.43628586 3.73045798 -2.50037734 2.17424117 0 0 Z " fill="#EAB51A" transform="translate(47,67)"/>
<path d="M0 0 C1.65 1.65 3.3 3.3 5 5 C3.35 6.32 1.7 7.64 0 9 C0 6.03 0 3.06 0 0 Z " fill="#D2B442" transform="translate(75,64)"/>
<path d="M0 0 C0.33 0.99 0.66 1.98 1 3 C-3.62 2.34 -8.24 1.68 -13 1 C-13 0.67 -13 0.34 -13 0 C-11.39679026 -0.19551338 -9.79237014 -0.38111983 -8.1875 -0.5625 C-7.29417969 -0.66691406 -6.40085937 -0.77132812 -5.48046875 -0.87890625 C-3 -1 -3 -1 0 0 Z " fill="#3E3E3E" transform="translate(325,60)"/>
<path d="M0 0 C3.16717283 1.58358642 4.73268318 2.45263699 6.3125 5.6875 C6.539375 6.450625 6.76625 7.21375 7 8 C4.0625 6.8125 4.0625 6.8125 1 5 C0.125 2.3125 0.125 2.3125 0 0 Z " fill="#D34740" transform="translate(65,21)"/>
<path d="M0 0 C1.32 0.66 2.64 1.32 4 2 C2.02 3.32 0.04 4.64 -2 6 C-2.33 5.01 -2.66 4.02 -3 3 C-2.01 2.01 -1.02 1.02 0 0 Z " fill="#131D2F" transform="translate(92,18)"/>
<path d="M0 0 C0.66 0.33 1.32 0.66 2 1 C1.814375 1.94875 1.62875 2.8975 1.4375 3.875 C0.71313368 6.89868793 0.71313368 6.89868793 2 9 C0.68 8.34 -0.64 7.68 -2 7 C-2 3 -2 3 0 0 Z " fill="#3E87AD" transform="translate(122,69)"/>
<path d="M0 0 C0.99 0.66 1.98 1.32 3 2 C2.01 3.485 2.01 3.485 1 5 C0.34 5 -0.32 5 -1 5 C-1 5.66 -1 6.32 -1 7 C-1.66 7 -2.32 7 -3 7 C-1.125 1.125 -1.125 1.125 0 0 Z " fill="#272727" transform="translate(215,58)"/>
<path d="M0 0 C2.31 0.33 4.62 0.66 7 1 C6.67 2.65 6.34 4.3 6 6 C3.97945196 4.35830472 1.97956942 2.69088222 0 1 C0 0.67 0 0.34 0 0 Z " fill="#5284CE" transform="translate(71,59)"/>
<path d="M0 0 C0.99 0.33 1.98 0.66 3 1 C3 1.66 3 2.32 3 3 C4.32 3.66 5.64 4.32 7 5 C6.34 5.66 5.68 6.32 5 7 C3.02 5.68 1.04 4.36 -1 3 C-0.67 2.01 -0.34 1.02 0 0 Z " fill="#232323" transform="translate(415,59)"/>
<path d="M0 0 C2.125 0.375 2.125 0.375 4 1 C2.35 2.65 0.7 4.3 -1 6 C-1.625 4.125 -1.625 4.125 -2 2 C-1.34 1.34 -0.68 0.68 0 0 Z " fill="#4780DC" transform="translate(91,53)"/>
<path d="M0 0 C1.65 0 3.3 0 5 0 C5.33 2.31 5.66 4.62 6 7 C3.95880212 5.38405168 1.95927063 3.7143618 0 2 C0 1.34 0 0.68 0 0 Z " fill="#371811" transform="translate(66,20)"/>
<path d="M0 0 C0.66 0.33 1.32 0.66 2 1 C1.01 2.485 1.01 2.485 0 4 C-0.66 4 -1.32 4 -2 4 C-2.33 4.99 -2.66 5.98 -3 7 C-3.99 7.33 -4.98 7.66 -6 8 C-4.55746343 4.63408134 -2.66735273 2.48952921 0 0 Z " fill="#E2E2E2" transform="translate(345,62)"/>
<path d="M0 0 C1.875 0.3125 1.875 0.3125 4 1 C4.66 1.99 5.32 2.98 6 4 C3.36 3.67 0.72 3.34 -2 3 C-1.34 2.01 -0.68 1.02 0 0 Z " fill="#DFB32B" transform="translate(61,53)"/>
<path d="M0 0 C0.66 0 1.32 0 2 0 C2 1.32 2 2.64 2 4 C0.02 4.33 -1.96 4.66 -4 5 C-2.71937515 3.2925002 -1.38232443 1.62626404 0 0 Z " fill="#132B49" transform="translate(100,48)"/>
<path d="M0 0 C-0.33 2.64 -0.66 5.28 -1 8 C-1.33 8 -1.66 8 -2 8 C-2.33 6.35 -2.66 4.7 -3 3 C-4.65 2.67 -6.3 2.34 -8 2 C-8 1.67 -8 1.34 -8 1 C-2.25 -1.125 -2.25 -1.125 0 0 Z " fill="#4A4A4A" transform="translate(491,44)"/>
<path d="M0 0 C0.99 0.66 1.98 1.32 3 2 C2.1875 3.9375 2.1875 3.9375 1 6 C0.01 6.33 -0.98 6.66 -2 7 C-1.34 4.69 -0.68 2.38 0 0 Z " fill="#151515" transform="translate(350,97)"/>
<path d="M0 0 C0.99 0.33 1.98 0.66 3 1 C2.67 1.99 2.34 2.98 2 4 C1.01 3.67 0.02 3.34 -1 3 C-1.33 3.66 -1.66 4.32 -2 5 C-2 3.68 -2 2.36 -2 1 C-1.34 0.67 -0.68 0.34 0 0 Z " fill="#161616" transform="translate(276,67)"/>
</svg>
