<?xml version="1.0" encoding="UTF-8"?>
<svg version="1.1" xmlns="http://www.w3.org/2000/svg" width="3500" height="1600">
<path d="M0 0 C1155 0 2310 0 3500 0 C3500 528 3500 1056 3500 1600 C2345 1600 1190 1600 0 1600 C0 1072 0 544 0 0 Z " fill="#000000" transform="translate(0,0)"/>
<path d="M0 0 C1.58969916 0.00056958 1.58969916 0.00056958 3.21151346 0.00115067 C4.42920956 -0.00084038 5.64690567 -0.00283143 6.90150166 -0.00488281 C8.27021711 -0.00202922 9.63893237 0.00091638 11.00764745 0.00394398 C12.44806603 0.0035084 13.88848453 0.00263375 15.3289026 0.00135481 C19.30580253 -0.00089285 23.2826758 0.00313482 27.25957233 0.00813287 C31.54112169 0.01243333 35.82266942 0.01099124 40.10422033 0.0102306 C47.52852068 0.00970511 54.95281227 0.01285455 62.37711042 0.01846844 C73.11152729 0.02658002 83.84593991 0.02919831 94.58035951 0.03045643 C111.9943519 0.03264749 129.40833961 0.03930904 146.82232946 0.04875904 C163.74290214 0.05793177 180.66347355 0.06501328 197.58404821 0.06926686 C199.14734631 0.06966094 199.14734631 0.06966094 200.74222619 0.07006299 C205.97039642 0.07136798 211.19856665 0.0726317 216.42673689 0.07387489 C259.83049559 0.08424918 303.2342492 0.10186896 346.63800329 0.1241985 C347.12121489 1.39899867 347.60312618 2.67429177 348.08449072 3.94979054 C348.35299495 4.65991606 348.62149917 5.37004158 348.89813989 6.10168606 C349.78511589 8.52634986 350.50852561 10.96780521 351.18097204 13.460136 C351.44587438 14.42822193 351.71077673 15.39630787 351.98370641 16.39372975 C352.26149938 17.41853443 352.53929235 18.44333912 352.82550329 19.4991985 C355.28112347 28.42392561 357.87898457 37.28865815 360.63800329 46.1241985 C363.30493864 54.67095096 365.82587457 63.24167746 368.20050329 71.8741985 C370.36627695 79.74700374 372.67709932 87.54609945 375.20050329 95.3116985 C377.52127768 102.45451213 379.64421872 109.61635919 381.57550329 116.8741985 C383.70961145 124.89268544 386.04231452 132.82798809 388.51300329 140.7491985 C391.75547681 151.14718093 394.80603034 161.58881502 397.77374548 172.06829029 C399.94192872 179.71632658 402.18008871 187.33861514 404.48565954 194.94621998 C406.55305081 201.78739279 408.52275262 208.65467447 410.45880407 215.53411061 C411.76009343 220.13671652 413.12024705 224.71569414 414.53644079 229.28435475 C417.03671459 237.3625724 419.37063756 245.48738637 421.7107572 253.61296803 C424.26572813 262.47790988 426.89936156 271.31391755 429.63800329 280.1241985 C433.53777425 292.7597338 437.33341247 305.42269783 441.01300329 318.1241985 C441.20138769 318.77446003 441.38977209 319.42472157 441.58386511 320.094688 C443.32280711 326.10020288 445.05704294 332.10707299 446.78790563 338.11492115 C451.33854635 353.90869243 455.99349005 369.66272555 460.86065954 385.36247975 C462.99910816 392.26913674 465.04328442 399.20161018 467.06134313 406.14421803 C468.0793997 409.6397467 469.10952084 413.13172622 470.13800329 416.6241985 C470.5586376 418.05386793 470.97921079 419.48355536 471.39972204 420.913261 C471.60645544 421.61612232 471.81318884 422.31898365 472.02618688 423.04314381 C472.61212217 425.03616551 473.19743375 427.02936917 473.78253454 429.022636 C476.38756655 437.89382607 479.01018474 446.75973123 481.63800329 455.6241985 C482.33723535 457.98487164 483.03645439 460.34554864 483.73565954 462.70622975 C484.80281999 466.30874259 485.87180705 469.91067392 486.94659704 473.51091725 C488.94528686 480.24007017 490.88331686 486.98292027 492.76690954 493.74529225 C492.9602236 494.43791661 493.15353765 495.13054096 493.35270971 495.84415394 C494.32434006 499.32574826 495.2923077 502.8082693 496.25299352 506.29289967 C498.45422929 514.22447842 500.87749483 522.03716131 503.55597204 529.82121998 C504.87483414 533.84714177 505.86306898 537.90879716 506.84503454 542.02654225 C507.88677525 546.09600226 509.16907809 550.07543391 510.45050329 554.07488209 C512.66670984 561.068569 514.64502895 568.12673788 516.63800329 575.1866985 C518.69064988 582.44600046 520.73917952 589.67954578 523.20050329 596.8116985 C526.85726324 607.42492097 529.66859019 618.30330781 532.63800329 629.1241985 C533.34467017 631.69894388 534.05156037 634.27361817 534.76105016 636.84758717 C535.16071918 638.2988775 535.55809912 639.75080153 535.95245641 641.2035442 C536.88792508 644.60802986 537.90387472 647.96483996 539.0401029 651.30803639 C540.57400483 655.88465651 541.97705092 660.49178919 543.34503454 665.12029225 C543.85471951 666.83190481 544.36448791 668.54349253 544.87433141 670.25505787 C545.65844001 672.89330977 546.44165449 675.53181948 547.22320837 678.17082936 C550.79984383 690.23728588 554.57996875 702.21067769 558.63800329 714.1241985 C560.7545802 709.44934377 562.31443814 705.00242247 563.51300329 699.991386 C563.67831045 699.3037064 563.84361761 698.6160268 564.01393408 697.90750843 C564.5633257 695.60655865 565.10152533 693.30319155 565.63800329 690.9991985 C565.82986212 690.18276875 566.02172094 689.366339 566.21939367 688.52516896 C571.85355996 664.49851666 576.71766598 640.30472797 581.63800329 616.1241985 C582.15875797 613.56868116 582.67959274 611.01318015 583.20050329 608.45769459 C585.27202537 598.29242137 587.34268474 588.12697653 589.40289587 577.95940357 C589.87313582 575.63932381 590.34343143 573.31925532 590.81378454 570.9991985 C591.15760168 569.30328572 591.15760168 569.30328572 591.50836462 567.57311207 C593.49579421 557.78783964 595.51831658 548.00994035 597.55787939 538.23540455 C599.22202989 530.23296212 600.79522674 522.21575598 602.32550329 514.1866985 C605.1196316 499.60729164 608.0832652 485.06470381 611.06177038 470.52199513 C614.46578647 453.89154906 617.81983718 437.25166212 621.14190954 420.60466725 C621.3389007 419.61784395 621.53589185 418.63102066 621.73885244 417.61429363 C623.53491102 408.61662358 625.33036378 399.61883375 627.12005895 390.61989552 C630.79178222 372.15811853 634.4625019 353.70173057 638.45909399 335.30704457 C641.21133993 322.5872624 643.72189805 309.81989878 646.25729173 297.05555969 C647.96584991 288.46113278 649.70337031 279.87259975 651.44269079 271.28435475 C651.77110265 269.66209157 652.09951246 268.03982797 652.42792028 266.41756397 C653.27829292 262.21760388 654.1291147 258.01773486 654.97999853 253.81787831 C655.90378155 249.25762031 656.82702031 244.69725212 657.75030798 240.13689381 C659.28980592 232.53317175 660.82952527 224.92949457 662.3694486 217.32585865 C665.36288085 202.54519219 668.3557358 187.7644089 671.34766954 172.98343903 C672.20334836 168.75619059 673.05912736 164.52896247 673.91513342 160.30178028 C678.12412016 139.51643699 682.32393807 118.72926945 686.51248068 97.93979603 C687.95024146 90.80439139 689.38886438 83.66916049 690.8274011 76.53391224 C692.22424355 69.60471048 693.61946984 62.67518578 695.01349252 55.74541622 C695.88552439 51.41240003 696.75904679 47.07968524 697.63293546 42.74704319 C698.0370339 40.74196618 698.44051913 38.73676547 698.8433122 36.73142582 C701.30132594 24.49575272 703.8789672 12.2956847 706.63800329 0.1241985 C728.72201487 0.10055429 750.80602428 0.083068 772.89004606 0.07238632 C783.15027448 0.06728887 793.41049483 0.06034725 803.67071813 0.04875904 C891.63884228 -0.04858451 891.63884228 -0.04858451 932.63800329 1.1241985 C934.28834881 1.16996151 935.93869878 1.21556403 937.58905309 1.2610088 C962.10015457 1.93985773 962.10015457 1.93985773 968.63800329 3.1241985 C968.02774687 11.47860892 966.51476085 19.604308 964.88800329 27.8116985 C964.61497202 29.2048302 964.34202399 30.59797823 964.06915563 31.99114186 C962.17781846 41.60143357 960.14865238 51.17739685 958.03644079 60.741386 C956.27104314 68.75437297 954.57906634 76.78276064 952.88800329 84.8116985 C952.71947851 85.61106831 952.55095373 86.41043812 952.37732214 87.23403126 C950.35270307 96.84564517 948.35766748 106.46282254 946.40362829 116.08904225 C946.21750479 117.00577717 946.03138128 117.92251209 945.83961767 118.86702687 C945.4620761 120.72691995 945.08453806 122.58681375 944.70700353 124.44670826 C944.42534841 125.83394093 944.42534841 125.83394093 944.13800329 127.2491985 C943.94902471 128.17998219 943.76004614 129.11076588 943.56534094 130.06975514 C940.92281531 143.06413111 938.14085122 156.01814195 935.21664709 168.95177418 C932.14693748 182.55475578 929.34107629 196.20645722 926.57550329 209.8741985 C923.64575115 224.34938689 920.66554845 238.80393399 917.46417516 253.22185475 C913.87278723 269.46189533 910.48931716 285.74638576 907.07599157 302.02458912 C904.3634591 314.95613907 901.62655809 327.88198437 898.85257238 340.80049855 C896.28069298 352.77892378 893.73654622 364.76314088 891.20050329 376.7491985 C890.96366827 377.86762135 890.72683325 378.9860442 890.4828214 380.13835865 C887.44936893 394.46746198 884.45982312 408.80425594 881.5366239 423.15621144 C879.26979709 434.26527164 876.82288789 445.32831559 874.32907385 456.38835865 C871.00812177 471.14904581 867.99204198 485.96692446 864.99734777 500.79674488 C862.11156084 515.07446347 859.09803906 529.31276323 855.88897985 543.52117115 C853.66739235 553.36434349 851.57808667 563.22063494 849.63800329 573.1241985 C847.52745065 583.89282184 845.23335689 594.60675302 842.82550329 605.3116985 C839.73162424 619.07789863 836.77636834 632.86777229 833.90600866 646.68224293 C831.43261738 658.58402398 828.92991346 670.47903091 826.38800329 682.366386 C826.17589995 683.3587775 826.17589995 683.3587775 825.9595117 684.37121731 C824.68576506 690.33081651 823.411352 696.29026974 822.13205236 702.2486797 C819.17618606 716.01589627 816.28652561 729.79083063 813.55597204 743.60466725 C811.66366489 753.17296761 809.65379539 762.69864402 807.45283788 772.20047718 C805.05797481 782.55720802 802.91494052 792.96478611 800.76300329 803.3741985 C800.3253543 805.48255221 799.88752612 807.59086872 799.44952673 809.69914967 C797.50234285 819.07913656 795.56542745 828.46118594 793.64581579 837.84685475 C793.06000065 840.71016105 792.47409044 843.57344785 791.88800329 846.4366985 C791.67677328 847.46913182 791.67677328 847.46913182 791.46127599 848.52242237 C789.40708752 858.54921757 787.22840633 868.54328847 784.97467321 878.52703053 C782.56787788 889.26942099 780.37946853 900.05394692 778.18616003 910.84142262 C775.77025062 922.71460418 773.26155213 934.56202736 770.64264196 946.39199024 C768.3991117 956.53427352 766.27111926 966.6954262 764.20050329 976.8741985 C761.39255155 990.67702376 758.39461128 1004.43218605 755.30230993 1018.17400318 C755.05805776 1019.26131733 755.05805776 1019.26131733 754.80887121 1020.37059742 C754.37004894 1022.32197235 753.92927579 1024.27290828 753.48834509 1026.22380787 C752.48082985 1030.84512954 751.56560775 1035.4861762 750.63800329 1040.1241985 C636.12800329 1040.1241985 521.61800329 1040.1241985 403.63800329 1040.1241985 C400.26181699 1031.12103504 400.26181699 1031.12103504 399.13922399 1027.60539967 C398.88469457 1026.81125157 398.63016515 1026.01710346 398.36792272 1025.19889027 C398.10255712 1024.36342167 397.83719152 1023.52795307 397.56378454 1022.66716725 C397.2788413 1021.77477848 396.99389807 1020.88238972 396.70032018 1019.96295887 C395.78106757 1017.08004011 394.86541388 1014.19599795 393.95050329 1011.3116985 C393.6370899 1010.32544483 393.32367651 1009.33919117 393.00076574 1008.32305104 C388.0213341 992.64389715 383.20327991 976.92948305 378.63800329 961.1241985 C377.47299753 957.10288189 376.30628408 953.08206484 375.13800329 949.0616985 C374.71370031 947.60050587 374.71370031 947.60050587 374.28082556 946.1097942 C371.49047664 936.54164111 368.55455474 927.01980047 365.60675329 917.4991985 C364.04964807 912.46901875 362.51637392 907.43208215 360.9932279 902.39153248 C357.98991578 892.45393877 354.88904411 882.55316974 351.65362829 872.68840748 C349.58615102 866.31641201 347.70653294 859.90333564 345.88409704 853.45818287 C342.89962883 842.96220539 339.77795842 832.5115227 336.61065954 822.069511 C336.05294183 820.22652443 335.49536362 818.38349565 334.93791479 816.54042774 C333.48719139 811.74536386 332.03452117 806.95089202 330.5814237 802.15654713 C329.12049094 797.3349528 327.66160114 792.51274042 326.20245641 787.69060475 C321.47806225 772.08026529 316.74884991 756.47142113 311.99461645 740.87013966 C308.64636474 729.8778596 305.33134808 718.87553503 302.01300329 707.8741985 C300.60300137 703.20097484 299.19279327 698.52781341 297.78253454 693.85466725 C297.43224691 692.69386143 297.08195928 691.53305561 296.72105688 690.33707386 C293.655575 680.17967583 290.58421073 670.02406214 287.51187414 659.86873585 C282.50706745 643.32503267 277.52262675 626.77544267 272.56524938 610.21746022 C271.71301607 607.3744386 270.85796488 604.53228899 270.00128454 601.69060475 C267.69278627 594.02835516 265.41185673 586.35996354 263.18927282 578.6722942 C259.95306971 567.48644688 256.57571743 556.35082735 253.09772009 545.23772389 C247.34466719 526.84795364 241.80662259 508.39176295 236.24490637 489.94344288 C230.56439618 471.1025103 224.86357262 452.26787669 219.14026159 433.43990284 C213.5236021 414.9603043 207.9194933 396.47697557 202.35946935 377.98024708 C201.7244184 375.86809868 201.08876268 373.75613199 200.4524259 371.64437062 C197.28357675 361.12474735 194.15285673 350.60122164 191.27502722 339.9976421 C189.62897803 333.95775176 187.7107691 328.02984412 185.63800329 322.1241985 C182.1014841 335.43093482 179.40833333 348.86682776 176.76300329 362.3741985 C174.20380771 375.40209718 171.5994368 388.41405691 168.78644079 401.3898235 C166.41746512 412.33422751 164.16948349 423.29861247 161.98175329 434.2804485 C161.82512087 435.06650219 161.66848844 435.85255589 161.50710958 436.66242939 C160.38130645 442.31580366 159.25925049 447.96991914 158.13800329 453.6241985 C156.85927745 460.07261871 155.57899225 466.52072329 154.29425329 472.9679485 C154.13691087 473.75768118 153.97956846 474.54741387 153.81745809 475.36107785 C151.8577837 485.18359225 149.83526651 494.98862084 147.70831579 504.77654225 C143.99798745 521.87079581 140.61895872 539.03126555 137.20669836 556.18697315 C135.13044336 566.62542576 133.04620156 577.06228582 130.96222204 587.4991985 C130.746632 588.5791918 130.53104196 589.65918511 130.30891889 590.77190548 C124.36183322 620.55930301 118.33738538 650.33105777 112.31329626 680.10295826 C106.29522749 709.84569139 100.28171373 739.58788115 94.53082556 769.38371998 C94.26000158 770.7856963 94.26000158 770.7856963 93.98370641 772.21599537 C93.82607824 773.03346241 93.66845007 773.85092945 93.50604528 774.69316822 C91.85315511 783.13669568 90.12787205 791.55673627 88.27472204 799.95867115 C85.79484207 811.29084858 83.47403464 822.65066209 81.20440954 834.02654225 C80.80005586 836.0469553 80.39558827 838.06734556 79.99101537 840.08771473 C79.15033784 844.28818601 78.31101883 848.48892568 77.47272009 852.68987232 C76.41874744 857.97106423 75.36131932 863.25155721 74.30294031 868.53186756 C70.31404442 888.43954973 66.36025418 908.35022026 62.65860265 928.31348377 C60.33731151 940.81714488 57.84427449 953.28405253 55.32550329 965.7491985 C51.80761958 983.18391087 48.35674385 1000.63066745 44.94586462 1018.08660084 C44.52630886 1020.23257695 44.10672542 1022.37854765 43.6871137 1024.52451283 C42.67042488 1029.72434579 41.65407589 1034.92424509 40.63800329 1040.1241985 C8.84932753 1040.14702965 -22.93934588 1040.16471775 -54.72802793 1040.17526383 C-58.48419136 1040.17651448 -62.24035478 1040.1778088 -65.99651819 1040.17913014 C-66.74427709 1040.17939245 -67.49203598 1040.17965476 -68.26245423 1040.17992502 C-80.35712981 1040.18427184 -92.45180061 1040.19215396 -104.54647336 1040.20135129 C-116.96423245 1040.21071529 -129.38198905 1040.21625992 -141.79975152 1040.21828699 C-149.45713064 1040.21965651 -157.11449627 1040.22397617 -164.77187123 1040.23211496 C-170.65159872 1040.23804458 -176.53131935 1040.23865051 -182.4110499 1040.23730618 C-184.81720347 1040.2375807 -187.22335756 1040.23956198 -189.62950808 1040.24340397 C-192.9231127 1040.24840389 -196.21666033 1040.24717364 -199.51026636 1040.24445301 C-200.45485313 1040.24736585 -201.3994399 1040.2502787 -202.3726505 1040.25327981 C-220.27268162 1040.21351359 -220.27268162 1040.21351359 -222.36199671 1038.1241985 C-222.21163327 1030.37801586 -220.64813034 1022.77791525 -219.06902796 1015.22185475 C-218.84051646 1014.1052396 -218.61200495 1012.98862446 -218.37656885 1011.8381725 C-217.64814589 1008.2865024 -216.91134782 1004.73662842 -216.17449671 1001.1866985 C-215.69936398 998.87235275 -215.22475106 996.55790023 -214.75066859 994.24333912 C-211.38411254 977.84956196 -207.89371394 961.48307686 -204.36199671 945.1241985 C-204.19165541 944.33506188 -204.02131411 943.54592526 -203.84581095 942.73287541 C-202.02014559 934.27570153 -200.19324287 925.818795 -198.36593348 917.36197621 C-188.55265812 871.94566807 -178.79692186 826.51774962 -169.1486178 781.06609303 C-168.95592121 780.15835542 -168.76322462 779.25061781 -168.56468874 778.315373 C-168.27817226 776.96566556 -168.27817226 776.96566556 -167.98586756 775.58869129 C-167.79647986 774.69654486 -167.60709215 773.80439842 -167.41196543 772.88521725 C-167.03364923 771.10298332 -166.65537591 769.3207403 -166.2771464 767.53848797 C-163.45115994 754.22358586 -160.605021 740.91309562 -157.74871546 727.60466725 C-154.09700028 710.58898704 -150.48845197 693.5645454 -146.90276819 676.53484303 C-142.06423028 653.55740807 -137.1903606 630.58849366 -132.21505457 607.64022022 C-129.36337768 594.48121311 -126.54896034 581.31480512 -123.77215296 568.1398235 C-123.61605051 567.39919415 -123.45994807 566.6585648 -123.29911524 565.89549214 C-122.01218043 559.78865262 -120.72621567 553.68160882 -119.44026667 547.57456166 C-114.79457761 525.51474307 -110.06865311 503.47499654 -105.23672205 481.45507008 C-101.89570877 466.22508321 -98.62899625 450.98276503 -95.46136194 435.71581227 C-93.04826872 424.09163709 -90.58729642 412.4786034 -88.08074671 400.8741985 C-87.93590279 400.20360716 -87.79105887 399.53301583 -87.64182574 398.84210354 C-86.7427326 394.68045634 -85.84290174 390.5189688 -84.94294077 386.3575092 C-80.34796599 365.11009024 -75.81639693 343.85227823 -71.42449671 322.5616985 C-68.42708058 308.03358397 -65.39604871 293.51826942 -62.1930514 279.03386647 C-59.11868027 265.09944855 -56.14717389 251.14310643 -53.17449671 237.1866985 C-52.96505678 236.20352083 -52.96505678 236.20352083 -52.75138575 235.200481 C-47.29701457 209.59298083 -41.89994249 183.97351409 -36.51305872 158.35173756 C-34.0306097 146.54558227 -31.54366417 134.74038397 -29.04949671 122.9366985 C-28.83265223 121.91022206 -28.61580775 120.88374562 -28.39239222 119.82616383 C-25.45756642 105.94105668 -22.49433704 92.06216753 -19.51434046 78.1866985 C-19.17802458 76.62018696 -18.8417158 75.05367389 -18.50541407 73.48715931 C-17.02092005 66.57335072 -15.53543573 59.65976157 -14.04539877 52.74714524 C-13.27717913 49.18171462 -12.51072858 45.61590512 -11.74480921 42.04997975 C-11.59792721 41.36682509 -11.45104521 40.68367043 -11.29971224 39.97981411 C-9.04408322 29.47635538 -6.89041894 18.95482771 -4.86471277 8.40430409 C-4.6793194 7.45230625 -4.49392603 6.50030842 -4.30291468 5.51946217 C-4.06458414 4.27431088 -4.06458414 4.27431088 -3.82143885 3.00400501 C-3.14306303 0.2284318 -2.91028598 0.15302864 0 0 Z " fill="#FEFEFE" transform="translate(470.36199671030045,277.8758015036583)"/>
<path d="M0 0 C92.73 0 185.46 0 281 0 C279.68 5.94 278.36 11.88 277 18 C276.23761022 21.55726379 275.47982187 25.11427604 274.73828125 28.67578125 C274.54645264 29.59340744 274.35462402 30.51103363 274.15698242 31.45646667 C273.54067586 34.40817164 272.92643517 37.36030096 272.3125 40.3125 C272.09790131 41.34213867 271.88330261 42.37177734 271.66220093 43.43261719 C268.27006081 59.71563874 264.98428157 76.01809638 261.75100708 92.33331299 C259.11560395 105.61782252 256.32658253 118.85751895 253.38427734 132.07714844 C251.36951127 141.17251304 249.55795138 150.29245584 247.83618164 159.44726562 C246.39755949 167.05299537 244.82808244 174.62289387 243.1875 182.1875 C240.78941237 193.25804915 238.46243107 204.34105967 236.1875 215.4375 C236.02150299 216.24687012 235.85550598 217.05624023 235.68447876 217.89013672 C233.66243765 227.75994447 231.66811378 237.63507912 229.69921875 247.515625 C229.50516953 248.48891251 229.3111203 249.46220001 229.1111908 250.46498108 C228.17780613 255.14909621 227.24702344 259.83370229 226.32104492 264.51928711 C224.36891129 274.36434623 222.3278261 284.18594754 220.20703125 293.99609375 C216.58497781 310.76912416 213.20028736 327.58918117 209.80944824 344.41015625 C208.48608368 350.97399245 207.16039409 357.53735856 205.8337307 364.10052872 C205.37936552 366.35005551 204.92609918 368.59980147 204.47297668 370.84957886 C204.18946035 372.25373077 203.90590807 373.65787542 203.62231445 375.06201172 C203.38060013 376.26107147 203.1388858 377.46013123 202.8898468 378.69552612 C201.64054334 384.80690428 200.31277115 390.90201574 199 397 C228.89318996 396.89427022 258.78636235 396.78433688 288.67951629 396.66888306 C292.24378223 396.65512064 295.8080483 396.64139247 299.37231445 396.62768555 C300.08161615 396.62495724 300.79091786 396.62222894 301.52171355 396.61941796 C312.86563661 396.5758648 324.20956786 396.5350585 335.55350495 396.49534739 C347.27540128 396.45424899 358.99728305 396.41001375 370.71915764 396.36312145 C377.26857711 396.33700433 383.81799639 396.3122314 390.36743355 396.29092598 C417.23553741 396.20256732 444.09667019 396.01144145 470.96069336 395.51538086 C472.09797225 395.49440311 473.23525114 395.47342535 474.40699303 395.45181191 C491.94327967 395.12229777 509.47328983 394.67452133 527 394 C527.08999268 393.18257324 527.17998535 392.36514648 527.27270508 391.52294922 C528.58337314 380.67954705 530.72722434 370.0730569 532.993927 359.3934021 C533.96601497 354.81252256 534.92570463 350.22906824 535.88615417 345.64573669 C536.41147819 343.13891452 536.93738157 340.63221369 537.46382141 338.12562561 C539.57252628 328.08001968 541.64795295 318.02774329 543.7109375 307.97265625 C543.86830194 307.20566469 544.02566639 306.43867313 544.18779945 305.64843941 C544.98985209 301.73847319 545.79144849 297.8284136 546.59280396 293.91830444 C548.20183938 286.0675304 549.81319646 278.2172332 551.42578125 270.3671875 C551.58148779 269.60919798 551.73719433 268.85120846 551.89761925 268.07024956 C554.65601443 254.64560633 557.44438892 241.22735727 560.25 227.8125 C563.93622449 210.18666301 567.54776458 192.54635904 571.13046265 174.89920044 C574.33589096 159.11275205 577.58376949 143.33579704 580.8711853 127.56622314 C584.69888348 109.20482949 588.4619472 90.83248126 592.125 72.4375 C592.32818848 71.41715668 592.53137695 70.39681335 592.74072266 69.34555054 C592.9422998 68.333284 593.14387695 67.32101746 593.3515625 66.27807617 C596.02645737 52.84814029 598.72436591 39.42317197 601.46209717 26.00588989 C601.85913385 24.05947378 602.25550727 22.11292225 602.65118408 20.16622925 C603.1939222 17.49714212 603.73912823 14.82857202 604.28515625 12.16015625 C604.44507553 11.37210602 604.60499481 10.58405579 604.76976013 9.77212524 C605.38457822 6.78046023 606.03310512 3.90068463 607 1 C655.76043996 -0.04959681 704.511201 -0.15735838 753.28127575 -0.12856841 C761.55617787 -0.12420299 769.8310649 -0.12735141 778.10596609 -0.1321975 C786.23318461 -0.13676048 794.36039667 -0.13736586 802.48761606 -0.13475883 C807.27952335 -0.13322285 812.07142044 -0.13292819 816.86332703 -0.13629532 C878.65260129 -0.17369936 878.65260129 -0.17369936 887 4 C885.49102439 14.15788562 883.31483233 24.15752344 881.14712524 34.19064331 C877.24773797 52.24882437 873.47900169 70.33070127 869.8125 88.4375 C867.1359863 101.64721245 864.42486833 114.84285053 861.5 128 C858.74126697 140.43235841 856.15663133 152.894576 853.625 165.375 C849.16068669 187.38028449 844.62304951 209.36985173 840.06168747 231.35519028 C839.49954216 234.06470677 838.93752022 236.77424883 838.3755188 239.48379517 C833.92135196 260.95692825 829.45436436 282.42733773 824.97106934 303.89440918 C821.81371889 319.01874335 818.72041785 334.15560734 815.64361572 349.29650879 C811.66174129 368.87898992 807.57662788 388.43941005 803.47969437 407.99805069 C799.49331067 427.02925656 795.53210353 446.06486114 791.65460205 465.11862183 C788.73522209 479.46252221 785.74871154 493.79154986 782.73599243 508.11611938 C780.385907 519.29481895 778.08678203 530.48058959 775.875 541.6875 C773.82301372 552.0746755 771.61229968 562.41790318 769.31921387 572.7543335 C766.21115239 586.7935244 763.34315067 600.87955225 760.48413086 614.97125244 C757.45773954 629.88781879 754.38459935 644.7932961 751.25 659.6875 C748.72703755 671.67549434 746.24693098 683.66864974 743.875 695.6875 C741.76292522 706.38654915 739.48044671 717.04063593 737.11907959 727.68661499 C734.77588928 738.26545374 732.59649602 748.8696769 730.5 759.5 C728.13949658 771.46897767 725.63783668 783.39641319 722.99511719 795.30615234 C720.87973484 804.84882503 718.88791423 814.40959681 717 824 C715.02123596 834.051073 712.911861 844.06298622 710.6875 854.0625 C707.77163854 867.17237094 705.10723738 880.32552868 702.5 893.5 C699.95438185 906.3625974 697.35569391 919.20235334 694.5 932 C691.4091391 945.85502156 688.61503079 959.76172688 685.85565186 973.68612671 C683.30965242 986.53128786 680.68352713 999.35061968 677.8996582 1012.14648438 C676.10813784 1020.40456463 674.47296967 1028.67901343 673 1037 C670.13536963 1037.95487679 668.11560714 1038.18322726 665.12844849 1038.29690552 C664.14136335 1038.33598463 663.15427822 1038.37506374 662.13728142 1038.41532707 C661.067335 1038.45245371 659.99738857 1038.48958035 658.89501953 1038.52783203 C657.77588228 1038.56918337 656.65674503 1038.61053471 655.50369453 1038.65313911 C643.5647174 1039.0783645 631.62428966 1039.35108295 619.6796875 1039.5546875 C618.47774624 1039.57562344 617.27580498 1039.59655937 616.03744125 1039.61812973 C581.14634772 1040.20704466 546.25095191 1040.15163253 511.3559835 1040.12856936 C503.9625517 1040.12419762 496.56913678 1040.12735438 489.17570603 1040.1321975 C481.90888932 1040.13676081 474.64207982 1040.13736584 467.37526214 1040.13475883 C463.09308782 1040.13322361 458.8109249 1040.13292605 454.52875137 1040.13629532 C406.08233482 1040.169137 406.08233482 1040.169137 394 1037 C393.67 1036.67 393.34 1036.34 393 1036 C393.18737773 1029.41966245 394.4856943 1022.9439592 395.86328125 1016.52734375 C396.05115204 1015.6313446 396.23902283 1014.73534546 396.43258667 1013.81219482 C397.05432419 1010.85290725 397.68345185 1007.8952414 398.3125 1004.9375 C398.75676907 1002.82863776 399.20052337 1000.71966702 399.64379883 998.6105957 C400.83908678 992.92974517 402.04062932 987.25023595 403.24377441 981.57104492 C405.30564991 971.83446611 407.35965078 962.09622052 409.41333008 952.35791016 C409.93014231 949.90765627 410.44723291 947.45746109 410.96459961 945.00732422 C414.1393648 929.96811702 417.25333726 914.9203069 420.22598267 899.83987427 C422.28178641 889.42032721 424.50234143 879.04464075 426.80813599 868.67758179 C429.45838817 856.73448313 431.87595456 844.7507518 434.25 832.75 C437.5365049 816.13788119 440.96947862 799.56193507 444.5 783 C447.98351004 766.64396455 451.38611101 750.27699822 454.63265991 733.87231445 C457.43349365 719.72771813 460.30168601 705.59770946 463.19921875 691.47265625 C463.38693848 690.55739103 463.5746582 689.64212582 463.76806641 688.69912529 C465.4923078 680.29340826 467.21797297 671.88798455 468.9475708 663.48336792 C473.78688567 640.07198841 473.78688567 640.07198841 478.44921875 616.625 C478.60034622 615.86010254 478.75147369 615.09520508 478.90718079 614.30712891 C479.63972489 610.45940255 480.16662127 606.63956995 480.5428009 602.73974609 C480.62943402 601.84919525 480.71606714 600.95864441 480.80532551 600.04110718 C480.90168938 599.03075912 480.90168938 599.03075912 481 598 C460.81771196 596.53111121 440.75848816 595.69231434 420.51480412 595.68332577 C416.94203132 595.67952696 413.369301 595.66432486 409.79655457 595.65071106 C403.64911884 595.62875266 397.50169885 595.61355379 391.35423279 595.60334396 C382.46673203 595.58857305 373.57928637 595.56298911 364.69181854 595.53501268 C350.26217116 595.48987287 335.8325157 595.45312494 321.40283203 595.421875 C307.41030464 595.39155333 293.41779686 595.3571422 279.42529297 595.31738281 C278.55851042 595.31492126 277.69172786 595.31245972 276.79867917 595.30992357 C272.44900641 595.29754635 268.09933387 595.28509032 263.74966145 595.27259517 C227.83313482 595.16952039 191.91658474 595.08015735 156 595 C155.86993435 595.93700493 155.7398687 596.87400986 155.60586166 597.83940887 C155.43136616 599.08152382 155.25687065 600.32363876 155.0770874 601.60339355 C154.90577175 602.82914848 154.7344561 604.05490341 154.55794907 605.31780243 C153.71905387 610.85411035 152.57241268 616.30962688 151.390625 621.78125 C151.1432811 622.94572159 150.89593719 624.11019318 150.64109802 625.30995178 C150.11722732 627.77444764 149.59135 630.23851773 149.06356812 632.70217896 C147.69073721 639.11069718 146.33222926 645.52225211 144.97265625 651.93359375 C144.70826248 653.17866196 144.44386871 654.42373016 144.17146301 655.70652771 C142.27653641 664.64609443 140.44628834 673.59519204 138.6875 682.5625 C136.83473147 691.98872611 134.83614542 701.37273181 132.75 710.75 C129.12489918 727.05729429 125.87104266 743.43588908 122.63964844 759.82519531 C120.48722153 770.71925037 118.25244899 781.58822264 115.87225342 792.43489075 C113.54865489 803.02444151 111.33263143 813.63576075 109.125 824.25 C108.80201431 825.79989624 108.80201431 825.79989624 108.47250366 827.38110352 C106.29454034 837.8356482 104.12570796 848.29163619 102.04296875 858.765625 C101.8929541 859.51990784 101.74293945 860.27419067 101.58837891 861.05133057 C100.91846718 864.42667637 100.25356195 867.80284597 99.59619141 871.18066406 C98.13335145 878.61668597 96.56304967 886.02285927 94.92658997 893.42266846 C91.11415751 910.66602148 87.48051372 927.94504201 83.8828125 945.234375 C83.67872619 946.21497705 83.67872619 946.21497705 83.47051692 947.21538925 C81.64091277 956.00696741 79.81432756 964.79917165 77.98858643 973.59155273 C75.8392858 983.94179439 73.68783662 994.29158965 71.53522003 1004.64114213 C70.60420345 1009.11777762 69.67463038 1013.59471146 68.74539185 1018.07171631 C68.26275156 1020.39384698 67.78007729 1022.71597059 67.29736328 1025.03808594 C66.96859947 1026.62423706 66.96859947 1026.62423706 66.63319397 1028.24243164 C66.43158157 1029.21138367 66.22996918 1030.18033569 66.02224731 1031.1786499 C65.7607297 1032.43815775 65.7607297 1032.43815775 65.49392891 1033.7231102 C65.0373121 1035.82800046 64.5273035 1037.91194358 64 1040 C32.72968079 1040.0228657 1.45936382 1040.04053698 -29.81096177 1040.05106533 C-33.51175122 1040.05231587 -37.21254065 1040.05361021 -40.91333008 1040.05493164 C-42.01836293 1040.05532511 -42.01836293 1040.05532511 -43.14571967 1040.05572652 C-55.03776172 1040.06006505 -66.92979889 1040.06794252 -78.82183806 1040.0771528 C-91.04527364 1040.08654002 -103.26870668 1040.09206629 -115.49214572 1040.09408849 C-123.02052199 1040.09545324 -130.54888445 1040.09974653 -138.07725646 1040.10791647 C-143.8726384 1040.11388122 -149.66801169 1040.11444624 -155.46339607 1040.11310768 C-157.82426284 1040.11338055 -160.18513018 1040.11533939 -162.5459938 1040.11920547 C-173.26752833 1040.13588681 -183.96900564 1040.103669 -194.67875671 1039.55540466 C-195.81877914 1039.49721136 -195.81877914 1039.49721136 -196.98183233 1039.43784243 C-209.59916328 1038.70041836 -209.59916328 1038.70041836 -215 1036 C-214.34290934 1030.11815522 -213.3362305 1024.40309466 -212.1015625 1018.6171875 C-211.91132004 1017.71178726 -211.72107758 1016.80638702 -211.52507019 1015.87355042 C-211.11202006 1013.90873412 -210.69757681 1011.94421029 -210.28189087 1009.97994995 C-209.13518085 1004.559754 -207.99941838 999.13726412 -206.86328125 993.71484375 C-206.5066465 992.01410454 -206.5066465 992.01410454 -206.14280701 990.27900696 C-203.87245462 979.43202355 -201.67089384 968.57151786 -199.47442627 957.7093811 C-194.86535768 934.92689742 -190.09895461 912.18035562 -185.2736702 889.44297028 C-180.17547407 865.41764614 -175.17433291 841.37405066 -170.25 817.3125 C-166.04289854 796.75694168 -161.80620185 776.2094876 -157.4375 755.6875 C-153.23302851 735.93278686 -149.12779549 716.15871483 -145.0625 696.375 C-144.76077336 694.90691108 -144.45904606 693.43882229 -144.15731812 691.97073364 C-142.95939265 686.14161351 -141.76183736 680.31241738 -140.56468201 674.48313904 C-137.80144926 661.0287056 -135.03083076 647.5758085 -132.25 634.125 C-132.01779755 633.00177338 -131.78559509 631.87854675 -131.5463562 630.72128296 C-125.85299607 603.19658945 -120.08411832 575.68761772 -114.31738281 548.17822266 C-108.93304001 522.49090957 -103.59788313 496.7939773 -98.3202095 471.08451462 C-93.0724293 445.52099338 -87.80958585 419.96212024 -82.375 394.4375 C-78.46289314 376.06145573 -74.66773852 357.66381377 -70.9375 339.25 C-67.41577556 321.86632024 -63.87826693 304.48678659 -60.25 287.125 C-60.05354889 286.18491089 -59.85709778 285.24482178 -59.6546936 284.27624512 C-58.81532166 280.26033368 -57.97579152 276.24445537 -57.13597107 272.2286377 C-55.2580753 263.24503387 -53.38960471 254.25948311 -51.5234375 245.2734375 C-51.36894135 244.52951878 -51.21444519 243.78560005 -51.05526733 243.01913834 C-50.2463721 239.12408069 -49.43756463 235.22900482 -48.62878418 231.33392334 C-43.78837658 208.02319756 -38.94216627 184.71368522 -34.0859375 161.40625 C-33.87779985 160.4072744 -33.66966221 159.4082988 -33.45521736 158.37905121 C-31.33569142 148.20646661 -29.21565701 138.03398815 -27.09475422 127.86169052 C-23.00231819 108.23292629 -18.91400299 88.6033498 -14.84986496 68.96870422 C-14.28415837 66.2360432 -13.71814324 63.50344628 -13.15200806 60.77087402 C-12.96951822 59.89001884 -12.78702839 59.00916367 -12.59900856 58.10161591 C-12.23718148 56.35513842 -11.8753436 54.60866317 -11.51349449 52.86219025 C-10.48136495 47.87946123 -9.45144788 42.89628155 -8.42325497 37.9127388 C-7.79391862 34.86487931 -7.16257057 31.817439 -6.53070259 28.77010345 C-6.24350225 27.38284096 -5.95714755 25.99540304 -5.67176628 24.6077652 C-5.28079037 22.70711141 -4.8864204 20.80715679 -4.49194336 18.90722656 C-4.27469101 17.85553284 -4.05743866 16.80383911 -3.83360291 15.72027588 C-2.65428836 10.4571279 -1.30815338 5.23261351 0 0 Z " fill="#FEFEFE" transform="translate(1542,278)"/>
<path d="M0 0 C4.90051582 0.0113614 9.8008133 0.00462305 14.7013216 -0.0068903 C51.40129645 -0.07955245 88.07333608 1.08581382 124.64501953 4.26074219 C125.83611328 4.35967773 127.02720703 4.45861328 128.25439453 4.56054688 C158.93187615 7.12489398 189.56915293 10.56236664 219.64501953 17.26074219 C221.41834483 17.64277378 223.19178107 18.02429084 224.96533203 18.40527344 C230.54227591 19.62080739 236.09552809 20.92594299 241.64501953 22.26074219 C242.78116699 22.53225098 243.91731445 22.80375977 245.08789062 23.08349609 C260.49563784 26.80345746 275.6560734 31.0354141 290.70751953 36.01074219 C291.77360947 36.35918182 291.77360947 36.35918182 292.86123657 36.71466064 C294.88805967 37.38058605 296.90973807 38.06009205 298.93017578 38.74511719 C300.08396729 39.1340918 301.23775879 39.52306641 302.42651367 39.92382812 C306.01641477 41.41501362 308.75212318 42.63417077 311.64501953 45.26074219 C312.51820067 51.27866556 311.04942748 56.08087853 309.00439453 61.70996094 C308.72600739 62.50878189 308.44762024 63.30760284 308.16079712 64.13063049 C307.56127914 65.84736622 306.95630538 67.56220472 306.34637451 69.27526855 C304.72038838 73.84371898 303.1351793 78.42636061 301.54345703 83.00683594 C301.21741486 83.94137604 300.89137268 84.87591614 300.55545044 85.83877563 C297.24368566 95.35324196 294.11171638 104.92289271 291.02001953 114.51074219 C290.77489624 115.26825775 290.52977295 116.02577332 290.27722168 116.8062439 C288.07771198 123.60390976 285.90371306 130.40669481 283.81567383 137.23950195 C281.4239678 145.02767552 278.91034677 152.7749263 276.39111328 160.52246094 C275.88500494 162.08149808 275.37899015 163.64056559 274.87306213 165.19966125 C273.54491928 169.29177406 272.2156287 173.38351307 270.88604736 177.47515869 C268.79155436 183.92155155 266.69902296 190.3685817 264.60603714 196.81546402 C263.83139951 199.20137923 263.05662255 201.58724916 262.28182983 203.97311401 C257.05670257 220.06483052 251.84907349 236.16220003 246.64501953 252.26074219 C242.13163232 251.65939962 238.21038449 250.91059001 233.97705078 249.22167969 C232.92936523 248.80958252 231.88167969 248.39748535 230.80224609 247.97290039 C229.69848633 247.53163818 228.59472656 247.09037598 227.45751953 246.63574219 C225.11593566 245.71816956 222.77347819 244.80282334 220.43017578 243.88964844 C219.27662598 243.43992676 218.12307617 242.99020508 216.93457031 242.52685547 C210.04262908 239.87422023 203.07969658 237.43915595 196.08154297 235.08300781 C194.45247726 234.53323894 192.82551282 233.97720531 191.20068359 233.41503906 C154.85140381 220.8748946 116.85826413 215.1397837 78.83251953 210.44824219 C77.98269501 210.34283112 77.13287048 210.23742004 76.2572937 210.1288147 C55.66015223 207.59823359 35.26314897 206.98087662 14.52001953 206.94824219 C13.84111916 206.94694431 13.16221878 206.94564644 12.46274567 206.94430923 C-42.50230249 206.86492995 -112.38882279 207.30843972 -156.35498047 245.26074219 C-157.16708984 245.87175781 -157.97919922 246.48277344 -158.81591797 247.11230469 C-170.83813484 257.28494973 -178.0029714 271.96175471 -180.35498047 287.26074219 C-180.69607075 291.96172942 -180.78987295 296.61827464 -180.74609375 301.32958984 C-180.72993188 303.39194246 -180.74609112 305.45235245 -180.76513672 307.51464844 C-180.80058672 329.11159236 -172.39269296 343.93684337 -157.72607422 358.95214844 C-127.29510278 387.9318664 -82.89088131 403.41649336 -44.53132629 418.78031921 C-23.57892491 427.1765837 -2.72511542 435.79500543 17.87548828 445.02441406 C20.56432515 446.22471994 23.2597331 447.40883691 25.95751953 448.58886719 C36.59770326 453.26729912 46.92614642 458.36969002 57.14404297 463.90869141 C59.77587727 465.33148508 62.41698893 466.73600715 65.05908203 468.13964844 C77.27045387 474.66523416 89.09083645 481.63124843 100.64501953 489.26074219 C101.70825439 489.96263672 101.70825439 489.96263672 102.79296875 490.67871094 C115.67163667 499.23851442 127.84910827 508.46190216 139.18798828 518.98730469 C141.36601606 521.00258635 143.5811124 522.95346655 145.83251953 524.88574219 C153.6178194 531.68996768 160.23836131 539.15414148 166.64501953 547.26074219 C167.0554248 547.7729834 167.46583008 548.28522461 167.88867188 548.81298828 C174.12787342 556.60898713 179.61773172 564.61302011 184.64501953 573.26074219 C185.00450684 573.87288574 185.36399414 574.4850293 185.734375 575.11572266 C211.50578668 619.13396465 219.06166289 663.79202435 218.90576172 714.23120117 C218.89429443 717.97127709 218.90121187 721.71107086 218.91261864 725.45113754 C218.96871091 746.94633239 217.71923394 767.52954781 213.52001953 788.63574219 C213.29575287 789.77897949 213.29575287 789.77897949 213.06695557 790.9453125 C210.92186588 801.82045768 208.44822721 812.56977044 205.52001953 823.26074219 C205.20790527 824.40333496 204.89579102 825.54592773 204.57421875 826.72314453 C202.45529651 834.15759134 199.75022838 841.1865825 196.64501953 848.26074219 C196.00433347 849.76462243 195.36370297 851.26852634 194.72314453 852.77246094 C175.97748932 895.88442974 146.69369264 934.95608842 110.64501953 965.26074219 C109.77619141 966.00710938 108.90736328 966.75347656 108.01220703 967.52246094 C94.3974238 979.08595016 79.87554872 988.94852176 64.64501953 998.26074219 C63.55189453 998.93105469 62.45876953 999.60136719 61.33251953 1000.29199219 C53.3335062 1005.07401103 45.04366197 1009.23746089 36.64501953 1013.26074219 C35.33742676 1013.88770996 35.33742676 1013.88770996 34.00341797 1014.52734375 C11.7291454 1025.13303187 -11.14893554 1033.88601973 -34.64257812 1041.39208984 C-37.07636385 1042.17151465 -39.50280378 1042.97043065 -41.92919922 1043.77246094 C-66.0446867 1051.54330039 -91.44588039 1056.72404955 -116.35498047 1061.26074219 C-117.88469482 1061.54594727 -117.88469482 1061.54594727 -119.4453125 1061.83691406 C-137.82738348 1065.24424467 -156.22389986 1067.77307177 -174.79345703 1069.85839844 C-178.48067994 1070.2749424 -182.16426718 1070.71592896 -185.84667969 1071.17285156 C-206.24987915 1073.41295366 -226.84428096 1073.4218085 -247.34716797 1073.42871094 C-249.67465228 1073.43194372 -252.00213642 1073.43530909 -254.32962036 1073.438797 C-259.17841052 1073.44472677 -264.02718304 1073.44664358 -268.87597656 1073.44604492 C-273.74645746 1073.44596416 -278.61684329 1073.45283706 -283.48730469 1073.46655273 C-307.75922573 1073.53378902 -332.00029066 1073.50590038 -356.24951172 1072.35058594 C-357.10733624 1072.31003775 -357.96516075 1072.26948956 -358.84897995 1072.22771263 C-417.70511311 1069.36009767 -476.12210703 1056.7013263 -533.35498047 1043.26074219 C-535.24120117 1042.8239917 -535.24120117 1042.8239917 -537.16552734 1042.37841797 C-549.73834991 1039.46415599 -562.24325378 1036.52836064 -574.5012207 1032.46630859 C-581.57920031 1030.12657129 -588.75479707 1028.20683541 -595.97387695 1026.35229492 C-600.77656731 1025.08936032 -605.01722188 1023.69132097 -609.35498047 1021.26074219 C-605.78480557 1004.74036765 -600.720885 988.74338645 -595.63232422 972.63964844 C-594.90823637 970.34715741 -594.1842823 968.05462431 -593.46054077 965.76202393 C-592.97388179 964.22071015 -592.48692342 962.67949086 -591.99966431 961.1383667 C-589.14582799 952.10513036 -586.3767484 943.070247 -583.91821289 933.91992188 C-582.42252229 928.38416313 -580.64619047 922.97330148 -578.80029297 917.54589844 C-574.37652785 904.51192953 -570.17060516 891.39650225 -566.47998047 878.13574219 C-560.2826263 855.93991284 -552.70077545 834.0956349 -545.35498047 812.26074219 C-539.2657764 812.77428952 -534.53832815 814.72914205 -529.04248047 817.32324219 C-527.24694849 818.14755011 -525.45137479 818.97176717 -523.65576172 819.79589844 C-521.13184831 820.966758 -518.6097613 822.14123641 -516.09082031 823.32275391 C-446.19233564 856.0210824 -362.65664145 867.45138562 -286.11376953 867.44604492 C-282.62373627 867.44823044 -279.13402073 867.46646428 -275.64404297 867.48535156 C-261.1066171 867.52222059 -246.80643841 866.83258209 -232.35498047 865.26074219 C-231.62013428 865.18268341 -230.88528809 865.10462463 -230.12817383 865.02420044 C-205.05352474 862.33017789 -180.30397969 858.33045711 -156.35498047 850.26074219 C-155.6455127 850.02242676 -154.93604492 849.78411133 -154.20507812 849.53857422 C-134.09592248 842.66247946 -114.19124418 832.56065196 -98.35498047 818.26074219 C-97.42943359 817.42929688 -96.50388672 816.59785156 -95.55029297 815.74121094 C-79.24648831 800.3180827 -69.89060101 779.67073235 -68.97003174 757.18449402 C-68.90439096 754.42521359 -68.89180102 751.66888713 -68.90893555 748.90893555 C-68.91746657 746.82663413 -68.8884907 744.74707419 -68.85693359 742.66503906 C-68.78851352 729.84883925 -71.00538362 717.21415944 -77.16748047 705.82324219 C-77.51584961 705.1584082 -77.86421875 704.49357422 -78.22314453 703.80859375 C-81.08527202 698.48279691 -84.25593767 693.72520353 -88.35498047 689.26074219 C-89.20576172 688.33003906 -90.05654297 687.39933594 -90.93310547 686.44042969 C-98.3049105 678.62682127 -106.46878911 672.2618356 -115.35498047 666.26074219 C-115.96792969 665.84614746 -116.58087891 665.43155273 -117.21240234 665.00439453 C-144.2440783 646.96182351 -174.91825074 633.95992646 -204.89013672 621.6105957 C-210.40595159 619.33745371 -215.89386324 617.04424129 -221.31201172 614.54589844 C-225.28106955 612.7185942 -229.21495921 611.15401857 -233.35498047 609.76074219 C-238.60187199 607.93375058 -243.59814736 605.84845252 -248.62451172 603.49121094 C-251.41766979 602.23249164 -254.23430576 601.14270924 -257.10498047 600.07324219 C-275.99578985 592.90008108 -294.21850036 584.13514579 -312.35498047 575.26074219 C-313.25909668 574.8222998 -314.16321289 574.38385742 -315.09472656 573.93212891 C-343.20880286 560.29231477 -370.83448123 543.99255028 -394.35498047 523.26074219 C-394.90138184 522.78056641 -395.4477832 522.30039062 -396.01074219 521.80566406 C-399.5263253 518.6934044 -402.95536324 515.49986246 -406.35498047 512.26074219 C-407.62921875 511.06578125 -407.62921875 511.06578125 -408.92919922 509.84667969 C-418.70159511 500.42713325 -426.80677392 489.50904999 -434.35498047 478.26074219 C-435.14388672 477.14699219 -435.14388672 477.14699219 -435.94873047 476.01074219 C-446.59156246 460.34770643 -453.71010942 442.23888141 -459.35498047 424.26074219 C-459.58910645 423.54740723 -459.82323242 422.83407227 -460.06445312 422.09912109 C-468.3591226 396.67119991 -469.57468514 369.49621897 -469.54248047 342.94824219 C-469.54187622 342.02521301 -469.54127197 341.10218384 -469.54064941 340.15118408 C-469.49932454 316.82127541 -467.79829032 294.19947184 -463.35498047 271.26074219 C-463.16532715 270.27412598 -462.97567383 269.28750977 -462.78027344 268.27099609 C-458.54521494 246.63652297 -451.41490701 227.32017485 -442.35498047 207.26074219 C-441.6999994 205.7828923 -441.04504863 204.30502898 -440.39013672 202.82714844 C-423.78314992 165.93003247 -399.32209781 129.65727477 -367.22216797 104.51074219 C-365.06250373 102.8159648 -362.95714807 101.09547575 -360.86279297 99.32324219 C-320.56690772 65.42936183 -271.39157992 42.44958833 -221.35498047 27.26074219 C-219.68040564 26.73630798 -218.00591746 26.21159692 -216.33154297 25.68652344 C-179.47755379 14.39870351 -140.9078521 7.77151548 -102.60498047 4.01074219 C-101.83744446 3.93342865 -101.06990845 3.85611511 -100.27911377 3.77645874 C-66.96262627 0.48835861 -33.45145508 -0.07807959 0 0 Z " fill="#FEFEFE" transform="translate(2916.35498046875,260.7392578125)"/>
<path d="M0 0 C0 3 0 3 -2.625 5.91796875 C-3.74249406 7.01550756 -4.86785643 8.10507895 -6 9.1875 C-6.57234375 9.74630859 -7.1446875 10.30511719 -7.734375 10.88085938 C-9.14962788 12.26073093 -10.57397155 13.63126734 -12 15 C-12.66 14.67 -13.32 14.34 -14 14 C-9.61932717 8.89662734 -5.32423478 4.12628195 0 0 Z " fill="#0C1C26" transform="translate(2763,502)"/>
</svg>
