<?xml version="1.0" encoding="UTF-8"?>
<svg version="1.1" xmlns="http://www.w3.org/2000/svg" width="225" height="225">
<path d="M0 0 C74.25 0 148.5 0 225 0 C225 74.25 225 148.5 225 225 C150.75 225 76.5 225 0 225 C0 150.75 0 76.5 0 0 Z " fill="#000000" transform="translate(0,0)"/>
<path d="M0 0 C0.78246094 -0.01417969 1.56492187 -0.02835937 2.37109375 -0.04296875 C4.5625 0.1875 4.5625 0.1875 7.5625 2.1875 C8.820625 2.455625 10.07875 2.72375 11.375 3 C15.6450888 4.0675222 19.05327625 5.43538971 21.5625 9.1875 C24.14397259 16.51303732 26.6090701 25.70453693 23.25 33.0625 C21.5625 35.1875 21.5625 35.1875 18.5625 37.1875 C17.5725 37.1875 16.5825 37.1875 15.5625 37.1875 C15.315 37.950625 15.0675 38.71375 14.8125 39.5 C13.39757187 42.54209547 12.40361523 43.47192256 9.5625 45.1875 C7.08984375 45.55078125 7.08984375 45.55078125 4.5 45.5 C3.21416016 45.49419922 3.21416016 45.49419922 1.90234375 45.48828125 C-0.4375 45.1875 -0.4375 45.1875 -3.4375 43.1875 C-4.71625 42.89875 -5.995 42.61 -7.3125 42.3125 C-11.93348767 41.22520878 -14.93259774 39.26569836 -17.75 35.375 C-18.71199209 32.31411609 -18.4375 29.3807141 -18.4375 26.1875 C-19.0975 25.1975 -19.7575 24.2075 -20.4375 23.1875 C-21.31183201 16.63000991 -21.31183201 16.63000991 -19.19921875 13.14453125 C-16.71482478 10.15462783 -15.18589252 8.43696417 -11.4375 7.1875 C-9.74661778 5.20793058 -8.07919528 3.20804804 -6.4375 1.1875 C-4.0978331 0.01766655 -2.60358473 0.0213759 0 0 Z " fill="#E5E5E5" transform="translate(38.4375,89.8125)"/>
<path d="M0 0 C3.69382794 2.11075883 5.40586054 4.12161741 7 8 C7.6949651 13.34961508 7.65184874 17.71878006 5.1875 22.5625 C2.77049846 25.25573029 1.11417487 26.83615075 -2.5234375 27.37109375 C-10.27422176 27.55159147 -10.27422176 27.55159147 -14.125 24.625 C-16.94385029 20.6786096 -17.1841456 18.53328631 -17.25 13.6875 C-17.27578125 12.55699219 -17.3015625 11.42648438 -17.328125 10.26171875 C-16.96571811 6.65922168 -16.17090973 4.86580373 -14 2 C-9.54422653 -0.97051564 -5.22557394 -0.62737491 0 0 Z " fill="#F2F2F2" transform="translate(88,100)"/>
<path d="M0 0 C0.99 0.33 1.98 0.66 3 1 C2.01 1.86625 1.02 2.7325 0 3.625 C-4.04489301 8.26136321 -3.55809629 12.99392737 -3.40625 18.890625 C-3.21205378 22.16100353 -3.21205378 22.16100353 -1 25 C-5.875 24.125 -5.875 24.125 -7 23 C-7.23363881 21.15108054 -7.41303635 19.29511969 -7.5625 17.4375 C-7.64628906 16.42558594 -7.73007812 15.41367188 -7.81640625 14.37109375 C-7.87699219 13.58863281 -7.93757813 12.80617188 -8 12 C-10.207809 13.53827847 -10.207809 13.53827847 -12 16 C-11.94081282 19.3736692 -11.77450701 21.83823948 -9.875 24.6875 C-5.41723744 27.80793379 -1.46117882 30.33803893 4 31 C4 31.66 4 32.32 4 33 C1.07406105 33.85637238 -1.08174288 34.38673104 -3.95703125 33.17578125 C-5.67511732 32.17852152 -7.34201387 31.09427085 -9 30 C-8.76760843 34.23690344 -8.76760843 34.23690344 -6.3125 37.4375 C-0.45454826 38.86240718 4.0989685 36.12835341 9.14453125 33.44921875 C11.33584499 31.73768739 11.64779338 30.70794928 12 28 C11.34 27.67 10.68 27.34 10 27 C10.66 25.02 11.32 23.04 12 21 C12.33 21 12.66 21 13 21 C13.46286541 25.75079916 13.7286245 30.26929831 13 35 C10.69700951 37.64136848 8.28880556 38.86947309 5 40 C6.07749409 41.28368063 6.07749409 41.28368063 8.625 41.3125 C13.02066759 40.90549374 15.30382522 39.36555186 19 37 C18.67923149 39.96710874 18.46875484 41.55346604 16.26953125 43.6484375 C13.59468773 45.24137357 12.02713562 45.37308109 8.9375 45.3125 C7.65166016 45.30669922 7.65166016 45.30669922 6.33984375 45.30078125 C4 45 4 45 1 43 C-0.27875 42.71125 -1.5575 42.4225 -2.875 42.125 C-7.49598767 41.03770878 -10.49509774 39.07819836 -13.3125 35.1875 C-14.27449209 32.12661609 -14 29.1932141 -14 26 C-14.66 25.01 -15.32 24.02 -16 23 C-16.87433201 16.44250991 -16.87433201 16.44250991 -14.76171875 12.95703125 C-12.27732478 9.96712783 -10.74839252 8.24946417 -7 7 C-5.30911778 5.02043058 -3.64169528 3.02054804 -2 1 C-1.34 0.67 -0.68 0.34 0 0 Z " fill="#EBEBEB" transform="translate(34,90)"/>
<path d="M0 0 C1.32 0 2.64 0 4 0 C4.33 0.66 4.66 1.32 5 2 C5.66 1.34 6.32 0.68 7 0 C11.22549657 -0.55808445 13.31342248 -0.43824097 16.9375 1.875 C19.8371274 6.26837486 19.88152847 9.87873939 19 15 C17.5 18.125 17.5 18.125 15 20 C11.51182363 20.57906485 8.22562656 20.61281328 5 19 C5 21.64 5 24.28 5 27 C3.35 27 1.7 27 0 27 C0 18.09 0 9.18 0 0 Z " fill="#EFEFEF" transform="translate(99,107)"/>
<path d="M0 0 C2.625 -0.1875 2.625 -0.1875 5 0 C8.87225199 8.84850773 12.05115659 17.81466649 15 27 C13.35 27 11.7 27 10 27 C9.34 25.02 8.68 23.04 8 21 C4.37 21 0.74 21 -3 21 C-3.66 22.98 -4.32 24.96 -5 27 C-6.65 27 -8.3 27 -10 27 C-8.71569312 23.06006066 -7.42130319 19.12350708 -6.125 15.1875 C-5.57779297 13.50817383 -5.57779297 13.50817383 -5.01953125 11.79492188 C-4.66503906 10.72177734 -4.31054688 9.64863281 -3.9453125 8.54296875 C-3.62062988 7.55321045 -3.29594727 6.56345215 -2.96142578 5.54370117 C-2 3 -2 3 0 0 Z " fill="#EDEDED" transform="translate(173,100)"/>
<path d="M0 0 C3.5060303 0.86943897 4.94966563 2.56083702 6.9375 5.48046875 C7.25 9.29296875 7.25 9.29296875 6.9375 12.48046875 C2.6475 12.48046875 -1.6425 12.48046875 -6.0625 12.48046875 C-5.4025 13.80046875 -4.7425 15.12046875 -4.0625 16.48046875 C-3.134375 16.31546875 -2.20625 16.15046875 -1.25 15.98046875 C1.9375 15.48046875 1.9375 15.48046875 4.9375 15.48046875 C4.9375 16.47046875 4.9375 17.46046875 4.9375 18.48046875 C2.45673136 20.96123739 1.49531791 20.83138432 -1.9375 20.91796875 C-5.4980817 20.82020711 -6.72602915 20.72080507 -9.6875 18.60546875 C-11.64868942 14.14822007 -11.94945542 10.26845817 -11.0625 5.48046875 C-8.13310121 0.90328314 -5.26018916 -0.36861174 0 0 Z " fill="#ECECEC" transform="translate(132.0625,106.51953125)"/>
<path d="M0 0 C3.5625 0.5 3.5625 0.5 6 1.875 C8.38826739 5.88728922 8.19105875 9.93929467 7.5625 14.5 C6.0657538 18.2483731 6.0657538 18.2483731 3.5625 19.5 C0.125 19.8125 0.125 19.8125 -3.4375 19.5 C-5.65012628 17.3178927 -6.37329116 15.92805892 -6.8359375 12.84375 C-6.82820313 11.9053125 -6.82046875 10.966875 -6.8125 10 C-6.82023437 9.0615625 -6.82796875 8.123125 -6.8359375 7.15625 C-6.13218802 2.46458679 -4.70197025 0.68392294 0 0 Z " fill="#070707" transform="translate(82.4375,103.5)"/>
<path d="M0 0 C5.61 0 11.22 0 17 0 C17 1.32 17 2.64 17 4 C15.02 4 13.04 4 11 4 C11 10.27 11 16.54 11 23 C12.98 23 14.96 23 17 23 C17 24.32 17 25.64 17 27 C11.39 27 5.78 27 0 27 C0 25.68 0 24.36 0 23 C1.98 23 3.96 23 6 23 C6 16.73 6 10.46 6 4 C4.02 4 2.04 4 0 4 C0 2.68 0 1.36 0 0 Z " fill="#F4F4F4" transform="translate(190,100)"/>
<path d="M0 0 C2.33333333 0 4.66666667 0 7 0 C9.0092836 -0.12757356 11.01855693 -0.2554543 13.02734375 -0.390625 C15 0 15 0 16.7421875 1.5 C18.52401473 5.04151995 18.32064305 8.38543769 18.1875 12.25 C18.16719727 13.36761719 18.16719727 13.36761719 18.14648438 14.5078125 C18.11127204 16.33885416 18.05746851 18.16952169 18 20 C16.35 20 14.7 20 13 20 C12.67 15.38 12.34 10.76 12 6 C10.35 5.67 8.7 5.34 7 5 C5.05909174 6.94090826 5.60080565 10.47293902 5.4375 13.0625 C5.35371094 14.35285156 5.26992187 15.64320312 5.18359375 16.97265625 C5.12300781 17.97167969 5.06242188 18.97070312 5 20 C3.35 20 1.7 20 0 20 C0 13.4 0 6.8 0 0 Z " fill="#F3F3F3" transform="translate(142,107)"/>
<path d="M0 0 C-0.04382813 0.79664062 -0.08765625 1.59328125 -0.1328125 2.4140625 C-0.12443643 5.85662591 0.04248403 8.68454821 1 12 C4.00434106 14.79449782 7.22595277 16.43832528 11 18 C10.34 18.66 9.68 19.32 9 20 C4.12759778 19.85669405 -0.30673365 17.02472807 -4 14 C-5.87773911 10.87447297 -6.62339318 8.6513029 -6 5 C-1.66666667 0 -1.66666667 0 0 0 Z " fill="#151515" transform="translate(27,101)"/>
<path d="M0 0 C0.50789063 0.30035156 1.01578125 0.60070312 1.5390625 0.91015625 C4.9566696 2.79816017 7.22153627 4.01526399 11.1875 3.9375 C14.10765955 2.96411348 16.41394816 1.65219979 19 0 C19.66 0 20.32 0 21 0 C21 1.32 21 2.64 21 4 C19.30397484 5.04115423 17.59251063 6.05718378 15.875 7.0625 C14.44800781 7.91521484 14.44800781 7.91521484 12.9921875 8.78515625 C9.44330243 10.22602212 7.64517699 10.03928501 4 9 C1.625 7.25 1.625 7.25 0 5 C-0.25 2.25 -0.25 2.25 0 0 Z " fill="#0F0F0F" transform="translate(24,119)"/>
<path d="M0 0 C2.955699 2.04625315 3.80632018 3.28984065 4.75 6.75 C4.87375 7.86375 4.87375 7.86375 5 9 C2.0280615 7.87548273 -0.33440687 6.77706209 -3 5 C-7.04133419 4.52377077 -9.36177075 5.43986313 -12.8125 7.5 C-13.60269531 7.9640625 -14.39289062 8.428125 -15.20703125 8.90625 C-15.79871094 9.2671875 -16.39039063 9.628125 -17 10 C-17 8.35 -17 6.7 -17 5 C-11.20282752 1.2425734 -6.98186936 -1.06503092 0 0 Z " fill="#0F0F0F" transform="translate(53,97)"/>
<path d="M0 0 C3.0625 0.1875 3.0625 0.1875 5.0625 2.1875 C5.328125 4.0625 5.328125 4.0625 5.3125 6.1875 C5.31765625 6.88875 5.3228125 7.59 5.328125 8.3125 C5.0625 10.1875 5.0625 10.1875 3.0625 12.1875 C0 12.375 0 12.375 -2.9375 12.1875 C-3.9375 11.1875 -3.9375 11.1875 -4.0703125 8.9375 C-4.06773438 8.03 -4.06515625 7.1225 -4.0625 6.1875 C-4.06507812 5.28 -4.06765625 4.3725 -4.0703125 3.4375 C-3.86801561 0.01035262 -3.49011104 0.22277304 0 0 Z " fill="#080808" transform="translate(107.9375,110.8125)"/>
<path d="M0 0 C5.53593372 0.50157789 9.96285646 3.3020427 14 7 C15.45936584 11.15919265 15.47848868 12.92909677 13.6875 16.9375 C12.8521875 17.9584375 12.8521875 17.9584375 12 19 C11.34 19 10.68 19 10 19 C10.05542969 18.35933594 10.11085938 17.71867187 10.16796875 17.05859375 C10.19041764 14.04595257 10.01058403 11.85365735 9 9 C5.64633743 6.03690372 1.99549307 3.98787299 -2 2 C-1.34 1.34 -0.68 0.68 0 0 Z " fill="#0B0B0B" transform="translate(45,104)"/>
<path d="M0 0 C0.66 0.66 1.32 1.32 2 2 C1.36191406 2.29390625 0.72382812 2.5878125 0.06640625 2.890625 C-2.70279014 4.39402647 -4.79805352 5.73157966 -7 8 C-8.0775163 12.03298958 -8.16815168 15.84329045 -8 20 C-8.99 19.67 -9.98 19.34 -11 19 C-11.77732617 6.23457686 -11.77732617 6.23457686 -8.875 1.625 C-5.55741129 -0.25015884 -3.75032949 -0.58338459 0 0 Z " fill="#060606" transform="translate(41,93)"/>
<path d="M0 0 C0.99 0.33 1.98 0.66 3 1 C3.77732617 13.76542314 3.77732617 13.76542314 0.875 18.375 C-2.44258871 20.25015884 -4.24967051 20.58338459 -8 20 C-8.66 19.34 -9.32 18.68 -10 18 C-8.71186658 17.16121545 -7.41936744 16.32913217 -6.125 15.5 C-5.40570313 15.0359375 -4.68640625 14.571875 -3.9453125 14.09375 C-2 13 -2 13 0 13 C0 8.71 0 4.42 0 0 Z " fill="#040404" transform="translate(48,112)"/>
<path d="M0 0 C1.11375 0.556875 1.11375 0.556875 2.25 1.125 C2.25 3.435 2.25 5.745 2.25 8.125 C-0 9.25 -0 9.25 -2.75 10.125 C-5.0625 9.25 -5.0625 9.25 -6.75 8.125 C-6.75 5.815 -6.75 3.505 -6.75 1.125 C-4.02098495 -0.69434337 -3.21400584 -1.02263822 0 0 Z " fill="#040404" transform="translate(42.75,107.875)"/>
<path d="M0 0 C0.33 0 0.66 0 1 0 C1.33 2.97 1.66 5.94 2 9 C2.33 9 2.66 9 3 9 C3 10.98 3 12.96 3 15 C6.05847848 15.54372951 8.88772805 16 12 16 C12.33 17.65 12.66 19.3 13 21 C12.67 20.01 12.34 19.02 12 18 C9.69 18.99 7.38 19.98 5 21 C4.34 20.34 3.68 19.68 3 19 C3.33 18.67 3.66 18.34 4 18 C2.02 17.01 0.04 16.02 -2 15 C-1.67 14.01 -1.34 13.02 -1 12 C-0.77674186 9.94106379 -0.59294241 7.87766347 -0.4375 5.8125 C-0.35371094 4.72582031 -0.26992188 3.63914062 -0.18359375 2.51953125 C-0.12300781 1.68808594 -0.06242187 0.85664062 0 0 Z " fill="#D9D9D9" transform="translate(33,101)"/>
<path d="M0 0 C2.42130331 2.42130331 2.52840504 3.80111377 3.125 7.125 C3.29257813 8.03507812 3.46015625 8.94515625 3.6328125 9.8828125 C3.81457031 10.93082031 3.81457031 10.93082031 4 12 C1.69 12 -0.62 12 -3 12 C-2.49202991 7.6822542 -1.80317221 3.96697886 0 0 Z " fill="#101010" transform="translate(175,105)"/>
<path d="M0 0 C0.66 0.33 1.32 0.66 2 1 C2 1.66 2 2.32 2 3 C1.01 3.66 0.02 4.32 -1 5 C-0.34 5.33 0.32 5.66 1 6 C1 8.64 1 11.28 1 14 C0.67 14 0.34 14 0 14 C0 12.02 0 10.04 0 8 C-3.28696233 7.20046862 -4.71023192 6.90341064 -8 8 C-8 7.01 -8 6.02 -8 5 C-6.3203125 3.578125 -6.3203125 3.578125 -4.125 2.25 C-3.40570313 1.80140625 -2.68640625 1.3528125 -1.9453125 0.890625 C-1.30335937 0.59671875 -0.66140625 0.3028125 0 0 Z " fill="#DBDBDB" transform="translate(45,101)"/>
<path d="M0 0 C1.67542976 0.28604898 3.34385343 0.61781233 5 1 C5.33 2.32 5.66 3.64 6 5 C3.36 5 0.72 5 -2 5 C-1.125 1.125 -1.125 1.125 0 0 Z " fill="#020202" transform="translate(128,110)"/>
<path d="M0 0 C0.33 0 0.66 0 1 0 C1.33 2.97 1.66 5.94 2 9 C2.33 9 2.66 9 3 9 C3 11.31 3 13.62 3 16 C1.35 15.67 -0.3 15.34 -2 15 C-1.67 14.01 -1.34 13.02 -1 12 C-0.77674186 9.94106379 -0.59294241 7.87766347 -0.4375 5.8125 C-0.35371094 4.72582031 -0.26992188 3.63914062 -0.18359375 2.51953125 C-0.12300781 1.68808594 -0.06242187 0.85664062 0 0 Z " fill="#B9B9B9" transform="translate(33,101)"/>
<path d="M0 0 C0.33 0 0.66 0 1 0 C1 4.62 1 9.24 1 14 C-0.98 14.99 -0.98 14.99 -3 16 C-2.01 13.03 -1.02 10.06 0 7 C-0.66 6.67 -1.32 6.34 -2 6 C-1.34 4.02 -0.68 2.04 0 0 Z " fill="#F8F8F8" transform="translate(46,111)"/>
</svg>
