<?xml version="1.0" encoding="UTF-8"?>
<svg version="1.1" xmlns="http://www.w3.org/2000/svg" width="516" height="173">
<path d="M0 0 C170.28 0 340.56 0 516 0 C516 57.09 516 114.18 516 173 C345.72 173 175.44 173 0 173 C0 115.91 0 58.82 0 0 Z " fill="#010101" transform="translate(0,0)"/>
<path d="M0 0 C3.89577024 -0.05821935 7.79142802 -0.0936703 11.6875 -0.125 C12.79029297 -0.14175781 13.89308594 -0.15851563 15.02929688 -0.17578125 C16.09599609 -0.18222656 17.16269531 -0.18867187 18.26171875 -0.1953125 C19.73064575 -0.21102295 19.73064575 -0.21102295 21.22924805 -0.22705078 C24.17112772 0.01402315 26.33237726 0.76944458 29 2 C29 2.66 29 3.32 29 4 C29.598125 4.226875 30.19625 4.45375 30.8125 4.6875 C33.66630157 6.39978094 34.57202259 8.00804733 36 11 C38.14967199 21.54080544 38.14599965 32.20056057 32.4375 41.5625 C31.963125 42.036875 31.48875 42.51125 31 43 C30.34 43 29.68 43 29 43 C29 43.66 29 44.32 29 45 C23.12905562 47.57996518 17.40390015 47.22552426 11.125 47.125 C10.05507813 47.11597656 8.98515625 47.10695312 7.8828125 47.09765625 C5.25497561 47.07419342 2.62760594 47.04136459 0 47 C0 45.35 0 43.7 0 42 C1.485 41.505 1.485 41.505 3 41 C3.33 29.12 3.66 17.24 4 5 C2.68 5 1.36 5 0 5 C0 3.35 0 1.7 0 0 Z " fill="#EFEFEF" transform="translate(432,66)"/>
<path d="M0 0 C4.95 0 9.9 0 15 0 C15.7425 2.124375 16.485 4.24875 17.25 6.4375 C18.72396551 10.61502096 20.25621158 14.72993188 22.125 18.75 C24.25769917 23.35350918 25.65430469 28.11675717 27 33 C29.51046708 30.48953292 29.85162494 28.53508425 30.8125 25.125 C32.480463 19.48391166 34.49859744 14.14174663 36.8515625 8.75390625 C38.04510385 5.8918428 39.01939059 2.94182823 40 0 C44.95 0 49.9 0 55 0 C55 1.65 55 3.3 55 5 C53.02 5 51.04 5 49 5 C49 17.21 49 29.42 49 42 C50.98 42 52.96 42 55 42 C55 43.65 55 45.3 55 47 C49.06 47 43.12 47 37 47 C37 45.68 37 44.36 37 43 C38.98 43 40.96 43 43 43 C42.67 32.44 42.34 21.88 42 11 C41.2575 13.43375 40.515 15.8675 39.75 18.375 C38.02995686 23.95710129 36.10839793 29.35451702 33.84375 34.7421875 C32.67792091 37.86185978 32.00899294 41.01759831 31.39453125 44.28515625 C31 46 31 46 30 47 C28.33382885 47.04063832 26.66611905 47.042721 25 47 C24.81824219 46.29875 24.63648438 45.5975 24.44921875 44.875 C24.19785156 43.92625 23.94648438 42.9775 23.6875 42 C23.32205078 40.6078125 23.32205078 40.6078125 22.94921875 39.1875 C22.03348613 36.11244725 20.95455066 33.16201969 19.80932617 30.16796875 C18.37090285 26.31481668 17.10062894 22.40540078 15.8125 18.5 C14.884375 15.695 13.95625 12.89 13 10 C12.67 20.56 12.34 31.12 12 42 C13.98 42 15.96 42 18 42 C18 43.65 18 45.3 18 47 C12.06 47 6.12 47 0 47 C0 45.35 0 43.7 0 42 C1.98 42 3.96 42 6 42 C6 29.79 6 17.58 6 5 C4.02 5 2.04 5 0 5 C0 3.35 0 1.7 0 0 Z " fill="#E9E9E9" transform="translate(295,66)"/>
<path d="M0 0 C2.53774728 1.98829496 3.51317482 3.83614434 4.4296875 6.88671875 C4.6654248 7.65298584 4.90116211 8.41925293 5.14404297 9.20874023 C5.38525879 10.02673096 5.62647461 10.84472168 5.875 11.6875 C6.39566424 13.40109305 6.91650061 15.11463382 7.4375 16.828125 C7.69660156 17.69115234 7.95570313 18.55417969 8.22265625 19.44335938 C8.95782993 21.86130498 9.72125522 24.26765502 10.5 26.671875 C10.84828857 27.75335815 10.84828857 27.75335815 11.20361328 28.85668945 C11.64126942 30.21310519 12.08219409 31.56847198 12.52685547 32.92260742 C13.56068504 36.17074772 14 38.53657176 14 42 C15.32 42 16.64 42 18 42 C18 43.65 18 45.3 18 47 C12.72 47 7.44 47 2 47 C2 45.35 2 43.7 2 42 C3.65 42 5.3 42 7 42 C6.67 39.03 6.34 36.06 6 33 C-0.27 33 -6.54 33 -13 33 C-13.66 35.97 -14.32 38.94 -15 42 C-13.02 42 -11.04 42 -9 42 C-9 43.65 -9 45.3 -9 47 C-14.28 47 -19.56 47 -25 47 C-25 45.35 -25 43.7 -25 42 C-23.68 42 -22.36 42 -21 42 C-20.87882813 41.443125 -20.75765625 40.88625 -20.6328125 40.3125 C-19.01763684 32.95723855 -17.32030922 25.7639978 -14.8515625 18.64453125 C-13.39846471 14.1319294 -12.25048792 9.5300096 -11.0625 4.94140625 C-9.03990968 -0.6578971 -5.35334714 -0.47797742 0 0 Z " fill="#E9E9E9" transform="translate(204,66)"/>
<path d="M0 0 C3.91203974 -0.84137619 7.11554732 -1.06500888 11 0 C14.07342411 3.31025539 16.02457364 7.06489419 18.02197266 11.07421875 C19.35422647 13.69748836 20.82536352 16.23091291 22.30200195 18.77490234 C23.32715337 20.5425013 24.33206666 22.3217915 25.3359375 24.1015625 C26.48838372 26.10887492 27.71608346 28.07412519 29 30 C29 30.99 29 31.98 29 33 C29.66 33 30.32 33 31 33 C31 23.76 31 14.52 31 5 C29.02 5 27.04 5 25 5 C25 3.35 25 1.7 25 0 C30.61 0 36.22 0 42 0 C42 1.32 42 2.64 42 4 C40.35 4 38.7 4 37 4 C37 18.19 37 32.38 37 47 C35.02 47 33.04 47 31 47 C21 29.5 21 29.5 11 12 C10.67 21.9 10.34 31.8 10 42 C11.98 42 13.96 42 16 42 C16 43.65 16 45.3 16 47 C10.39 47 4.78 47 -1 47 C-0.67 45.35 -0.34 43.7 0 42 C1.32 42 2.64 42 4 42 C4 29.79 4 17.58 4 5 C2.35 4.67 0.7 4.34 -1 4 C-0.67 2.68 -0.34 1.36 0 0 Z " fill="#ECECEC" transform="translate(383,66)"/>
<path d="M0 0 C12.62857143 0 12.62857143 0 18 4 C21.13280959 8.69921438 21.13798673 12.94168127 21.125 18.5 C21.12886719 20.15515625 21.12886719 20.15515625 21.1328125 21.84375 C21.01325821 24.68492244 20.64925815 27.23807642 20 30 C19.34 30 18.68 30 18 30 C17.835 30.78375 17.67 31.5675 17.5 32.375 C16 35 16 35 12.375 36.3125 C8.12545063 37.25780792 4.56228741 37 0 37 C0 24.79 0 12.58 0 0 Z " fill="#0A0A0A" transform="translate(442,71)"/>
<path d="M0 0 C5.28 0 10.56 0 16 0 C16 1.32 16 2.64 16 4 C14.02 4 12.04 4 10 4 C10.40992187 5.19496094 10.81984375 6.38992187 11.2421875 7.62109375 C11.78670418 9.22647913 12.3309611 10.83195264 12.875 12.4375 C13.14441406 13.22060547 13.41382812 14.00371094 13.69140625 14.81054688 C15.28135257 19.52221708 16.5410681 24.19019099 17.56201172 29.0559082 C18.0580027 31.25745571 18.75558082 33.29366317 19.625 35.375 C21 39 21 39 21 42 C21.66 42 22.32 42 23 42 C23.0928125 40.2675 23.0928125 40.2675 23.1875 38.5 C23.92857181 31.76683324 26.23183248 25.44402486 28.3359375 19.04101562 C29.36691676 15.87227054 30.33840212 12.68669165 31.3125 9.5 C31.63863281 8.4378125 31.96476562 7.375625 32.30078125 6.28125 C32.53152344 5.5284375 32.76226562 4.775625 33 4 C31.02 4 29.04 4 27 4 C27 2.68 27 1.36 27 0 C32.28 0 37.56 0 43 0 C43 1.32 43 2.64 43 4 C41.68 4 40.36 4 39 4 C38.88011719 5.00675781 38.76023438 6.01351562 38.63671875 7.05078125 C38.08257375 10.90852016 37.02040739 14.47777796 35.8125 18.1875 C35.36598431 19.57643669 34.9207367 20.96578149 34.4765625 22.35546875 C34.23969727 23.09458496 34.00283203 23.83370117 33.75878906 24.59521484 C32.35351757 29.0488584 31.02344301 33.52516969 29.6875 38 C29.42106689 38.89098389 29.15463379 39.78196777 28.88012695 40.69995117 C28.25260598 42.79972496 27.62617903 44.89982564 27 47 C18.74042761 47.62336395 18.74042761 47.62336395 16.0234375 45.3359375 C14.89666425 42.76414206 14.20496887 40.37420308 13.625 37.625 C12.54151847 32.93751676 11.17072021 28.51194499 9.5 24 C7.19750812 17.75336041 5.46221182 11.49079391 4 5 C2.68 4.67 1.36 4.34 0 4 C0 2.68 0 1.36 0 0 Z " fill="#EDEDED" transform="translate(68,66)"/>
<path d="M0 0 C4.96622349 -0.02465098 9.93241166 -0.04283649 14.89868164 -0.05493164 C16.58944316 -0.0599719 18.28020029 -0.06680405 19.97094727 -0.07543945 C22.39600707 -0.08751857 24.82100944 -0.09323123 27.24609375 -0.09765625 C28.38672523 -0.10539818 28.38672523 -0.10539818 29.55039978 -0.11329651 C31.3673257 -0.11349238 33.18413127 -0.06197277 35 0 C36 1 36 1 36.09765625 3.94140625 C36.08605469 5.13636719 36.07445312 6.33132812 36.0625 7.5625 C36.05347656 8.76003906 36.04445312 9.95757812 36.03515625 11.19140625 C36.02355469 12.11824219 36.01195312 13.04507813 36 14 C34.35 14 32.7 14 31 14 C31 11.36 31 8.72 31 6 C27.7 6 24.4 6 21 6 C21 17.88 21 29.76 21 42 C22.98 42 24.96 42 27 42 C27 43.65 27 45.3 27 47 C20.73 47 14.46 47 8 47 C8 45.35 8 43.7 8 42 C11.465 41.505 11.465 41.505 15 41 C15 29.12 15 17.24 15 5 C11.7 5 8.4 5 5 5 C4.67 7.97 4.34 10.94 4 14 C2.68 14 1.36 14 0 14 C0 9.38 0 4.76 0 0 Z " fill="#EEEEEE" transform="translate(140,66)"/>
<path d="M0 0 C6.6 0 13.2 0 20 0 C20.33 1.65 20.66 3.3 21 5 C18.36 5 15.72 5 13 5 C13 16.88 13 28.76 13 41 C18.28 41 23.56 41 29 41 C29 37.37 29 33.74 29 30 C30.65 29.67 32.3 29.34 34 29 C34 34.94 34 40.88 34 47 C23.11 47 12.22 47 1 47 C1 45.35 1 43.7 1 42 C2.98 42 4.96 42 7 42 C7 29.79 7 17.58 7 5 C4.69 5 2.38 5 0 5 C0 3.35 0 1.7 0 0 Z " fill="#EDEDED" transform="translate(227,66)"/>
<path d="M0 0 C6.27 0 12.54 0 19 0 C19 1.65 19 3.3 19 5 C17.02 5 15.04 5 13 5 C13 17.21 13 29.42 13 42 C14.98 42 16.96 42 19 42 C19 43.65 19 45.3 19 47 C12.73 47 6.46 47 0 47 C0.33 45.35 0.66 43.7 1 42 C2.65 42 4.3 42 6 42 C6 29.79 6 17.58 6 5 C4.02 5 2.04 5 0 5 C0 3.35 0 1.7 0 0 Z " fill="#DCDCDC" transform="translate(116,66)"/>
<path d="M0 0 C5.94 0 11.88 0 18 0 C18 1.65 18 3.3 18 5 C16.02 5 14.04 5 12 5 C12 17.21 12 29.42 12 42 C13.98 42 15.96 42 18 42 C18 43.65 18 45.3 18 47 C12.06 47 6.12 47 0 47 C0 45.35 0 43.7 0 42 C1.98 42 3.96 42 6 42 C6 29.79 6 17.58 6 5 C4.02 5 2.04 5 0 5 C0 3.35 0 1.7 0 0 Z " fill="#EEEEEE" transform="translate(357,66)"/>
<path d="M0 0 C2 1 2 1 2.9296875 3.31323242 C3.24164063 4.31717041 3.55359375 5.3211084 3.875 6.35546875 C4.22046875 7.45310547 4.5659375 8.55074219 4.921875 9.68164062 C5.27765625 10.83857422 5.6334375 11.99550781 6 13.1875 C6.70817743 15.45187168 7.41650604 17.71619609 8.125 19.98046875 C8.43695313 20.99004639 8.74890625 21.99962402 9.0703125 23.03979492 C10.01218586 26.03880084 10.99758163 29.02074387 12 32 C10.515 32.495 10.515 32.495 9 33 C7.78130071 35.50447516 7.78130071 35.50447516 7 38 C6.67 38 6.34 38 6 38 C6 36.35 6 34.7 6 33 C4.02 33 2.04 33 0 33 C0 22.11 0 11.22 0 0 Z " fill="#212121" transform="translate(307,75)"/>
<path d="M0 0 C0.99 0.33 1.98 0.66 3 1 C3.89135742 3.00952148 3.89135742 3.00952148 4.60546875 5.62109375 C4.86650391 6.55630859 5.12753906 7.49152344 5.39648438 8.45507812 C5.65751953 9.43927734 5.91855469 10.42347656 6.1875 11.4375 C6.59645508 12.90799805 6.59645508 12.90799805 7.01367188 14.40820312 C9 21.64162359 9 21.64162359 9 24 C4.05 24 -0.9 24 -6 24 C-5.52098812 18.73086928 -4.5305023 14.17068295 -2.765625 9.1875 C-1.70575137 6.15928963 -0.8551043 3.09153091 0 0 Z " fill="#131313" transform="translate(199,70)"/>
<path d="M0 0 C0.33 0 0.66 0 1 0 C1 10.89 1 21.78 1 33 C-0.98 33 -2.96 33 -5 33 C-5 32.67 -5 32.34 -5 32 C-3.35 32 -1.7 32 0 32 C-0.33 24.08 -0.66 16.16 -1 8 C-1.99 8.495 -1.99 8.495 -3 9 C-2.01 6.03 -1.02 3.06 0 0 Z " fill="#5B5B5B" transform="translate(337,76)"/>
<path d="M0 0 C0.66 0 1.32 0 2 0 C2.66 0.66 3.32 1.32 4 2 C4.66 2.33 5.32 2.66 6 3 C5.67 4.65 5.34 6.3 5 8 C4.01 8 3.02 8 2 8 C1.34 5.36 0.68 2.72 0 0 Z " fill="#313131" transform="translate(319,91)"/>
<path d="M0 0 C2 2 2 2 2 5 C0.35 5 -1.3 5 -3 5 C-1.125 1.125 -1.125 1.125 0 0 Z " fill="#0B0B0B" transform="translate(209,103)"/>
</svg>
