<?xml version="1.0" encoding="UTF-8"?>
<svg version="1.1" xmlns="http://www.w3.org/2000/svg" width="147" height="115">
<path d="M0 0 C48.51 0 97.02 0 147 0 C147 37.95 147 75.9 147 115 C98.49 115 49.98 115 0 115 C0 77.05 0 39.1 0 0 Z " fill="#020202" transform="translate(0,0)"/>
<path d="M0 0 C2.375 0.1875 2.375 0.1875 5 1 C6.3125 3.5625 6.3125 3.5625 7 6 C7.721875 5.195625 8.44375 4.39125 9.1875 3.5625 C12.02515689 0.97707928 13.27166147 0.31957187 17 0 C17 0.66 17 1.32 17 2 C17.99 1.34 18.98 0.68 20 0 C22.52734375 0 22.52734375 0 25 1 C26.44140625 3.6875 26.44140625 3.6875 27.5625 7 C28.59677373 10.25965818 28.59677373 10.25965818 30 13 C31.88883805 13.95267869 31.88883805 13.95267869 34 14 C35.2375 14.185625 36.475 14.37125 37.75 14.5625 C38.8225 14.706875 39.895 14.85125 41 15 C41 14.01 41 13.02 41 12 C39.04226865 10.57741161 36.98052689 9.51869426 34.84765625 8.37890625 C33 7 33 7 32.05859375 5.02734375 C32 3 32 3 33.11328125 1.26171875 C35.60603306 -0.40527676 37.21541928 -0.30329535 40.1875 -0.1875 C41.08855469 -0.16042969 41.98960938 -0.13335937 42.91796875 -0.10546875 C43.94857422 -0.05326172 43.94857422 -0.05326172 45 0 C45 0.99 45 1.98 45 3 C42.36 3 39.72 3 37 3 C37 3.66 37 4.32 37 5 C37.56589844 5.27714844 38.13179687 5.55429688 38.71484375 5.83984375 C39.44832031 6.20207031 40.18179688 6.56429687 40.9375 6.9375 C41.66839844 7.29714844 42.39929687 7.65679687 43.15234375 8.02734375 C45 9 45 9 46 10 C46.04063832 11.66617115 46.042721 13.33388095 46 15 C46.33 15 46.66 15 47 15 C47.495 16.485 47.495 16.485 48 18 C49.44388571 16.78571012 49.44388571 16.78571012 49.09765625 13.18359375 C49.09098089 11.60153318 49.07901875 10.01948841 49.0625 8.4375 C49.05798828 7.63119141 49.05347656 6.82488281 49.04882812 5.99414062 C49.03700518 3.99606244 49.01906914 1.99802217 49 0 C50.32 0 51.64 0 53 0 C53 2.31 53 4.62 53 7 C55.31 7 57.62 7 60 7 C60 4.69 60 2.38 60 0 C61.65 0 63.3 0 65 0 C65 4.62 65 9.24 65 14 C65.66 14 66.32 14 67 14 C66.94199219 13.40832031 66.88398437 12.81664063 66.82421875 12.20703125 C66.57508301 7.84359668 66.55759637 5.65690236 69.0625 1.9375 C72.75024203 -0.49484049 74.65504309 -0.62070813 79 0 C83.6 2.2 83.6 2.2 85 5 C85.36818414 8.90275184 85.3949612 11.27590447 83.5 14.75 C80.19349361 17.72585575 77.22902655 18.66080826 73 20 C73 20.33 73 20.66 73 21 C75.64 21.33 78.28 21.66 81 22 C81 22.66 81 23.32 81 24 C79.35 24 77.7 24 76 24 C76 28.62 76 33.24 76 38 C74.68 38 73.36 38 72 38 C72 33.71 72 29.42 72 25 C70.02 24.67 68.04 24.34 66 24 C66 28.62 66 33.24 66 38 C64.35 38 62.7 38 61 38 C60.67 34.7 60.34 31.4 60 28 C58.68 28.99 57.36 29.98 56 31 C53.25 31.1875 53.25 31.1875 51 31 C51 33.31 51 35.62 51 38 C49.68 38 48.36 38 47 38 C47 33.05 47 28.1 47 23 C46.34 23 45.68 23 45 23 C44.67 23.66 44.34 24.32 44 25 C41.36 24.67 38.72 24.34 36 24 C37.17744585 27.53233755 37.95605641 27.86308075 41.0625 29.6875 C41.79597656 30.12449219 42.52945313 30.56148437 43.28515625 31.01171875 C43.85105469 31.33785156 44.41695312 31.66398437 45 32 C44.6875 33.875 44.6875 33.875 44 36 C40.79619983 38.13586678 39.98060033 38.23132175 36.3125 38.125 C35.50425781 38.10695312 34.69601563 38.08890625 33.86328125 38.0703125 C33.24839844 38.04710937 32.63351563 38.02390625 32 38 C31.67 37.01 31.34 36.02 31 35 C30.03513672 35.73669922 30.03513672 35.73669922 29.05078125 36.48828125 C24.9743774 38.50821504 21.66166443 38.33376355 17.1875 38.1875 C16.39923828 38.17396484 15.61097656 38.16042969 14.79882812 38.14648438 C12.86558831 38.11133456 10.93270318 38.05753361 9 38 C9 35.69 9 33.38 9 31 C7.02 31 5.04 31 3 31 C3 33.31 3 35.62 3 38 C1.68 38 0.36 38 -1 38 C-1 32.72 -1 27.44 -1 22 C0.32 21.67 1.64 21.34 3 21 C3.33 20.34 3.66 19.68 4 19 C4.33 19 4.66 19 5 19 C5.68402394 11.44533559 4.86045439 7.83254527 0 2 C0 1.34 0 0.68 0 0 Z " fill="#2D2D2D" transform="translate(16,68)"/>
<path d="M0 0 C5.10392825 1.27598206 6.79597077 2.96912452 10 7 C12.63460948 7.87943404 12.63460948 7.87943404 15 8 C15.3403125 7.13375 15.3403125 7.13375 15.6875 6.25 C17.39564155 3.32175735 19.13256637 1.80048158 22 0 C24.8125 0.25 24.8125 0.25 27 1 C27.49940808 7.11774896 26.24900602 10.02495953 23 15 C24.19625 15.268125 25.3925 15.53625 26.625 15.8125 C30.37855376 16.74087006 33.60088806 18.13048843 37 20 C36.505 21.485 36.505 21.485 36 23 C33.9375 23.6875 33.9375 23.6875 32 24 C32 24.99 32 25.98 32 27 C29.36 27 26.72 27 24 27 C24.48855469 27.55429687 24.97710937 28.10859375 25.48046875 28.6796875 C27.27240662 31.4159628 27.37527921 32.88945622 27.3125 36.125 C27.30863281 36.99382813 27.30476563 37.86265625 27.30078125 38.7578125 C27 41 27 41 25 43 C21.625 43.4375 21.625 43.4375 18 43 C15.7705435 40.7705435 14.40073893 38.80147786 13 36 C10.08025734 37.39351354 7.3799143 38.70692326 4.8125 40.6875 C3 42 3 42 0 42 C-0.02693575 39.87506859 -0.04636628 37.75004088 -0.0625 35.625 C-0.07410156 34.44164062 -0.08570313 33.25828125 -0.09765625 32.0390625 C0 29 0 29 1 27 C0.15695313 26.89042969 -0.68609375 26.78085937 -1.5546875 26.66796875 C-3.19824219 26.43013672 -3.19824219 26.43013672 -4.875 26.1875 C-5.96554688 26.03667969 -7.05609375 25.88585937 -8.1796875 25.73046875 C-11 25 -11 25 -13 22 C-13 21.01 -13 20.02 -13 19 C-12.34 19 -11.68 19 -11 19 C-11 18.34 -11 17.68 -11 17 C-10.34 17 -9.68 17 -9 17 C-8.67 16.34 -8.34 15.68 -8 15 C-4.7 15.33 -1.4 15.66 2 16 C1.67 15.21625 1.34 14.4325 1 13.625 C-0.27410171 9.00638131 -0.16923936 4.75750644 0 0 Z " fill="#1F0B05" transform="translate(64,21)"/>
<path d="M0 0 C1.32 0 2.64 0 4 0 C4 2.31 4 4.62 4 7 C6.31 7 8.62 7 11 7 C11 4.69 11 2.38 11 0 C12.65 0 14.3 0 16 0 C16 4.62 16 9.24 16 14 C16.66 14 17.32 14 18 14 C17.94199219 13.40832031 17.88398437 12.81664063 17.82421875 12.20703125 C17.57508301 7.84359668 17.55759637 5.65690236 20.0625 1.9375 C23.75024203 -0.49484049 25.65504309 -0.62070813 30 0 C34.6 2.2 34.6 2.2 36 5 C36.36818414 8.90275184 36.3949612 11.27590447 34.5 14.75 C31.19349361 17.72585575 28.22902655 18.66080826 24 20 C24 20.33 24 20.66 24 21 C26.64 21.33 29.28 21.66 32 22 C32 22.66 32 23.32 32 24 C30.35 24 28.7 24 27 24 C27 28.62 27 33.24 27 38 C25.68 38 24.36 38 23 38 C23 33.71 23 29.42 23 25 C21.02 24.67 19.04 24.34 17 24 C17 28.62 17 33.24 17 38 C15.68 38 14.36 38 13 38 C13 32.72 13 27.44 13 22 C13.66 22 14.32 22 15 22 C15 21.01 15 20.02 15 19 C13.68 18.67 12.36 18.34 11 18 C11 15.36 11 12.72 11 10 C8.69 10 6.38 10 4 10 C4 12.31 4 14.62 4 17 C2.68 17 1.36 17 0 17 C0 11.39 0 5.78 0 0 Z " fill="#383838" transform="translate(65,68)"/>
<path d="M0 0 C0.66 0.33 1.32 0.66 2 1 C2.49940808 7.11774896 1.24900602 10.02495953 -2 15 C-0.80375 15.268125 0.3925 15.53625 1.625 15.8125 C5.37855376 16.74087006 8.60088806 18.13048843 12 20 C11.67 20.99 11.34 21.98 11 23 C8.9375 23.6875 8.9375 23.6875 7 24 C7 24.99 7 25.98 7 27 C4.36 27 1.72 27 -1 27 C-0.51144531 27.55429687 -0.02289063 28.10859375 0.48046875 28.6796875 C2.27240662 31.4159628 2.37527921 32.88945622 2.3125 36.125 C2.30863281 36.99382813 2.30476563 37.86265625 2.30078125 38.7578125 C2 41 2 41 0 43 C-3.375 43.4375 -3.375 43.4375 -7 43 C-9.2294565 40.7705435 -10.59926107 38.80147786 -12 36 C-13.98 36.495 -13.98 36.495 -16 37 C-15.67 36.195625 -15.34 35.39125 -15 34.5625 C-13.79282865 30.26195205 -13.82278647 26.43033819 -14 22 C-13.34 22 -12.68 22 -12 22 C-12.33 20.35 -12.66 18.7 -13 17 C-12.01 16.67 -11.02 16.34 -10 16 C-8.79117904 13.99983534 -8.79117904 13.99983534 -8 12 C-7.01 12 -6.02 12 -5 12 C-4.67 12.66 -4.34 13.32 -4 14 C-1.3184721 10.92307254 -0.57912193 8.80265337 -0.3125 4.75 C-0.24675781 3.85796875 -0.18101563 2.9659375 -0.11328125 2.046875 C-0.07589844 1.37140625 -0.03851563 0.6959375 0 0 Z M-11 17 C-11.33 17.66 -11.66 18.32 -12 19 C-11.34 19 -10.68 19 -10 19 C-10.33 18.34 -10.66 17.68 -11 17 Z " fill="#200A05" transform="translate(89,21)"/>
<path d="M0 0 C2.31 0 4.62 0 7 0 C7 2.64 7 5.28 7 8 C8.65 8.33 10.3 8.66 12 9 C11.67 9.99 11.34 10.98 11 12 C10.34 12 9.68 12 9 12 C9 17.28 9 22.56 9 28 C8.67 28 8.34 28 8 28 C7.67 24.7 7.34 21.4 7 18 C5.68 18.99 4.36 19.98 3 21 C0.25 21.1875 0.25 21.1875 -2 21 C-2 23.31 -2 25.62 -2 28 C-3.32 28 -4.64 28 -6 28 C-6.33 22.39 -6.66 16.78 -7 11 C-6.34 11 -5.68 11 -5 11 C-5.33 10.01 -5.66 9.02 -6 8 C-4.02 8 -2.04 8 0 8 C0 5.36 0 2.72 0 0 Z " fill="#171717" transform="translate(69,78)"/>
<path d="M0 0 C2.375 0.1875 2.375 0.1875 5 1 C6.3125 3.5625 6.3125 3.5625 7 6 C7.721875 5.195625 8.44375 4.39125 9.1875 3.5625 C12.02515689 0.97707928 13.27166147 0.31957187 17 0 C17 0.66 17 1.32 17 2 C17.66 2.33 18.32 2.66 19 3 C17.02 7.95 15.04 12.9 13 18 C13.99 18 14.98 18 16 18 C15.01 20.475 15.01 20.475 14 23 C12.35 22.67 10.7 22.34 9 22 C9 24.31 9 26.62 9 29 C7.02 29 5.04 29 3 29 C3 25.7 3 22.4 3 19 C3.66 19 4.32 19 5 19 C5.68402394 11.44533559 4.86045439 7.83254527 0 2 C0 1.34 0 0.68 0 0 Z " fill="#060606" transform="translate(16,68)"/>
<path d="M0 0 C4.6 2.2 4.6 2.2 6 5 C6.39447548 9.18144011 6.45035186 11.30946048 4.125 14.875 C1.37379583 17.62620417 0.54761821 17.94929461 -3.375 18.3125 C-7 18 -7 18 -9.375 16.125 C-12.27394168 12.33407627 -12.48603989 9.77939224 -12 5 C-8.55801715 0.097782 -5.87587932 -0.83941133 0 0 Z " fill="#D5D5D5" transform="translate(95,68)"/>
<path d="M0 0 C2 3 2 3 2 5 C2.99 5.33 3.98 5.66 5 6 C5 6.66 5 7.32 5 8 C5.61488281 8.12117188 6.22976562 8.24234375 6.86328125 8.3671875 C8.07564453 8.61855469 8.07564453 8.61855469 9.3125 8.875 C10.11300781 9.03742188 10.91351563 9.19984375 11.73828125 9.3671875 C14 10 14 10 17 12 C14.98177083 12.42317708 12.96354167 12.84635417 10.9453125 13.26953125 C8.62953451 13.92308838 8.62953451 13.92308838 7 17 C6.54605448 19.27912938 6.54605448 19.27912938 6.375 21.6875 C6.30023438 22.49574219 6.22546875 23.30398437 6.1484375 24.13671875 C6.09945312 24.75160156 6.05046875 25.36648437 6 26 C5.34 26 4.68 26 4 26 C4 21.38 4 16.76 4 12 C2.35 12 0.7 12 -1 12 C-1 14.31 -1 16.62 -1 19 C-3.31 19 -5.62 19 -8 19 C-8 16.69 -8 14.38 -8 12 C-9.65 11.67 -11.3 11.34 -13 11 C-13 9.68 -13 8.36 -13 7 C-12.0925 6.566875 -11.185 6.13375 -10.25 5.6875 C-7.55635646 4.28887739 -5.39818368 2.81931176 -3 1 C-2.01 0.67 -1.02 0.34 0 0 Z " fill="#070505" transform="translate(77,56)"/>
<path d="M0 0 C10.44444444 0 10.44444444 0 14 2 C15.72370774 5.44741547 15.50306672 9.23035339 15 13 C13.12379387 15.50160818 11.76108697 16.61945652 9 18 C6.03 18 3.06 18 0 18 C0 12.06 0 6.12 0 0 Z " fill="#CECECE" transform="translate(103,68)"/>
<path d="M0 0 C2.35546875 0.0078125 2.35546875 0.0078125 5 1 C6.38742899 3.35351294 7.35984186 5.35636291 8.3125 7.875 C8.57611328 8.51308594 8.83972656 9.15117188 9.11132812 9.80859375 C10.26722414 12.68482331 11 14.87529944 11 18 C9.68 18 8.36 18 7 18 C6.67 16.35 6.34 14.7 6 13 C1.94914321 13.24631557 1.94914321 13.24631557 -2 14 C-3.5899433 15.92064793 -3.5899433 15.92064793 -4 18 C-4.99 18 -5.98 18 -7 18 C-6.34422814 13.97594538 -5.08843632 10.49944851 -3.5 6.75 C-3.0565625 5.69296875 -2.613125 4.6359375 -2.15625 3.546875 C-1 1 -1 1 0 0 Z " fill="#E3E3E3" transform="translate(126,68)"/>
<path d="M0 0 C2.35546875 0.0078125 2.35546875 0.0078125 5 1 C6.38742899 3.35351294 7.35984186 5.35636291 8.3125 7.875 C8.57611328 8.51308594 8.83972656 9.15117188 9.11132812 9.80859375 C10.26722414 12.68482331 11 14.87529944 11 18 C9.68 18 8.36 18 7 18 C6.67 16.35 6.34 14.7 6 13 C1.94914321 13.24631557 1.94914321 13.24631557 -2 14 C-3.5899433 15.92064793 -3.5899433 15.92064793 -4 18 C-4.99 18 -5.98 18 -7 18 C-6.34422814 13.97594538 -5.08843632 10.49944851 -3.5 6.75 C-3.0565625 5.69296875 -2.613125 4.6359375 -2.15625 3.546875 C-1 1 -1 1 0 0 Z " fill="#D9D9D9" transform="translate(36,68)"/>
<path d="M0 0 C1.32 0 2.64 0 4 0 C4 2.31 4 4.62 4 7 C6.31 7 8.62 7 11 7 C11 4.69 11 2.38 11 0 C12.32 0 13.64 0 15 0 C15 5.94 15 11.88 15 18 C13.68 18 12.36 18 11 18 C11 15.36 11 12.72 11 10 C8.69 10 6.38 10 4 10 C4 12.31 4 14.62 4 17 C2.68 17 1.36 17 0 17 C0 11.39 0 5.78 0 0 Z " fill="#D2D2D2" transform="translate(65,68)"/>
<path d="M0 0 C1.32 0 2.64 0 4 0 C4 2.31 4 4.62 4 7 C5.98 7 7.96 7 10 7 C10 4.69 10 2.38 10 0 C11.32 0 12.64 0 14 0 C14 5.28 14 10.56 14 16 C12.68 16 11.36 16 10 16 C10 13.69 10 11.38 10 9 C8.02 9 6.04 9 4 9 C4 11.31 4 13.62 4 16 C2.68 16 1.36 16 0 16 C0 10.72 0 5.44 0 0 Z " fill="#CBCBCB" transform="translate(15,90)"/>
<path d="M0 0 C2.32421875 0.1640625 2.32421875 0.1640625 5 1 C6.58203125 3.3984375 6.58203125 3.3984375 7.8125 6.375 C8.44091797 7.84066406 8.44091797 7.84066406 9.08203125 9.3359375 C10 12 10 12 10 15 C8.68 15 7.36 15 6 15 C6 13.68 6 12.36 6 11 C3.36 11 0.72 11 -2 11 C-2 12.32 -2 13.64 -2 15 C-3.32 15 -4.64 15 -6 15 C-3.10933941 4.44191344 -3.10933941 4.44191344 0 0 Z " fill="#D5D5D5" transform="translate(101,91)"/>
<path d="M0 0 C0.99 0.66 1.98 1.32 3 2 C3.6875 5.625 3.6875 5.625 4 9 C5.32 9.33 6.64 9.66 8 10 C5 12 5 12 1 12 C0.01 13.485 0.01 13.485 -1 15 C-2.98 14.34 -4.96 13.68 -7 13 C-7 17.29 -7 21.58 -7 26 C-7.33 26 -7.66 26 -8 26 C-8 21.38 -8 16.76 -8 12 C-6.35 12 -4.7 12 -3 12 C-3 11.34 -3 10.68 -3 10 C-5.64 10 -8.28 10 -11 10 C-11 9.01 -11 8.02 -11 7 C-10.37351562 6.74605469 -9.74703125 6.49210937 -9.1015625 6.23046875 C-8.28429687 5.88628906 -7.46703125 5.54210937 -6.625 5.1875 C-5.81289062 4.85105469 -5.00078125 4.51460938 -4.1640625 4.16796875 C-1.69852542 3.05560918 -1.69852542 3.05560918 0 0 Z " fill="#1A1A1A" transform="translate(100,80)"/>
<path d="M0 0 C0.90105469 0.02707031 1.80210938 0.05414063 2.73046875 0.08203125 C3.76107422 0.13423828 3.76107422 0.13423828 4.8125 0.1875 C4.8125 1.1775 4.8125 2.1675 4.8125 3.1875 C2.1725 3.1875 -0.4675 3.1875 -3.1875 3.1875 C-3.1875 3.8475 -3.1875 4.5075 -3.1875 5.1875 C-2.62160156 5.46464844 -2.05570313 5.74179688 -1.47265625 6.02734375 C-0.73917969 6.38957031 -0.00570312 6.75179687 0.75 7.125 C1.48089844 7.48464844 2.21179688 7.84429687 2.96484375 8.21484375 C4.8125 9.1875 4.8125 9.1875 5.8125 10.1875 C6.09667861 12.88719684 6.13727191 14.59885091 4.8125 17 C1.52570817 18.95153265 -1.4088697 18.42741304 -5.1875 18.1875 C-5.8475 17.8575 -6.5075 17.5275 -7.1875 17.1875 C-6.8575 16.1975 -6.5275 15.2075 -6.1875 14.1875 C-3.8775 14.5175 -1.5675 14.8475 0.8125 15.1875 C0.8125 14.1975 0.8125 13.2075 0.8125 12.1875 C-1.14523135 10.76491161 -3.20697311 9.70619426 -5.33984375 8.56640625 C-7.1875 7.1875 -7.1875 7.1875 -8.12890625 5.21484375 C-8.1875 3.1875 -8.1875 3.1875 -7.07421875 1.44921875 C-4.58146694 -0.21777676 -2.97208072 -0.11579535 0 0 Z " fill="#E0E0E0" transform="translate(56.1875,67.8125)"/>
<path d="M0 0 C0.76681614 8.77578475 0.76681614 8.77578475 -1.11328125 11.77734375 C-2.5 13.125 -2.5 13.125 -5 15 C-5 14.01 -5 13.02 -5 12 C-8.12197478 13.3089572 -8.12197478 13.3089572 -10 16 C-10.66 16 -11.32 16 -12 16 C-11.66256536 9.47626361 -10.63140843 6.63140843 -6 2 C-3 0 -3 0 0 0 Z " fill="#CE7945" transform="translate(89,21)"/>
<path d="M0 0 C0.33 0 0.66 0 1 0 C0.78956684 5.99734506 -0.22615086 9.25514826 -4.3671875 13.65625 C-6.49043462 15.40361127 -8.26490103 15.91955591 -11 16 C-11.51211281 9.59858988 -11.11888494 6.01989102 -7 1 C-6.67 1.99 -6.34 2.98 -6 4 C-2.81765895 2.24545615 -2.81765895 2.24545615 0 0 Z " fill="#C47E52" transform="translate(75,47)"/>
<path d="M0 0 C4.26272329 1.52240117 5.98031034 4.03275246 8 8 C8.31674074 11.03378241 8.24296324 13.96295955 8 17 C5.14458787 16.91601729 3.43760967 16.39043615 1.296875 14.48046875 C-1.83700878 11.00244352 -1.83700878 11.00244352 -3 9 C-2.67 8.01 -2.34 7.02 -2 6 C-1.34 6.33 -0.68 6.66 0 7 C0 4.69 0 2.38 0 0 Z " fill="#C07D52" transform="translate(81,46)"/>
<path d="M0 0 C1.49080078 0.02707031 1.49080078 0.02707031 3.01171875 0.0546875 C3.77097656 0.07789063 4.53023437 0.10109375 5.3125 0.125 C4.3225 0.455 3.3325 0.785 2.3125 1.125 C2.3125 2.115 2.3125 3.105 2.3125 4.125 C4.6225 4.455 6.9325 4.785 9.3125 5.125 C6.41836554 8.29476631 4.34678587 9.04694069 0 9.375 C-3.96334099 9.10629892 -6.28965531 8.11398226 -9.6875 6.125 C-9.375 4.25 -9.375 4.25 -8.6875 2.125 C-5.26655758 -0.15562828 -4.00562778 -0.09425007 0 0 Z " fill="#BA764A" transform="translate(62.6875,37.875)"/>
<path d="M0 0 C5.6383837 1.31125202 7.85405343 3.328746 11 8 C10.67 8.99 10.34 9.98 10 11 C9.34 10.67 8.68 10.34 8 10 C8 12.31 8 14.62 8 17 C4.13375348 15.48111744 2.09450161 13.59057418 0 10 C-0.3294285 6.63879981 -0.23524914 3.36536965 0 0 Z " fill="#DC8042" transform="translate(64,21)"/>
<path d="M0 0 C2.5 -0.3125 2.5 -0.3125 5 0 C7 2 7 2 7.265625 4.3125 C7.26046875 5.199375 7.2553125 6.08625 7.25 7 C7.25515625 7.886875 7.2603125 8.77375 7.265625 9.6875 C7 12 7 12 5 14 C2.375 14.125 2.375 14.125 0 14 C-2.33046701 10.3586453 -2.30891093 7.2475253 -2 3 C-1.34 2.01 -0.68 1.02 0 0 Z " fill="#111111" transform="translate(89,70)"/>
<path d="M0 0 C0.99 0.33 1.98 0.66 3 1 C3 6.61 3 12.22 3 18 C4.32 18.33 5.64 18.66 7 19 C5.35 19 3.7 19 2 19 C1.67 18.34 1.34 17.68 1 17 C0.01 17.66 -0.98 18.32 -2 19 C-1.67 16.36 -1.34 13.72 -1 11 C-3.97 9.35 -6.94 7.7 -10 6 C-9.67 5.01 -9.34 4.02 -9 3 C-3.25 2.875 -3.25 2.875 -1 4 C-0.67 2.68 -0.34 1.36 0 0 Z " fill="#181818" transform="translate(62,67)"/>
<path d="M0 0 C3.625 1.5 3.625 1.5 6 3 C5 6 5 6 1.8125 7.6875 C-1.5347925 9.01535157 -4.38491227 9.26451861 -8 9 C-8.33 8.34 -8.66 7.68 -9 7 C-8.34 7 -7.68 7 -7 7 C-9.12780579 4.65941363 -11.11562221 3.29299694 -14 2 C-9.43794641 -0.6384227 -5.15064928 -0.55879686 0 0 Z " fill="#E07E3B" transform="translate(95,38)"/>
<path d="M0 0 C2.375 0.1875 2.375 0.1875 5 1 C6.3125 3.5625 6.3125 3.5625 7 6 C7.7425 5.195625 8.485 4.39125 9.25 3.5625 C11.75304829 1.23011409 12.7180955 0.36465606 16 0 C14.98865692 2.17827741 14.02507899 3.97031466 12.46875 5.8125 C10.72139181 8.41494837 10.51673517 10.14562542 10.3125 13.25 C10.24675781 14.14203125 10.18101563 15.0340625 10.11328125 15.953125 C10.07589844 16.62859375 10.03851563 17.3040625 10 18 C8.68 18 7.36 18 6 18 C5.98582031 17.43152344 5.97164062 16.86304687 5.95703125 16.27734375 C5.56772256 9.97475164 3.90802868 6.91008731 0 2 C0 1.34 0 0.68 0 0 Z " fill="#DDDDDD" transform="translate(16,68)"/>
<path d="M0 0 C8.75 -0.125 8.75 -0.125 11 1 C11.1875 3.375 11.1875 3.375 11 6 C7.77208445 8.1519437 6.71599191 8.20086443 3 8 C3 10.31 3 12.62 3 15 C2.01 15 1.02 15 0 15 C0 10.05 0 5.1 0 0 Z " fill="#F2F2F2" transform="translate(64,91)"/>
<path d="M0 0 C0 0.99 0 1.98 0 3 C-2.31 2.67 -4.62 2.34 -7 2 C-5.86516076 5.40451771 -5.44722063 5.6005564 -2.4375 7.1875 C-1.303125 7.785625 -0.16875 8.38375 1 9 C1.1875 11.375 1.1875 11.375 1 14 C-2.20380017 16.13586678 -3.01939967 16.23132175 -6.6875 16.125 C-7.89986328 16.09792969 -7.89986328 16.09792969 -9.13671875 16.0703125 C-9.75160156 16.04710938 -10.36648437 16.02390625 -11 16 C-11 15.01 -11 14.02 -11 13 C-8.03 13.33 -5.06 13.66 -2 14 C-3.17744585 10.46766245 -3.95605641 10.13691925 -7.0625 8.3125 C-7.79597656 7.87550781 -8.52945313 7.43851562 -9.28515625 6.98828125 C-9.85105469 6.66214844 -10.41695313 6.33601563 -11 6 C-10.625 3.5625 -10.625 3.5625 -10 1 C-6.78548731 -0.60725635 -3.56387464 -0.05748185 0 0 Z " fill="#EAEAEA" transform="translate(136,90)"/>
<path d="M0 0 C1.8871875 0.061875 1.8871875 0.061875 3.8125 0.125 C3.8125 1.115 3.8125 2.105 3.8125 3.125 C1.5025 2.795 -0.8075 2.465 -3.1875 2.125 C-2.01005415 5.65733755 -1.23144359 5.98808075 1.875 7.8125 C2.60847656 8.24949219 3.34195313 8.68648437 4.09765625 9.13671875 C4.66355469 9.46285156 5.22945312 9.78898437 5.8125 10.125 C5.5 12 5.5 12 4.8125 14.125 C1.72361478 16.18425681 1.10314073 16.3640374 -2.375 16.25 C-3.633125 16.20875 -4.89125 16.1675 -6.1875 16.125 C-5.8575 15.135 -5.5275 14.145 -5.1875 13.125 C-2.8775 13.455 -0.5675 13.785 1.8125 14.125 C0.53647664 10.29692991 -1.18410684 10.0432013 -4.59765625 8.2421875 C-6.1875 7.125 -6.1875 7.125 -7.125 4.375 C-7.145625 3.6325 -7.16625 2.89 -7.1875 2.125 C-4.09861478 0.06574319 -3.47814073 -0.1140374 0 0 Z " fill="#DFDFDF" transform="translate(55.1875,89.875)"/>
<path d="M0 0 C6 1 6 1 7 2 C7.203125 3.9609375 7.203125 3.9609375 7.25 6.375 C7.27578125 7.16648437 7.3015625 7.95796875 7.328125 8.7734375 C7 11 7 11 5.734375 12.7890625 C4 14 4 14 0 14 C0 9.38 0 4.76 0 0 Z " fill="#1D1D1D" transform="translate(107,70)"/>
<path d="M0 0 C2.5 0.125 2.5 0.125 3.5 1.125 C3.59823937 2.78929051 3.62973631 4.45781931 3.625 6.125 C3.62757812 7.0325 3.63015625 7.94 3.6328125 8.875 C3.5 11.125 3.5 11.125 2.5 12.125 C0 12.25 0 12.25 -2.5 12.125 C-3.5 11.125 -3.5 11.125 -3.6328125 8.875 C-3.63023438 7.9675 -3.62765625 7.06 -3.625 6.125 C-3.62757812 5.2175 -3.63015625 4.31 -3.6328125 3.375 C-3.44447559 0.18435126 -3.20783655 0.16039183 0 0 Z " fill="#0B0B0B" transform="translate(38.5,91.875)"/>
<path d="M0 0 C1.32 0 2.64 0 4 0 C4 4.62 4 9.24 4 14 C6.31 14 8.62 14 11 14 C11 14.66 11 15.32 11 16 C7.37 16 3.74 16 0 16 C0 10.72 0 5.44 0 0 Z " fill="#D4D4D4" transform="translate(113,90)"/>
<path d="M0 0 C0.33 0.66 0.66 1.32 1 2 C1.66 2.33 2.32 2.66 3 3 C2.45859375 4.22976562 2.45859375 4.22976562 1.90625 5.484375 C1.4421875 6.56203125 0.978125 7.6396875 0.5 8.75 C0.0359375 9.81734375 -0.428125 10.8846875 -0.90625 11.984375 C-2.22730717 15.09207716 -2.22730717 15.09207716 -2 19 C-2.66 19 -3.32 19 -4 19 C-4 18.34 -4 17.68 -4 17 C-4.66 17 -5.32 17 -6 17 C-6.6896868 11.4825056 -6.44252427 7.95480298 -3 3.4375 C-2.02037689 2.27419755 -1.02697231 1.12172274 0 0 Z " fill="#111111" transform="translate(32,68)"/>
<path d="M0 0 C0.721875 0.763125 1.44375 1.52625 2.1875 2.3125 C4.83002025 5.0496527 4.83002025 5.0496527 7.8125 6.625 C8.534375 7.07875 9.25625 7.5325 10 8 C10 8.99 10 9.98 10 11 C8.88625 10.95875 7.7725 10.9175 6.625 10.875 C2.95633975 10.58878141 2.95633975 10.58878141 1 13 C0.67 12.01 0.34 11.02 0 10 C-0.99 10.495 -0.99 10.495 -2 11 C-1.85957123 9.35369672 -1.71250671 7.70795821 -1.5625 6.0625 C-1.48128906 5.14597656 -1.40007813 4.22945313 -1.31640625 3.28515625 C-1 1 -1 1 0 0 Z " fill="#171717" transform="translate(47,93)"/>
<path d="M0 0 C1.32 0.33 2.64 0.66 4 1 C3.01 2.485 3.01 2.485 2 4 C1.79006028 7.84889483 1.81994818 11.31233808 3 15 C4.65 15 6.3 15 8 15 C8 15.33 8 15.66 8 16 C1.50159236 16.36783439 1.50159236 16.36783439 -0.875 14.625 C-3.35442662 11.043606 -3.29869915 8.33113774 -3 4 C-1.5 1.5625 -1.5 1.5625 0 0 Z " fill="#EBEBEB" transform="translate(86,69)"/>
<path d="M0 0 C0.99 0 1.98 0 3 0 C3 2.31 3 4.62 3 7 C5.64 7 8.28 7 11 7 C11 7.33 11 7.66 11 8 C8.69 8 6.38 8 4 8 C4 10.64 4 13.28 4 16 C2.68 16 1.36 16 0 16 C0 10.72 0 5.44 0 0 Z " fill="#F6F6F6" transform="translate(65,69)"/>
<path d="M0 0 C0.66 0 1.32 0 2 0 C2.33 0.66 2.66 1.32 3 2 C3.99 2 4.98 2 6 2 C9 8.625 9 8.625 9 12 C7.68 12 6.36 12 5 12 C5 10.68 5 9.36 5 8 C2.69 8 0.38 8 -2 8 C-1.34 5.36 -0.68 2.72 0 0 Z " fill="#D3D3D3" transform="translate(102,94)"/>
<path d="M0 0 C1.65 0.33 3.3 0.66 5 1 C6.46726798 4.81489674 5.43336419 7.29011622 4 11 C2.35 11 0.7 11 -1 11 C-0.67 9.02 -0.34 7.04 0 5 C-0.66 5 -1.32 5 -2 5 C-1.34 3.35 -0.68 1.7 0 0 Z " fill="#D9D9D9" transform="translate(126,68)"/>
<path d="M0 0 C2.31 0 4.62 0 7 0 C5.68 0.33 4.36 0.66 3 1 C3 5.62 3 10.24 3 15 C4.98 14.67 6.96 14.34 9 14 C9 14.66 9 15.32 9 16 C6.03 16 3.06 16 0 16 C0 10.72 0 5.44 0 0 Z " fill="#FBFBFB" transform="translate(104,69)"/>
<path d="M0 0 C3.63 0 7.26 0 11 0 C9.68 0.33 8.36 0.66 7 1 C7 5.62 7 10.24 7 15 C6.01 15 5.02 15 4 15 C4 10.38 4 5.76 4 1 C2.68 0.67 1.36 0.34 0 0 Z " fill="#F7F7F7" transform="translate(85,91)"/>
<path d="M0 0 C0.33 0 0.66 0 1 0 C0.67 2.64 0.34 5.28 0 8 C-1.65 8.66 -3.3 9.32 -5 10 C-5.66 9.34 -6.32 8.68 -7 8 C-6.34 7.01 -5.68 6.02 -5 5 C-6.32 5 -7.64 5 -9 5 C-8.34 3.68 -7.68 2.36 -7 1 C-6.67 1.99 -6.34 2.98 -6 4 C-2.81765895 2.24545615 -2.81765895 2.24545615 0 0 Z " fill="#B97541" transform="translate(75,47)"/>
<path d="M0 0 C0.99 0 1.98 0 3 0 C3 4.95 3 9.9 3 15 C2.01 15 1.02 15 0 15 C0 10.05 0 5.1 0 0 Z " fill="#F7F7F7" transform="translate(78,91)"/>
<path d="M0 0 C0.33 0 0.66 0 1 0 C1.33 2.64 1.66 5.28 2 8 C3.65 8 5.3 8 7 8 C7.33 5.36 7.66 2.72 8 0 C8.33 0 8.66 0 9 0 C9.33 3.3 9.66 6.6 10 10 C6.94306678 11.52846661 4.37015453 11.23242445 1 11 C-1.4375 9.5 -1.4375 9.5 -3 8 C-2.67 7.34 -2.34 6.68 -2 6 C-1.34 6.33 -0.68 6.66 0 7 C0 4.69 0 2.38 0 0 Z " fill="#CDCDCD" transform="translate(34,95)"/>
<path d="M0 0 C1 3 1 3 0 6 C1.65 6 3.3 6 5 6 C5 6.33 5 6.66 5 7 C3.02 7 1.04 7 -1 7 C-1.66 8.98 -2.32 10.96 -3 13 C-3.99 13 -4.98 13 -6 13 C-5.39301257 8.87248551 -3.96189209 5.6678852 -2 2 C-1.34 2 -0.68 2 0 2 C0 1.34 0 0.68 0 0 Z " fill="#E5E5E5" transform="translate(35,73)"/>
<path d="M0 0 C0.66 0.33 1.32 0.66 2 1 C2.49940808 7.11774896 1.24900602 10.02495953 -2 15 C0.97 15.495 0.97 15.495 4 16 C4 16.33 4 16.66 4 17 C-0.95 17.495 -0.95 17.495 -6 18 C-5 14 -5 14 -3 12.375 C0.08462862 8.71200351 -0.17773311 4.65660759 0 0 Z " fill="#3C190B" transform="translate(89,21)"/>
<path d="M0 0 C1.9375 1 1.9375 1 4 3 C4.66549451 5.69924572 4.81680763 8.20631637 5 11 C2.5625 10.3125 2.5625 10.3125 0 9 C-1.21537818 5.70111637 -1.10272046 3.30816138 0 0 Z " fill="#E27F3E" transform="translate(83,50)"/>
<path d="M0 0 C0.66 0 1.32 0 2 0 C2 1.32 2 2.64 2 4 C3.32 4.33 4.64 4.66 6 5 C4.68 5 3.36 5 2 5 C2 7.31 2 9.62 2 12 C1.01 12 0.02 12 -1 12 C-1.02687279 10.18757948 -1.04633715 8.37504767 -1.0625 6.5625 C-1.07410156 5.55316406 -1.08570313 4.54382813 -1.09765625 3.50390625 C-1 1 -1 1 0 0 Z " fill="#F3F3F3" transform="translate(65,94)"/>
<path d="M0 0 C0.33 1.98 0.66 3.96 1 6 C-5.75 5.125 -5.75 5.125 -8 4 C-8 3.01 -8 2.02 -8 1 C-5.07175348 0.02391783 -3.04386724 -0.08226668 0 0 Z " fill="#E37E3B" transform="translate(65,39)"/>
<path d="M0 0 C1.8871875 0.061875 1.8871875 0.061875 3.8125 0.125 C3.8125 1.115 3.8125 2.105 3.8125 3.125 C1.5025 2.795 -0.8075 2.465 -3.1875 2.125 C-3.5175 3.775 -3.8475 5.425 -4.1875 7.125 C-4.8475 7.125 -5.5075 7.125 -6.1875 7.125 C-6.5175 5.475 -6.8475 3.825 -7.1875 2.125 C-4.09861478 0.06574319 -3.47814073 -0.1140374 0 0 Z " fill="#CECECE" transform="translate(55.1875,89.875)"/>
<path d="M0 0 C0.33 1.98 0.66 3.96 1 6 C-0.32 6 -1.64 6 -3 6 C-3.33 4.35 -3.66 2.7 -4 1 C-6.64 1 -9.28 1 -12 1 C-12 0.67 -12 0.34 -12 0 C-7.6835078 -0.76173392 -4.25566547 -1.16063604 0 0 Z " fill="#C9C9C9" transform="translate(136,80)"/>
<path d="M0 0 C1.98 0.66 3.96 1.32 6 2 C5 5 5 5 1.8125 6.6875 C-1.5347925 8.01535157 -4.38491227 8.26451861 -8 8 C-8.33 7.34 -8.66 6.68 -9 6 C-3.555 5.01 -3.555 5.01 2 4 C1.34 2.68 0.68 1.36 0 0 Z " fill="#BA7D53" transform="translate(95,39)"/>
<path d="M0 0 C1.33804688 0.04060547 1.33804688 0.04060547 2.703125 0.08203125 C3.37859375 0.11683594 4.0540625 0.15164062 4.75 0.1875 C4.42 0.8475 4.09 1.5075 3.75 2.1875 C2.1 2.1875 0.45 2.1875 -1.25 2.1875 C-1.25 3.1775 -1.25 4.1675 -1.25 5.1875 C-3.89 4.5275 -6.53 3.8675 -9.25 3.1875 C-6.10408067 0.38704377 -4.182936 -0.16511589 0 0 Z " fill="#C37C4C" transform="translate(90.25,37.8125)"/>
<path d="M0 0 C0.598125 0.226875 1.19625 0.45375 1.8125 0.6875 C1.338125 1.038125 0.86375 1.38875 0.375 1.75 C-1.86623825 4.52913543 -1.85867658 7.2019717 -2.1875 10.6875 C-3.1775 10.3575 -4.1675 10.0275 -5.1875 9.6875 C-5.5508218 3.26881488 -5.5508218 3.26881488 -3.9375 0.6875 C-2.1875 -0.3125 -2.1875 -0.3125 0 0 Z " fill="#F1F1F1" transform="translate(36.1875,91.3125)"/>
<path d="M0 0 C0.66 0.33 1.32 0.66 2 1 C2 1.66 2 2.32 2 3 C4.31 3 6.62 3 9 3 C8.34 4.32 7.68 5.64 7 7 C6.67 6.01 6.34 5.02 6 4 C2.87802522 5.3089572 2.87802522 5.3089572 1 8 C0.34 8 -0.32 8 -1 8 C-0.67 5.36 -0.34 2.72 0 0 Z " fill="#AC704F" transform="translate(78,29)"/>
<path d="M0 0 C2.9375 0.75 2.9375 0.75 6 2 C6.875 4.125 6.875 4.125 7 6 C4.69 6 2.38 6 0 6 C0 4 0 2 0 0 Z " fill="#1D1D1D" transform="translate(127,98)"/>
<path d="M0 0 C0.556875 0.391875 1.11375 0.78375 1.6875 1.1875 C1.6875 2.1775 1.6875 3.1675 1.6875 4.1875 C0.57375 4.14625 -0.54 4.105 -1.6875 4.0625 C-5.35616025 3.77628141 -5.35616025 3.77628141 -7.3125 6.1875 C-7.3125 4.8675 -7.3125 3.5475 -7.3125 2.1875 C-3.29729087 -1.1585076 -3.29729087 -1.1585076 0 0 Z " fill="#1F1F1F" transform="translate(55.3125,99.8125)"/>
<path d="M0 0 C0.33 0 0.66 0 1 0 C3.21538462 6.27692308 3.21538462 6.27692308 2.125 9.9375 C1.568125 10.9584375 1.568125 10.9584375 1 12 C0.01 12 -0.98 12 -2 12 C-2.66 12.66 -3.32 13.32 -4 14 C-4.66 13.01 -5.32 12.02 -6 11 C-5.04867187 10.64808594 -5.04867187 10.64808594 -4.078125 10.2890625 C-1.81749261 9.17709092 -1.81749261 9.17709092 -1.171875 6.8359375 C-0.96304688 5.61777344 -0.96304688 5.61777344 -0.75 4.375 C-0.60046875 3.55773437 -0.4509375 2.74046875 -0.296875 1.8984375 C-0.19890625 1.27195312 -0.1009375 0.64546875 0 0 Z " fill="#2A2A2A" transform="translate(118,74)"/>
<path d="M0 0 C2.475 0.99 2.475 0.99 5 2 C4.67 3.32 4.34 4.64 4 6 C1.69 5.67 -0.62 5.34 -3 5 C-2.01 3.35 -1.02 1.7 0 0 Z " fill="#1B1B1B" transform="translate(53,78)"/>
<path d="M0 0 C1.32 0 2.64 0 4 0 C4 2.33333333 4 4.66666667 4 7 C2.35 7.33 0.7 7.66 -1 8 C-0.67 5.36 -0.34 2.72 0 0 Z " fill="#E1823D" transform="translate(66,52)"/>
<path d="M0 0 C4 2 4 2 6 5 C5.01 5 4.02 5 3 5 C2.67 7.31 2.34 9.62 2 12 C1.34 11.67 0.68 11.34 0 11 C0 7.37 0 3.74 0 0 Z " fill="#B97244" transform="translate(81,46)"/>
<path d="M0 0 C0.66 0 1.32 0 2 0 C2.77916092 5.02125926 3.13016601 8.97703996 2 14 C1.34 14 0.68 14 0 14 C0 9.38 0 4.76 0 0 Z " fill="#FAFAFA" transform="translate(16,91)"/>
<path d="M0 0 C2.31 0.33 4.62 0.66 7 1 C7 1.99 7 2.98 7 4 C5.68 4.33 4.36 4.66 3 5 C2.67 4.34 2.34 3.68 2 3 C0.68 4.65 -0.64 6.3 -2 8 C-1.125 2.25 -1.125 2.25 0 0 Z " fill="#2E0B03" transform="translate(66,46)"/>
<path d="M0 0 C2.31 0.66 4.62 1.32 7 2 C6.01 4.31 5.02 6.62 4 9 C2 8 2 8 1.3671875 6.15234375 C1.20476562 5.42144531 1.04234375 4.69054687 0.875 3.9375 C0.70742187 3.20402344 0.53984375 2.47054687 0.3671875 1.71484375 C0.24601562 1.14894531 0.12484375 0.58304687 0 0 Z " fill="#0F0F0F" transform="translate(117,71)"/>
<path d="M0 0 C-1.19628253 2.39256506 -2.12565265 2.79843378 -4.4375 4.0625 C-5.05496094 4.40410156 -5.67242187 4.74570312 -6.30859375 5.09765625 C-7.52991482 5.74921553 -8.76188703 6.38094352 -10 7 C-8.7082768 1.46404342 -8.7082768 1.46404342 -6.1875 -0.1875 C-3.64535109 -1.13172674 -2.51089376 -0.89674777 0 0 Z " fill="#200802" transform="translate(90,19)"/>
<path d="M0 0 C0 0.99 0 1.98 0 3 C-2.31 2.67 -4.62 2.34 -7 2 C-7.33 2.99 -7.66 3.98 -8 5 C-8.99 4.67 -9.98 4.34 -11 4 C-10.67 3.01 -10.34 2.02 -10 1 C-6.78548731 -0.60725635 -3.56387464 -0.05748185 0 0 Z " fill="#C2C2C2" transform="translate(136,90)"/>
<path d="M0 0 C2.31 0.33 4.62 0.66 7 1 C7.33 2.65 7.66 4.3 8 6 C5 8 5 8 2.8125 7.625 C2.214375 7.41875 1.61625 7.2125 1 7 C1.639375 6.71125 2.27875 6.4225 2.9375 6.125 C5.15206079 5.17176549 5.15206079 5.17176549 6 3 C4.02 2.34 2.04 1.68 0 1 C0 0.67 0 0.34 0 0 Z " fill="#2D0E06" transform="translate(95,38)"/>
<path d="M0 0 C0.66 1.32 1.32 2.64 2 4 C0.10114904 5.89885096 -2.57247903 5.12367506 -5.08984375 5.1328125 C-7 5 -7 5 -9 4 C-8.67 3.01 -8.34 2.02 -8 1 C-5.69 1.33 -3.38 1.66 -1 2 C-0.67 1.34 -0.34 0.68 0 0 Z " fill="#D1D1D1" transform="translate(58,81)"/>
<path d="M0 0 C1.32 1.32 2.64 2.64 4 4 C3.67 4.99 3.34 5.98 3 7 C2.34 6.67 1.68 6.34 1 6 C1 8.31 1 10.62 1 13 C0.01 12.67 -0.98 12.34 -2 12 C-1.34 11.67 -0.68 11.34 0 11 C0 7.37 0 3.74 0 0 Z " fill="#B16E49" transform="translate(71,25)"/>
<path d="M0 0 C2.475 0.495 2.475 0.495 5 1 C4.67 2.32 4.34 3.64 4 5 C2.68 5.33 1.36 5.66 0 6 C0 4.02 0 2.04 0 0 Z " fill="#2C2C2C" transform="translate(67,92)"/>
<path d="M0 0 C0.33 0.99 0.66 1.98 1 3 C0 4 0 4 -3.0625 4.0625 C-4.031875 4.041875 -5.00125 4.02125 -6 4 C-6 3.01 -6 2.02 -6 1 C-4 0 -4 0 0 0 Z " fill="#020202" transform="translate(95,86)"/>
<path d="M0 0 C0.66 0.33 1.32 0.66 2 1 C2.625 4.0625 2.625 4.0625 3 7 C1.35 7 -0.3 7 -2 7 C-1.125 2.25 -1.125 2.25 0 0 Z " fill="#272727" transform="translate(37,72)"/>
<path d="M0 0 C1.50433594 0.01353516 1.50433594 0.01353516 3.0390625 0.02734375 C3.80992188 0.03894531 4.58078125 0.05054688 5.375 0.0625 C5.375 0.3925 5.375 0.7225 5.375 1.0625 C4.62734375 1.18367188 3.8796875 1.30484375 3.109375 1.4296875 C2.12453125 1.59726562 1.1396875 1.76484375 0.125 1.9375 C-0.84953125 2.09992187 -1.8240625 2.26234375 -2.828125 2.4296875 C-5.39764117 3.01105848 -7.34571056 3.77090265 -9.625 5.0625 C-7.31621143 -0.04981756 -5.45179037 -0.06339291 0 0 Z " fill="#BD8056" transform="translate(62.625,37.9375)"/>
<path d="M0 0 C0.99 0 1.98 0 3 0 C2.67 2.31 2.34 4.62 2 7 C1.01 7 0.02 7 -1 7 C-1.625 4.625 -1.625 4.625 -2 2 C-1.34 1.34 -0.68 0.68 0 0 Z " fill="#240702" transform="translate(81,33)"/>
<path d="M0 0 C0.99 0 1.98 0 3 0 C2.67 2.64 2.34 5.28 2 8 C0.68 8.33 -0.64 8.66 -2 9 C-2 7.68 -2 6.36 -2 5 C-1.01 5 -0.02 5 1 5 C0.67 3.35 0.34 1.7 0 0 Z " fill="#130300" transform="translate(75,29)"/>
<path d="M0 0 C0.66 0.33 1.32 0.66 2 1 C2.625 4.0625 2.625 4.0625 3 7 C1.35 7 -0.3 7 -2 7 C-1.34 4.69 -0.68 2.38 0 0 Z " fill="#242424" transform="translate(127,72)"/>
<path d="M0 0 C1.65 0 3.3 0 5 0 C5.33 0.99 5.66 1.98 6 3 C5.67 3.66 5.34 4.32 5 5 C2.525 4.01 2.525 4.01 0 3 C0 2.01 0 1.02 0 0 Z " fill="#171717" transform="translate(52,92)"/>
<path d="M0 0 C0.66 0 1.32 0 2 0 C2 2.64 2 5.28 2 8 C1.01 8 0.02 8 -1 8 C-1.125 2.25 -1.125 2.25 0 0 Z " fill="#FBFBFB" transform="translate(23,77)"/>
<path d="M0 0 C2.02045442 0.60183749 4.02111039 1.27306096 6 2 C6.33 2.66 6.66 3.32 7 4 C4.03 3.505 4.03 3.505 1 3 C1 5.31 1 7.62 1 10 C0.67 10 0.34 10 0 10 C0 6.7 0 3.4 0 0 Z " fill="#BA7A52" transform="translate(64,21)"/>
<path d="M0 0 C2.475 0.99 2.475 0.99 5 2 C4.67 3.32 4.34 4.64 4 6 C2.02 5.01 0.04 4.02 -2 3 C-1.34 2.01 -0.68 1.02 0 0 Z " fill="#E8E8E8" transform="translate(52,95)"/>
<path d="M0 0 C6.15234375 0.5859375 6.15234375 0.5859375 8 1 C8.33 1.66 8.66 2.32 9 3 C6.03 3 3.06 3 0 3 C0 2.01 0 1.02 0 0 Z " fill="#CCCCCC" transform="translate(125,103)"/>
<path d="M0 0 C0.33 0 0.66 0 1 0 C1.33 3.3 1.66 6.6 2 10 C0.68 10.33 -0.64 10.66 -2 11 C-2.99 10.34 -3.98 9.68 -5 9 C-3.68 8.67 -2.36 8.34 -1 8 C-0.67 5.36 -0.34 2.72 0 0 Z " fill="#AAAAAA" transform="translate(42,95)"/>
<path d="M0 0 C0.33 0 0.66 0 1 0 C2 6.625 2 6.625 2 10 C1.01 10 0.02 10 -1 10 C-0.67 6.7 -0.34 3.4 0 0 Z " fill="#0F0F0F" transform="translate(30,96)"/>
<path d="M0 0 C0.99 0 1.98 0 3 0 C3 1.65 3 3.3 3 5 C2.01 5.33 1.02 5.66 0 6 C-0.38218767 4.34385343 -0.71395102 2.67542976 -1 1 C-0.67 0.67 -0.34 0.34 0 0 Z " fill="#F3F3F3" transform="translate(59,78)"/>
<path d="M0 0 C0.66 0 1.32 0 2 0 C2.33 1.98 2.66 3.96 3 6 C1.68 6 0.36 6 -1 6 C-0.67 4.02 -0.34 2.04 0 0 Z " fill="#272727" transform="translate(102,94)"/>
<path d="M0 0 C0.66 0 1.32 0 2 0 C2 1.32 2 2.64 2 4 C3.32 4.33 4.64 4.66 6 5 C5.21625 4.95875 4.4325 4.9175 3.625 4.875 C0.83883881 4.71271266 0.83883881 4.71271266 -1 7 C-1.04254356 5.00045254 -1.04080783 2.99958364 -1 1 C-0.67 0.67 -0.34 0.34 0 0 Z " fill="#FAFAFA" transform="translate(65,94)"/>
<path d="M0 0 C1.32 0 2.64 0 4 0 C4 0.99 4 1.98 4 3 C3.01 3 2.02 3 1 3 C1.33 4.65 1.66 6.3 2 8 C1.01 7.67 0.02 7.34 -1 7 C-0.67 4.69 -0.34 2.38 0 0 Z " fill="#381B12" transform="translate(72,31)"/>
<path d="M0 0 C0.66 0.33 1.32 0.66 2 1 C2 2.65 2 4.3 2 6 C1.01 6.495 1.01 6.495 0 7 C0 5.68 0 4.36 0 3 C-0.66 3 -1.32 3 -2 3 C-2.33 3.66 -2.66 4.32 -3 5 C-3 4.01 -3 3.02 -3 2 C-2.01 2 -1.02 2 0 2 C0 1.34 0 0.68 0 0 Z " fill="#DA864F" transform="translate(87,22)"/>
<path d="M0 0 C2.475 0.495 2.475 0.495 5 1 C5.33 2.32 5.66 3.64 6 5 C5.01 5.33 4.02 5.66 3 6 C3 4.68 3 3.36 3 2 C2.01 1.67 1.02 1.34 0 1 C0 0.67 0 0.34 0 0 Z " fill="#EBEBEB" transform="translate(101,91)"/>
<path d="M0 0 C1.98 0 3.96 0 6 0 C4.68 1.32 3.36 2.64 2 4 C1.01 3.67 0.02 3.34 -1 3 C-0.67 2.01 -0.34 1.02 0 0 Z " fill="#212121" transform="translate(53,70)"/>
<path d="M0 0 C0.66 0.33 1.32 0.66 2 1 C1.34 1.66 0.68 2.32 0 3 C0.33 3.99 0.66 4.98 1 6 C-0.32 5.67 -1.64 5.34 -3 5 C-3 3.68 -3 2.36 -3 1 C-2.01 0.67 -1.02 0.34 0 0 Z " fill="#190D09" transform="translate(67,62)"/>
</svg>
